<?xml version="1.0" standalone="no"?>
<!DOCTYPE svg PUBLIC "-//W3C//DTD SVG 1.1//EN" "http://www.w3.org/Graphics/SVG/1.1/DTD/svg11.dtd" >
<svg>
<metadata>
Created by FontForge 20090914 at Sun Aug 11 08:15:36 2013
 By www-data
Copyright (c) 2012, Omnibus-Type (www.omnibus-type.com|omnibus.type@gmail.com),with Reserved Font Name: Archivo
</metadata>
<defs>
<font id="ArchivoNarrow-Regular" horiz-adv-x="934" >
  <font-face 
    font-family="Archivo Narrow"
    font-weight="400"
    font-stretch="normal"
    units-per-em="2048"
    panose-1="2 0 0 0 0 0 0 0 0 0"
    ascent="1638"
    descent="-410"
    x-height="1077"
    cap-height="1405"
    bbox="-356 -620 1966 1960"
    underline-thickness="50"
    underline-position="-50"
    unicode-range="U+000D-U+FB02"
  />
<missing-glyph horiz-adv-x="467" 
d="M1024 0h-1024v1434h1024v-1434zM164 103h696l-349 521zM103 194l347 523l-347 522v-1045zM574 717l347 -523v1045zM164 1331l347 -522l349 522h-696z" />
    <glyph glyph-name=".notdef" horiz-adv-x="467" 
d="M1024 0h-1024v1434h1024v-1434zM164 103h696l-349 521zM103 194l347 523l-347 522v-1045zM574 717l347 -523v1045zM164 1331l347 -522l349 522h-696z" />
    <glyph glyph-name="NULL" horiz-adv-x="0" 
 />
    <glyph glyph-name="NULL" horiz-adv-x="0" 
 />
    <glyph glyph-name="nonmarkingreturn" unicode="&#xd;" horiz-adv-x="0" 
 />
    <glyph glyph-name="space" unicode=" " horiz-adv-x="467" 
 />
    <glyph glyph-name="exclam" unicode="!" horiz-adv-x="467" 
d="M354 1405c-2 -19.333 -4.16699 -50.332 -6.5 -92.999l-8 -150c-3 -57.333 -6 -120.333 -9 -189s-6.33301 -138.834 -10 -210.501l-10.5 -213.5c-3.33301 -70.667 -6.33301 -137 -9 -199h-127l-24 528c-8 175.333 -17 351 -27 527h231zM342 0.000976562h-205v222h205v-222
z" />
    <glyph glyph-name="quotedbl" unicode="&#x22;" horiz-adv-x="596" 
d="M517 1104c-9.33301 -46 -17.5 -91.333 -24.5 -136l-21.5 -134h-80l-21.5 134l-21.5 136v301h169v-301zM244 1104l-21.999 -136.001l-22 -134h-79c-8 44.667 -15.333 89.334 -22 134.001s-14.334 90 -23.001 136v301h168v-301z" />
    <glyph glyph-name="numbersign" unicode="#" 
d="M784 996h123v-156h-158l-69 -317h146v-156h-181l-82 -367h-155l81 367h-184l-81 -367h-157l82 367h-131v156h166l70 317h-155v156h190l96 430h156l-97 -430h184l97 430h156zM410 840l-70 -317h185l69 317h-184z" />
    <glyph glyph-name="dollar" unicode="$" 
d="M515 1264c46 -3.33301 86.6699 -13.5059 122.003 -30.5059s64.833 -38.667 88.5 -65s41.667 -56.5 54 -90.5s18.5 -69.667 18.5 -107c0 -7.33301 -0.333008 -15.166 -1 -23.499s-1 -13.833 -1 -16.5h-166v19c0 18.667 -1.83301 37 -5.5 55s-10 34.5 -19 49.5
s-20.833 28.167 -35.5 39.5s-33 19.666 -55 24.999v-325c35.333 -12 71.166 -25.167 107.499 -39.5s69.166 -33.5 98.499 -57.5s53.166 -54 71.499 -90s27.5 -81.333 27.5 -136c0 -53.333 -7.66699 -99.833 -23 -139.5s-36.5 -73 -63.5 -100s-59.167 -47.833 -96.5 -62.5
s-78 -24 -122 -28v-242h-101v242c-55.333 4.66699 -102.166 16.667 -140.499 36s-69.833 43.333 -94.5 72s-42.5 60.834 -53.5 96.501s-16.5 72.167 -16.5 109.5c0 14 0.333008 24.333 1 31s1 11 1 13h168v-20c0 -58 12.5 -102.167 37.5 -132.5s57.5 -50.166 97.5 -59.499
v366c-34 12 -67.833 25.333 -101.5 40s-63.834 33.334 -90.501 56.001s-48.167 50.834 -64.5 84.501s-24.5 75.5 -24.5 125.5c0 42.667 6.5 81.334 19.5 116.001s31.667 64.834 56 90.501s53.833 46.667 88.5 63s73.667 27.5 117 33.5v219h101v-217zM515.003 284.994
c38.667 6 71 22.333 97 49s39 64 39 112c0 22.667 -3.5 42.667 -10.5 60s-16.5 32.833 -28.5 46.5s-26.333 25.5 -43 35.5s-34.667 19.333 -54 28v-331zM414.003 1118.99c-23.333 -4.66699 -42.333 -12.501 -57 -23.501s-26.167 -23.5 -34.5 -37.5s-14 -28.667 -17 -44
s-4.5 -29.666 -4.5 -42.999c0 -36 10.5 -64.333 31.5 -85s48.167 -38 81.5 -52v285z" />
    <glyph glyph-name="percent" unicode="%" horiz-adv-x="1493" 
d="M400 0h-144l856 1405h146zM354 1430c41.333 0 78.166 -6.00098 110.499 -18.001s59.833 -32.333 82.5 -61s39.834 -66.834 51.501 -114.501s17.5 -106.834 17.5 -177.501c0 -71.333 -5.83301 -130.666 -17.5 -177.999s-28.834 -85.166 -51.501 -113.499
s-50.167 -48.333 -82.5 -60s-69.166 -17.5 -110.499 -17.5s-78 6 -110 18s-59.333 32.167 -82 60.5s-39.834 66.166 -51.501 113.499s-17.5 106.333 -17.5 177s5.83301 129.834 17.5 177.501s28.834 85.834 51.501 114.501s50 49 82 61s68.667 18 110 18zM354 1309
c-24.667 0 -44.667 -5.83301 -60 -17.5s-27.5 -27.834 -36.5 -48.501s-15.167 -45.334 -18.5 -74.001s-5 -60 -5 -94v-31c0 -34 1.66699 -65.333 5 -94s9.5 -53.334 18.5 -74.001s21.167 -36.667 36.5 -48s35.333 -17 60 -17s44.834 5.66699 60.501 17s28 27.333 37 48
s15.167 45.334 18.5 74.001s5 60 5 94v31c0 34 -1.66699 65.333 -5 94s-9.5 53.334 -18.5 74.001s-21.333 36.834 -37 48.501s-35.834 17.5 -60.501 17.5zM1157 593.999c-24.667 0 -44.834 -5.83301 -60.501 -17.5s-28 -27.834 -37 -48.501s-15.167 -45.334 -18.5 -74.001
s-5 -60 -5 -94v-31c0 -34 1.66699 -65.333 5 -94s9.5 -53.167 18.5 -73.5s21.333 -36.166 37 -47.499s35.834 -17 60.501 -17s44.834 5.66699 60.501 17s28 27.166 37 47.499s15.167 44.833 18.5 73.5s5 60 5 94v31c0 34 -1.66699 65.333 -5 94s-9.5 53.334 -18.5 74.001
s-21.333 36.834 -37 48.501s-35.834 17.5 -60.501 17.5zM1157 714.999c40.667 0 77.334 -6 110.001 -18s60.334 -32.333 83.001 -61s40 -66.834 52 -114.501s18 -106.834 18 -177.501c0 -71.333 -6 -130.666 -18 -177.999s-29.333 -85 -52 -113
s-50.334 -47.833 -83.001 -59.5s-69.334 -17.5 -110.001 -17.5c-41.333 0 -78.166 5.83301 -110.499 17.5s-59.666 31.667 -81.999 60s-39.5 66.166 -51.5 113.499s-18 106.333 -18 177s6 129.834 18 177.501s29.167 85.834 51.5 114.501s49.666 49 81.999 61
s69.166 18 110.499 18z" />
    <glyph glyph-name="ampersand" unicode="&#x26;" horiz-adv-x="1120" 
d="M525 1430c62 0 119.165 -9.16602 171.498 -27.499s97.166 -44.333 134.499 -78s66.5 -74.167 87.5 -121.5s31.5 -100.333 31.5 -159v-36h-168v18c0 43.333 -6.5 80.833 -19.5 112.5s-31 57.667 -54 78s-50.333 35.333 -82 45s-66.167 14.5 -103.5 14.5
c-33.333 0 -65 -4.5 -95 -13.5s-56.167 -23.167 -78.5 -42.5s-40 -44.333 -53 -75s-19.5 -67.667 -19.5 -111c0 -41.333 5.83301 -77.5 17.5 -108.5s27.334 -56.667 47.001 -77s42.334 -35.5 68.001 -45.5s52.834 -15 81.501 -15h105v-149h-101
c-31.333 0 -61.5 -3.66699 -90.5 -11s-54.833 -20.5 -77.5 -39.5s-40.834 -44.5 -54.501 -76.5s-20.5 -73 -20.5 -123c0 -46 6.5 -85.5 19.5 -118.5s31.167 -60 54.5 -81s51.666 -36.333 84.999 -46s70 -14.5 110 -14.5c174 0 261 87.333 261 262v397h311v-151h-143v-239
c0 -64 -9.5 -122 -28.5 -174s-47 -96.333 -84 -133s-83.167 -65 -138.5 -85s-119.333 -30 -192 -30c-64 0 -122.667 9.16699 -176 27.5s-99.166 44.666 -137.499 78.999s-68.333 76.333 -90 126s-32.5 105.834 -32.5 168.501c0 46.667 5.33301 88.667 16 126
s25.167 70.333 43.5 99s40.166 52.834 65.499 72.501s53 35.167 83 46.5v8c-26 14.667 -50.167 31.667 -72.5 51s-41.666 41.666 -57.999 66.999s-29 54.166 -38 86.499s-13.5 69.166 -13.5 110.499c0 62.667 10.167 118 30.5 166s49.333 88.333 87 121
s82.834 57.334 135.501 74.001s111 25 175 25z" />
    <glyph glyph-name="quotesingle" unicode="'" horiz-adv-x="322" 
d="M240 1104l-22 -136.001l-22 -134h-79c-8 44.667 -15.5 89.334 -22.5 134.001s-14.833 90 -23.5 136v301h169v-301z" />
    <glyph glyph-name="parenleft" unicode="(" horiz-adv-x="559" 
d="M529 1505c-38.667 -62 -74.667 -129.501 -108 -202.501s-62.166 -148.667 -86.499 -227s-43.5 -158.166 -57.5 -239.499s-21 -162 -21 -242s7 -160.833 21 -242.5s33.167 -162 57.5 -241s53.166 -155 86.499 -228s69.333 -140.833 108 -203.5h-111
c-54 62.667 -101.833 129.667 -143.5 201s-76.834 145.666 -105.501 222.999s-50.334 156.833 -65.001 238.5s-22 164.5 -22 248.5s7.33301 167 22 249s36.334 162 65.001 240s63.834 152.833 105.501 224.5s89.5 138.834 143.5 201.501h111z" />
    <glyph glyph-name="parenright" unicode=")" horiz-adv-x="559" 
d="M141 1505c54 -62.667 101.833 -129.833 143.5 -201.5s76.667 -146.5 105 -224.5s50 -158 65 -240s22.5 -165 22.5 -249s-7.5 -166.833 -22.5 -248.5s-36.667 -161.167 -65 -238.5s-63.333 -151.666 -105 -222.999s-89.5 -138.333 -143.5 -201h-110
c38 62.667 73.667 130.5 107 203.5s62.166 149 86.499 228s43.5 159.333 57.5 241s21 162.5 21 242.5s-7 160.667 -21 242s-33.167 161.166 -57.5 239.499s-53.166 154 -86.499 227s-69 140.5 -107 202.5h110z" />
    <glyph glyph-name="asterisk" unicode="*" horiz-adv-x="653" 
d="M377 1224l152 105l69 -119l-168 -77l168 -78l-69 -122l-152 107l19 -182h-140l19 182l-152 -107l-70 122l169 78l-169 77l70 119l152 -107l-19 183h140z" />
    <glyph glyph-name="plus" unicode="+" horiz-adv-x="981" 
d="M574 608h317v-172h-317v-436h-170v436h-316v172h316v438h170v-438z" />
    <glyph glyph-name="comma" unicode="," horiz-adv-x="467" 
d="M336 18l-98 -272h-107l82 254h-82v222h205v-204z" />
    <glyph glyph-name="hyphen" unicode="-" horiz-adv-x="559" 
d="M537 453h-517v200h517v-200z" />
    <glyph glyph-name="period" unicode="." horiz-adv-x="467" 
d="M336 0h-205v222h205v-222z" />
    <glyph glyph-name="slash" unicode="/" horiz-adv-x="467" 
d="M147 -101h-145l321 1606h144z" />
    <glyph glyph-name="zero" unicode="0" 
d="M467 1430c60 0 113.833 -11.167 161.5 -33.5s88 -61 121 -116s58.333 -129.333 76 -223s26.5 -211.834 26.5 -354.501c0 -143.333 -8.83301 -261.666 -26.5 -354.999s-43 -167.666 -76 -222.999s-73.333 -94 -121 -116s-101.5 -33 -161.5 -33s-113.833 11 -161.5 33
s-88 60.667 -121 116s-58.333 129.666 -76 222.999s-26.5 211.666 -26.5 354.999c0 142.667 8.83301 260.834 26.5 354.501s43 168 76 223s73.333 93.667 121 116s101.5 33.5 161.5 33.5zM467 1280c-42 0 -76.667 -12.667 -104 -38s-49.166 -60.5 -65.499 -105.5
s-27.666 -98.333 -33.999 -160s-9.5 -129.167 -9.5 -202.5v-144c0 -73.333 3.16699 -140.833 9.5 -202.5s17.666 -114.834 33.999 -159.501s38.166 -79.667 65.499 -105s62 -38 104 -38s76.667 12.667 104 38s49.166 60.333 65.499 105s27.666 97.834 33.999 159.501
s9.5 129.167 9.5 202.5v144c0 73.333 -3.16699 140.833 -9.5 202.5s-17.666 115 -33.999 160s-38.166 80.167 -65.499 105.5s-62 38 -104 38z" />
    <glyph glyph-name="one" unicode="1" 
d="M604 149l306.998 -0.000976562v-149h-808v149h333v1000h-335v107c28.667 2.66699 61.334 8.33398 98.001 17.001s74.834 19.5 114.501 32.5s79 28 118 45s74.833 35.167 107.5 54.5h65v-1256z" />
    <glyph glyph-name="two" unicode="2" 
d="M471 1430c50.667 0 98.3301 -7.00488 142.997 -21.0049s83.5 -35.667 116.5 -65s59.167 -67 78.5 -113s29 -101.333 29 -166c0 -58.667 -9 -114.167 -27 -166.5s-41.667 -102.166 -71 -149.499s-62.666 -92.666 -99.999 -135.999l-113 -127l-111 -122
c-36 -40 -67 -80 -93 -120c-8 -12.667 -15 -25 -21 -37s-11 -23.667 -15 -35h557v-172h-764v26c0 56 8.33301 109.5 25 160.5s41 99.5 73 145.5c28 40.667 59.333 80.5 94 119.5l105.5 116.5l104.5 116c34 38.667 64.167 78.5 90.5 119.5s47.5 83.167 63.5 126.5
s24 89 24 137c0 23.333 -3 47.333 -9 72s-16.167 47 -30.5 67s-33.833 36.333 -58.5 49s-55.667 19 -93 19c-36.667 0 -67.5 -7.16699 -92.5 -21.5s-45.167 -33.666 -60.5 -57.999s-26.333 -52.833 -33 -85.5s-10 -67 -10 -103v-85h-174
c-1.33301 6.66699 -2.33301 14.334 -3 23.001c-2 14.667 -3 34.667 -3 60c0 75.333 10.167 139.833 30.5 193.5s47.833 97.834 82.5 132.501s74.834 60 120.501 76s93.834 24 144.501 24z" />
    <glyph glyph-name="three" unicode="3" 
d="M461 1430c54.667 0 104.496 -8.33398 149.496 -25.001s83.667 -41.334 116 -74.001s57.333 -73 75 -121s26.5 -103.333 26.5 -166c0 -41.333 -4.66699 -78.166 -14 -110.499s-22.166 -61.166 -38.499 -86.499s-35.666 -47.666 -57.999 -66.999s-46.5 -36.333 -72.5 -51
v-8c30 -11.333 57.5 -26.833 82.5 -46.5s46.833 -43.834 65.5 -72.501s33.167 -61.667 43.5 -99s15.5 -79.333 15.5 -126c0 -62.667 -9.5 -118.834 -28.5 -168.501s-45.5 -91.667 -79.5 -126s-74.667 -60.666 -122 -78.999s-99 -27.5 -155 -27.5c-64 0 -120.667 10 -170 30
s-90.833 48.333 -124.5 85s-59 81 -76 133s-25.5 110 -25.5 174v16h173v-23c0 -87.333 17.833 -153.5 53.5 -198.5s88.167 -67.5 157.5 -67.5c33.333 0 63.833 5 91.5 15s51.334 25.833 71.001 47.5s35 49.167 46 82.5s16.5 73 16.5 119c0 50 -6.5 91 -19.5 123
s-30.333 57.5 -52 76.5s-46.334 32.167 -74.001 39.5s-56.5 11 -86.5 11h-116v149h121c26.667 0 52.334 5 77.001 15s46.167 25.167 64.5 45.5s33 46 44 77s16.5 67.167 16.5 108.5c0 43.333 -5.16699 80.5 -15.5 111.5s-24.333 56.5 -42 76.5s-38.167 34.667 -61.5 44
s-47.666 14 -72.999 14c-28 0 -54 -5 -78 -15s-44.667 -25.5 -62 -46.5s-30.833 -47.5 -40.5 -79.5s-14.5 -69.667 -14.5 -113v-18h-171v36c0 58.667 9 111.667 27 159s43 87.833 75 121.5s70.333 59.667 115 78s93.667 27.5 147 27.5z" />
    <glyph glyph-name="four" unicode="4" 
d="M576 1430c-13.333 -63.333 -30.001 -127.669 -50.001 -193.002s-41.833 -129.5 -65.5 -192.5s-48.167 -123.5 -73.5 -181.5s-49.833 -111.167 -73.5 -159.5s-45.5 -90.5 -65.5 -126.5s-36.667 -63.333 -50 -82h386v443c10 24.667 18.833 48.334 26.5 71.001
s14.834 45 21.501 67s13 44.667 19 68l19 76h81v-725h144v-149h-144v-346h-167v346h-543v151c36.667 67.333 72.5 138.833 107.5 214.5s68 153.334 99 233.001s60 160.5 87 242.5s50.833 163 71.5 243h170z" />
    <glyph glyph-name="five" unicode="5" 
d="M807 1232l-494.002 -0.00390625l-26 -427c11.333 11.333 25 23.333 41 36s34.167 24.334 54.5 35.001s43.333 19.5 69 26.5s53.5 10.5 83.5 10.5c46 0 89.167 -9.16699 129.5 -27.5s75.333 -46.166 105 -83.499s53.167 -84.5 70.5 -141.5s26 -124.167 26 -201.5
s-9 -146 -27 -206s-43.833 -110.5 -77.5 -151.5s-74.667 -72.167 -123 -93.5s-102.833 -32 -163.5 -32c-59.333 0 -113.166 10.5 -161.499 31.5s-89.666 51.333 -123.999 91s-60.833 87.834 -79.5 144.501s-28 121 -28 193h174c0 -48 5.66699 -91.333 17 -130
s26.833 -71.5 46.5 -98.5s42.834 -47.833 69.501 -62.5s55.334 -22 86.001 -22c31.333 0 60.166 6.83301 86.499 20.5s49.166 34.5 68.499 62.5s34.5 63 45.5 105s16.5 91.333 16.5 148c0 48.667 -5 91.834 -15 129.501s-24 69.334 -42 95.001s-39.333 45.167 -64 58.5
s-52 20 -82 20c-44.667 0 -85.5 -14.833 -122.5 -44.5s-65.5 -68.834 -85.5 -117.501l-160 26l47 779h639v-173z" />
    <glyph glyph-name="six" unicode="6" 
d="M475 1430c60 0 111.498 -11.6641 154.498 -34.9971s78.333 -55.5 106 -96.5s48 -89.333 61 -145s19.5 -115.834 19.5 -180.501h-171c0 97.333 -14.667 172.833 -44 226.5s-74 80.5 -134 80.5c-42.667 0 -77.667 -12.333 -105 -37s-48.833 -60 -64.5 -106
s-26.667 -101.833 -33 -167.5s-9.83301 -139.167 -10.5 -220.5c30 42 66 74.833 108 98.5s88.333 35.5 139 35.5c59.333 0 111 -11.833 155 -35.5s80.5 -55.834 109.5 -96.501s50.667 -88.667 65 -144s21.5 -114.333 21.5 -177c0 -70 -9.16699 -133.167 -27.5 -189.5
s-43.833 -104 -76.5 -143s-71.5 -69 -116.5 -90s-93.833 -31.5 -146.5 -31.5c-62.667 0 -119 11.333 -169 34s-92.333 60.5 -127 113.5s-61.167 123.5 -79.5 211.5s-27.5 197 -27.5 327c0 146.667 8.83301 269.167 26.5 367.5s43.334 177.166 77.001 236.499
s74.834 101.5 123.501 126.5s104 37.5 166 37.5zM474.998 735.003c-35.333 0 -66 -8 -92 -24s-47.5 -37.833 -64.5 -65.5s-29.667 -60 -38 -97s-12.5 -76.5 -12.5 -118.5s4.16699 -81.5 12.5 -118.5s21 -69.333 38 -97s38.5 -49.5 64.5 -65.5s56.667 -24 92 -24
s65.833 8 91.5 24s47 37.833 64 65.5s29.5 60 37.5 97s12 76.5 12 118.5s-4 81.5 -12 118.5s-20.5 69.333 -37.5 97s-38.333 49.5 -64 65.5s-56.167 24 -91.5 24z" />
    <glyph glyph-name="seven" unicode="7" 
d="M866 1297l-99 -158c-34 -56.667 -67 -116.5 -99 -179.5s-62.333 -128.833 -91 -197.5s-53.667 -139 -75 -211s-38.333 -145.5 -51 -220.5s-19 -150.167 -19 -225.5v-49c0 -7.33301 0.166992 -15.5 0.5 -24.5s0.833008 -19.5 1.5 -31.5h-190
c0 120.667 12.833 239 38.5 355s58.5 226.833 98.5 332.5s84.333 204.5 133 296.5s95.667 174.667 141 248h-588v173h799v-108z" />
    <glyph glyph-name="eight" unicode="8" 
d="M467 1430c58.667 0 110.334 -10.333 155.001 -31s82 -48.667 112 -84s52.5 -76.833 67.5 -124.5s22.5 -98.5 22.5 -152.5c0 -66.667 -12.833 -127.667 -38.5 -183s-64.167 -100 -115.5 -134c64 -32 110.333 -77 139 -135s43 -125 43 -201
c0 -56 -7.33301 -108.833 -22 -158.5s-37.5 -93 -68.5 -130s-70.833 -66.333 -119.5 -88s-107 -32.5 -175 -32.5s-126.333 10.833 -175 32.5s-88.5 51 -119.5 88s-53.833 80.333 -68.5 130s-22 102.5 -22 158.5c0 76 14.167 143 42.5 201s74.166 103 137.499 135
c-50 34 -87.667 78.667 -113 134s-38 116.333 -38 183c0 54 7.5 104.833 22.5 152.5s37.5 89.167 67.5 124.5s67.167 63.333 111.5 84s95.833 31 154.5 31zM467 643c-70 0 -123 -23.001 -159 -69.001s-54 -109 -54 -189c0 -40 4.5 -76 13.5 -108s22.5 -59.167 40.5 -81.5
s40.167 -39.666 66.5 -51.999s57.166 -18.5 92.499 -18.5c34.667 0 65.334 6.16699 92.001 18.5s49 29.666 67 51.999s31.5 49.5 40.5 81.5s13.5 68 13.5 108c0 80.667 -18 143.834 -54 189.501s-89 68.5 -159 68.5zM467 1280c-58 0 -103.833 -21.5 -137.5 -64.5
s-50.5 -102.833 -50.5 -179.5c0 -76 16.833 -135.667 50.5 -179s79.5 -65 137.5 -65s104.167 21.667 138.5 65s51.5 103 51.5 179c0 76.667 -17.167 136.5 -51.5 179.5s-80.5 64.5 -138.5 64.5z" />
    <glyph glyph-name="nine" unicode="9" 
d="M448 1430c63.333 0 119.998 -11.333 169.998 -34s92.333 -60.667 127 -114s61.167 -124 79.5 -212s27.5 -197 27.5 -327c0 -146 -8.66699 -268.167 -26 -366.5s-42.5 -177.166 -75.5 -236.499s-73.333 -101.5 -121 -126.5s-101.834 -37.5 -162.501 -37.5
c-61.333 0 -114 11.5 -158 34.5s-80 55 -108 96s-48.667 89.167 -62 144.5s-20 115.666 -20 180.999h170c0 -97.333 15.333 -172.833 46 -226.5s77.334 -80.5 140.001 -80.5c40.667 0 74.167 12.333 100.5 37s47 59.834 62 105.501s25.5 101 31.5 166
s9.66699 138.167 11 219.5c-31.333 -41.333 -67.5 -73.333 -108.5 -96s-87.5 -34 -139.5 -34c-59.333 0 -111 11.667 -155 35s-80.5 55.5 -109.5 96.5s-50.5 88.833 -64.5 143.5s-21 113.667 -21 177c0 70 9.16699 133.167 27.5 189.5s43.833 104.166 76.5 143.499
s71.334 69.5 116.001 90.5s93.334 31.5 146.001 31.5zM458.998 1280c-35.333 0 -66 -8 -92 -24s-47.333 -37.833 -64 -65.5s-29 -60 -37 -97s-12 -76.5 -12 -118.5s4 -81.5 12 -118.5s20.333 -69.333 37 -97s38 -49.5 64 -65.5s56.667 -24 92 -24s66 8 92 24
s47.5 37.833 64.5 65.5s29.667 60 38 97s12.5 76.5 12.5 118.5s-4.16699 81.5 -12.5 118.5s-21 69.333 -38 97s-38.5 49.5 -64.5 65.5s-56.667 24 -92 24z" />
    <glyph glyph-name="colon" unicode=":" horiz-adv-x="467" 
d="M336 0h-205v222h205v-222zM336 856h-205v221h205v-221z" />
    <glyph glyph-name="semicolon" unicode=";" horiz-adv-x="467" 
d="M336 18l-98 -272h-107l82 254h-82v222h205v-204zM336 856h-205v221h205v-221z" />
    <glyph glyph-name="less" unicode="&#x3c;" horiz-adv-x="981" 
d="M893 848l-637 -327l637 -329v-184l-802 402v218l802 404v-184z" />
    <glyph glyph-name="equal" unicode="=" horiz-adv-x="981" 
d="M891 651h-803v173h803v-173zM891 217h-803v170h803v-170z" />
    <glyph glyph-name="greater" unicode="&#x3e;" horiz-adv-x="981" 
d="M893 628v-218l-802 -402v184l636 329l-636 327v184z" />
    <glyph glyph-name="question" unicode="?" 
d="M483 1430c50.667 0 97.6631 -8.99805 140.996 -26.998s80.833 -43 112.5 -75s56.5 -70.333 74.5 -115s27 -94 27 -148c0 -66 -6.66699 -121.167 -20 -165.5s-29.833 -82.5 -49.5 -114.5s-41 -59.667 -64 -83s-44.333 -46.666 -64 -69.999s-36.167 -48.833 -49.5 -76.5
s-20 -61.834 -20 -102.501v-84h-177v114c0 46 6.33301 85.5 19 118.5s28.5 62.667 47.5 89s39.667 51.166 62 74.499s43 48 62 74s34.833 55.167 47.5 87.5s19 70.833 19 115.5c0 9.33301 -0.666992 21.666 -2 36.999s-4.16602 31.5 -8.49902 48.5
s-10.666 34.167 -18.999 51.5s-19.166 32.833 -32.499 46.5s-29.833 24.834 -49.5 33.501s-43.167 13 -70.5 13c-43.333 0 -77.833 -10 -103.5 -30s-45.167 -44.333 -58.5 -73s-22 -58.834 -26 -90.501s-6 -59.167 -6 -82.5v-23c0 -6 0.333008 -11.667 1 -17
c0 -6 0.333008 -11.333 1 -16h-182l-4 27c-1.33301 7.33301 -2.16602 15 -2.49902 23s-0.5 15.333 -0.5 22c0 57.333 8.16699 111.333 24.5 162s41 95 74 133s74.167 68 123.5 90s107 33 173 33zM583.996 0.00195312h-205v222h205v-222z" />
    <glyph glyph-name="at" unicode="@" horiz-adv-x="1704" 
d="M875 1430c105.333 0 202.83 -14.5029 292.497 -43.5029s167.334 -74.667 233.001 -137s117 -142.333 154 -240s55.5 -215.167 55.5 -352.5c0 -77.333 -5.83301 -146.166 -17.5 -206.499s-27.334 -113.166 -47.001 -158.499s-42.5 -83.666 -68.5 -114.999
s-53.5 -56.833 -82.5 -76.5s-58.333 -33.834 -88 -42.501s-57.834 -13 -84.501 -13c-29.333 0 -54.333 3.16699 -75 9.5s-38.167 15 -52.5 26s-25.833 24.333 -34.5 40s-15.334 32.834 -20.001 51.501h-8c-25.333 -40 -58.666 -71.5 -99.999 -94.5s-88 -34.5 -140 -34.5
c-23.333 0 -49.666 3.33301 -78.999 10s-57 19.667 -83 39s-48 47 -66 83s-27 83.333 -27 142c0 68 12.5 123.333 37.5 166s59.5 76 103.5 100s96.167 40.333 156.5 49s126.166 13 197.499 13v127c0 23.333 -2.16699 44.833 -6.5 64.5s-12.333 36.5 -24 50.5
s-27.5 24.833 -47.5 32.5s-45.667 11.5 -77 11.5c-28.667 0 -52.667 -4.5 -72 -13.5s-34.666 -20.833 -45.999 -35.5s-19.5 -31.334 -24.5 -50.001s-7.5 -37.334 -7.5 -56.001v-22h-151c-1.33301 6 -2 12 -2 18v22c0 45.333 7.83301 85 23.5 119s37.334 62.5 65.001 85.5
s60.834 40.167 99.501 51.5s81 17 127 17c98.667 0 172.5 -23.833 221.5 -71.5s73.5 -115.5 73.5 -203.5v-536c0 -28 5.83301 -48 17.5 -60s29.167 -18 52.5 -18c26.667 0 54 7.33301 82 22s53.5 40.334 76.5 77.001s41.833 86 56.5 148s22 140.333 22 235
c0 116 -15.167 215.5 -45.5 298.5s-72.666 151 -126.999 204s-119.5 92 -195.5 117s-159.667 37.5 -251 37.5c-102 0 -193.833 -16 -275.5 -48s-151.167 -80.333 -208.5 -145s-101.333 -146 -132 -244s-46 -213 -46 -345c0 -245.333 49 -429.166 147 -551.499
s248.667 -183.5 452 -183.5c21.333 0 46.166 1.66699 74.499 5s57 7.83301 86 13.5s56.5 12.5 82.5 20.5s47.667 16.667 65 26v-123c-20 -8 -43.5 -15.5 -70.5 -22.5s-54.667 -12.833 -83 -17.5s-56.166 -8.33398 -83.499 -11.001s-51 -4 -71 -4
c-110.667 0 -210.167 16.5 -298.5 49.5s-163.5 84.167 -225.5 153.5s-109.5 157.5 -142.5 264.5s-49.5 234.5 -49.5 382.5c0 108.667 9.5 206.334 28.5 293.001s45.833 163 80.5 229s76 122.5 124 169.5s101 85.333 159 115s120 51.5 186 65.5s134 21 204 21zM1032 508.997
c-49.333 0 -94.6689 -2.33203 -136.002 -6.99902s-76.666 -13.5 -105.999 -26.5s-52.166 -31.333 -68.499 -55s-24.5 -54.834 -24.5 -93.501c0 -56 11.333 -94.833 34 -116.5s55.667 -32.5 99 -32.5c24 0 48 5 72 15s45.667 25 65 45s35 45.167 47 75.5s18 65.833 18 106.5
v89z" />
    <glyph glyph-name="A" unicode="A" horiz-adv-x="1120" 
d="M831 313h-557l-96 -313h-180l446 1405h232l446 -1405h-194zM324 477l456 -0.000976562l-190 625c-4 11.333 -7.83301 25.833 -11.5 43.5l-10.5 51.5c-3.33301 19.333 -7 39.333 -11 60h-8l-11 -61c-3.33301 -16.667 -7 -33.667 -11 -51s-7.66699 -31.666 -11 -42.999z
" />
    <glyph glyph-name="B" unicode="B" horiz-adv-x="1120" 
d="M133 1405l533 0.00292969c52 0 100.167 -8.16699 144.5 -24.5s82.5 -39.5 114.5 -69.5s57.167 -66.167 75.5 -108.5s27.5 -89.5 27.5 -141.5c0 -40.667 -5.5 -78.334 -16.5 -113.001s-26.167 -65.834 -45.5 -93.501s-42.166 -51.5 -68.499 -71.5s-54.5 -35.333 -84.5 -46
v-8c34.667 -10.667 67.167 -26.834 97.5 -48.501s56.666 -47.667 78.999 -78s39.833 -65 52.5 -104s19 -80.833 19 -125.5c0 -59.333 -10.5 -112 -31.5 -158s-49.5 -85 -85.5 -117s-77.833 -56.333 -125.5 -73s-98.5 -25 -152.5 -25h-533v1405zM313 637.003l0.00195312 -473
h328c33.333 0 64.166 5 92.499 15s52.666 24.833 72.999 44.5s36.333 44 48 73s17.5 62.5 17.5 100.5c0 32 -5.66699 62.5 -17 91.5s-27.5 54.5 -48.5 76.5s-46.5 39.5 -76.5 52.5s-63.667 19.5 -101 19.5h-316zM313.002 1241v-439.999h299c34.667 0 66 6 94 18s52 28 72 48
s35.333 43.333 46 70s16 55 16 85c0 73.333 -19.667 128.166 -59 164.499s-91.333 54.5 -156 54.5h-312z" />
    <glyph glyph-name="C" unicode="C" horiz-adv-x="1212" 
d="M639 1430c71.333 0 137.002 -11 197.002 -33s111.667 -55 155 -99s77.166 -99.333 101.499 -166s36.5 -145 36.5 -235h-185c0 61.333 -7.16699 115 -21.5 161s-34.833 84.167 -61.5 114.5s-58.834 53.166 -96.501 68.499s-79.5 23 -125.5 23
c-123.333 0 -214.833 -42.167 -274.5 -126.5s-89.5 -212.166 -89.5 -383.499v-103c0 -172 29.833 -300 89.5 -384s151.167 -126 274.5 -126c47.333 0 90.166 7.5 128.499 22.5s71 37.5 98 67.5s47.833 67.667 62.5 113s22 98.333 22 159h179
c0 -90.667 -12.167 -169 -36.5 -235s-58.166 -120.667 -101.499 -164s-95 -75.5 -155 -96.5s-125.667 -31.5 -197 -31.5c-182 0 -319.667 60.167 -413 180.5s-140 302.5 -140 546.5c0 243.333 46.667 425.333 140 546s231 181 413 181z" />
    <glyph glyph-name="D" unicode="D" horiz-adv-x="1212" 
d="M143 0v1405h437c82.667 0 156.834 -14.333 222.501 -43s121.5 -71.5 167.5 -128.5s81.167 -128 105.5 -213s36.5 -184.167 36.5 -297.5c0 -120 -12.167 -225.167 -36.5 -315.5s-59.5 -165.666 -105.5 -225.999s-101.833 -105.666 -167.5 -135.999
s-139.834 -45.5 -222.501 -45.5h-437zM324 1241v-1077h239c55.333 0 105.166 10.5 149.499 31.5s82.166 52.5 113.499 94.5s55.5 94.833 72.5 158.5s25.5 138.167 25.5 223.5v102c0 78 -8.5 146.333 -25.5 205s-41.167 107.334 -72.5 146.001s-69.166 67.667 -113.499 87
s-94.166 29 -149.499 29h-239z" />
    <glyph glyph-name="E" unicode="E" horiz-adv-x="1120" 
d="M143 0v1405h867v-164h-686v-440h596v-164h-596v-473h698v-164h-879z" />
    <glyph glyph-name="F" unicode="F" horiz-adv-x="1026" 
d="M143 0v1405h811v-164h-630v-455h557v-163h-557v-623h-181z" />
    <glyph glyph-name="G" unicode="G" horiz-adv-x="1307" 
d="M1016 156c-43.333 -64 -95.5029 -110.169 -156.503 -138.502s-129.833 -42.5 -206.5 -42.5c-88.667 0 -167.334 15 -236.001 45s-126.5 75.333 -173.5 136s-82.667 136.334 -107 227.001s-36.5 197 -36.5 319s13 228.5 39 319.5s63.167 166.833 111.5 227.5
s107.333 106 177 136s148.5 45 236.5 45c72.667 0 140.167 -10.333 202.5 -31s116.333 -51.834 162 -93.501s81.334 -94.167 107.001 -157.5s38.5 -137.333 38.5 -222h-185c0 58 -8 108.333 -24 151s-38.167 77.834 -66.5 105.501s-62.5 48.167 -102.5 61.5s-84 20 -132 20
c-58 0 -110.167 -10.5 -156.5 -31.5s-85.666 -52.667 -117.999 -95s-57.166 -95.5 -74.499 -159.5s-26 -138.667 -26 -224v-103c0 -171.333 31.333 -299.166 94 -383.499s152.667 -126.5 270 -126.5c116.667 0 201.834 33 255.501 99s80.5 166.333 80.5 301v32h-364v158h549
v-731h-119z" />
    <glyph glyph-name="H" unicode="H" horiz-adv-x="1212" 
d="M1069 0h-180v637h-565v-637h-181v1405h181v-604h565v604h180v-1405z" />
    <glyph glyph-name="I" unicode="I" horiz-adv-x="467" 
d="M323 0h-180v1405h180v-1405z" />
    <glyph glyph-name="J" unicode="J" horiz-adv-x="840" 
d="M707 334c0 -117.333 -29.667 -206.333 -89 -267s-143 -91 -251 -91s-191.833 30.333 -251.5 91s-89.5 149.667 -89.5 267v92h180v-103c0 -60 13.833 -105.333 41.5 -136s67.5 -46 119.5 -46c51.333 0 90.833 15.333 118.5 46s41.5 76 41.5 136v1082h180v-1071z" />
    <glyph glyph-name="K" unicode="K" horiz-adv-x="1120" 
d="M324 662l557 743h200l-422 -567l437 -838h-205l-342 686l-225 -250v-436h-181v1405h181v-743z" />
    <glyph glyph-name="L" unicode="L" 
d="M143 0v1405h181v-1241h573v-164h-754z" />
    <glyph glyph-name="M" unicode="M" horiz-adv-x="1399" 
d="M1092 0v1020c0 12 0.666992 30.167 2 54.5s3 48.5 5 72.5c2 28 4.33301 58 7 90h-8c-6 -32 -12 -62 -18 -90l-16 -72.5c-5.33301 -24.333 -9.66602 -42.5 -12.999 -54.5l-281 -1020h-162l-280 1020c-1.33301 4.66699 -3 11.5 -5 20.5l-6.5 30l-7.5 35.5
c-2.66699 12.667 -5 25 -7 37l-17 94h-9c2 -33.333 4 -64.333 6 -93c1.33301 -24.667 2.83301 -49 4.5 -73s2.5 -41 2.5 -51v-1020h-162v1405h274l248 -922c3.33301 -12.667 6.5 -27 9.5 -43l9 -49.5c3 -17 5.83301 -34.333 8.5 -52s5 -34.834 7 -51.501
c4.66699 -38.667 9 -78.334 13 -119.001h9c3.33301 41.333 7.33301 81.666 12 120.999c4 33.333 8.66699 67.833 14 103.5s11.666 65.834 18.999 90.501l249 922h273v-1405h-180z" />
    <glyph glyph-name="N" unicode="N" horiz-adv-x="1212" 
d="M1069 0l-150.001 -0.000976562l-525 895c-9.33301 15.333 -19.166 33.5 -29.499 54.5l-29.5 61.5c-10.667 22.667 -21.334 46.667 -32.001 72l-6 -2l4 -71c1.33301 -19.333 2.33301 -39.666 3 -60.999s1 -39.333 1 -54v-895h-162v1405h156l523 -882
c7.33301 -13.333 15.833 -30.833 25.5 -52.5l28.5 -62.5l31 -74l6 2c-1.33301 26.667 -2.33301 52 -3 76c-1.33301 20.667 -2.16602 41.5 -2.49902 62.5s-0.5 37.167 -0.5 48.5v882h162v-1405z" />
    <glyph glyph-name="O" unicode="O" horiz-adv-x="1307" 
d="M653 1430c86 0 163.333 -15 232 -45s126.667 -75.333 174 -136s83.666 -136.334 108.999 -227.001s38 -197 38 -319s-12.667 -228.5 -38 -319.5s-61.666 -166.667 -108.999 -227s-105.333 -105.5 -174 -135.5s-146 -45 -232 -45s-163.167 15 -231.5 45
s-126.166 75.167 -173.499 135.5s-83.666 136 -108.999 227s-38 197.5 -38 319.5s12.667 228.333 38 319s61.666 166.334 108.999 227.001s105.166 106 173.499 136s145.5 45 231.5 45zM653 1264c-56 0 -106.5 -10.5 -151.5 -31.5s-83.333 -52.833 -115 -95.5
s-55.834 -95.834 -72.501 -159.501s-25 -138.167 -25 -223.5v-103c0 -85.333 8.33301 -160 25 -224s40.834 -117.167 72.501 -159.5s70 -74 115 -95s95.5 -31.5 151.5 -31.5c56.667 0 107.5 10.5 152.5 31.5s83.167 52.667 114.5 95s55.5 95.5 72.5 159.5
s25.5 138.667 25.5 224v103c0 85.333 -8.5 159.833 -25.5 223.5s-41.167 116.834 -72.5 159.501s-69.5 74.5 -114.5 95.5s-95.833 31.5 -152.5 31.5z" />
    <glyph glyph-name="P" unicode="P" horiz-adv-x="1120" 
d="M324 580l0.000976562 -579.999h-181v1405h502c69.333 0 130.166 -10 182.499 -30s96.166 -48 131.499 -84s61.833 -79.167 79.5 -129.5s26.5 -105.833 26.5 -166.5c0 -62 -9.66699 -118.333 -29 -169s-47.166 -94.334 -83.499 -131.001s-80.5 -65 -132.5 -85
s-110.333 -30 -175 -30h-321zM324.001 1241v-498.001h315c36 0 68.5 6 97.5 18s54 29 75 51s37.167 48.5 48.5 79.5s17 65.5 17 103.5c0 76.667 -20.333 136.834 -61 180.501s-99.667 65.5 -177 65.5h-315z" />
    <glyph glyph-name="Q" unicode="Q" horiz-adv-x="1307" 
d="M100 702c0 122 12.667 228.499 38 319.499s61.833 166.833 109.5 227.5s105.667 106 174 136s145.5 45 231.5 45s163.167 -15 231.5 -45s126.333 -75.333 174 -136s84.167 -136.5 109.5 -227.5s38 -197.5 38 -319.5c0 -186 -29.333 -336.5 -88 -451.5
s-140.667 -193.833 -246 -236.5l291 -268h-241l-244 229h-25c-86 0 -163.167 15 -231.5 45s-126.333 75.333 -174 136s-84.167 136.334 -109.5 227.001s-38 197 -38 319zM289 650.999c0 -85.333 8.33301 -160 25 -224s40.834 -117.167 72.501 -159.5s70 -74 115 -95
s95.5 -31.5 151.5 -31.5c56.667 0 107.5 10.5 152.5 31.5s83.167 52.667 114.5 95s55.5 95.5 72.5 159.5s25.5 138.667 25.5 224v103c0 85.333 -8.5 160 -25.5 224s-41.167 117.167 -72.5 159.5s-69.5 74 -114.5 95s-95.833 31.5 -152.5 31.5
c-56 0 -106.5 -10.5 -151.5 -31.5s-83.333 -52.667 -115 -95s-55.834 -95.5 -72.501 -159.5s-25 -138.667 -25 -224v-103z" />
    <glyph glyph-name="R" unicode="R" horiz-adv-x="1212" 
d="M1128 1016c0 -87.333 -21.8311 -162.833 -65.498 -226.5s-104.834 -109.167 -183.501 -136.5l282 -653h-200l-261 621h-376v-621h-181v1405h566c68.667 0 129.167 -9.5 181.5 -28.5s96.166 -45.5 131.499 -79.5s61.833 -74.833 79.5 -122.5s26.5 -100.5 26.5 -158.5z
M324.002 1241v-457.001h378c36 0 68.667 5.5 98 16.5s54.333 26.667 75 47s36.667 44.833 48 73.5s17 60.334 17 95.001c0 70 -20.333 125 -61 165s-99.667 60 -177 60h-378z" />
    <glyph glyph-name="S" unicode="S" horiz-adv-x="1120" 
d="M559 1430c60.667 0 117.835 -7.49902 171.502 -22.499s100.5 -38.5 140.5 -70.5s71.5 -73 94.5 -123s34.5 -110 34.5 -180v-24h-186v30c0 36 -6.5 67.833 -19.5 95.5s-30.667 51 -53 70s-48.833 33.5 -79.5 43.5s-63.667 15 -99 15c-36.667 0 -70.834 -4 -102.501 -12
s-59.167 -20 -82.5 -36s-41.666 -36.333 -54.999 -61s-20 -54 -20 -88c0 -42 10.5 -76.833 31.5 -104.5s48.5 -51.334 82.5 -71.001s72.833 -36.834 116.5 -51.501l134 -45c45.667 -15.333 90.334 -32.666 134.001 -51.999s82.5 -43.666 116.5 -72.999
s61.5 -65.333 82.5 -108s31.5 -94.667 31.5 -156c0 -78.667 -12 -145.334 -36 -200.001s-57.167 -99 -99.5 -133s-92.5 -58.667 -150.5 -74s-121 -23 -189 -23c-64 0 -124.667 7.5 -182 22.5s-107.5 39.167 -150.5 72.5s-77.167 76.833 -102.5 130.5s-38 119.167 -38 196.5
c0 7.33301 0.333008 15 1 23s1 13.667 1 17h187c0 -0.666992 -0.166992 -2.66699 -0.5 -6s-0.666016 -7.16602 -0.999023 -11.499l-1 -13.5c-0.333008 -4.66699 -0.5 -8.33398 -0.5 -11.001c0 -43.333 7 -80.833 21 -112.5s33.5 -58.167 58.5 -79.5
s54.5 -37.166 88.5 -47.499s71 -15.5 111 -15.5c94.667 0 167.5 20 218.5 60s76.5 98 76.5 174c0 44 -10.5 80.5 -31.5 109.5s-48.667 53.667 -83 74s-73.333 37.833 -117 52.5l-134 45c-45.667 15.333 -90.334 32.666 -134.001 51.999s-82.667 44 -117 74
s-62 66.667 -83 110s-31.5 96.666 -31.5 159.999c0 64.667 11.667 120.834 35 168.501s55.166 87 95.499 118s87.666 54 141.999 69s112.166 22.5 173.499 22.5z" />
    <glyph glyph-name="T" unicode="T" horiz-adv-x="1026" 
d="M39 1405h946v-164h-383v-1241h-180v1241h-383v164z" />
    <glyph glyph-name="U" unicode="U" horiz-adv-x="1212" 
d="M1069 457c0 -79.333 -10.5 -148.833 -31.5 -208.5s-51.5 -109.834 -91.5 -150.501s-88.667 -71.167 -146 -91.5s-122 -30.5 -194 -30.5s-136.667 10.167 -194 30.5s-106 50.833 -146 91.5s-70.5 90.834 -91.5 150.501s-31.5 129.167 -31.5 208.5v948h180v-959
c0 -99.333 25.167 -175 75.5 -227s119.5 -78 207.5 -78s157.167 26 207.5 78s75.5 127.667 75.5 227v959h180v-948z" />
    <glyph glyph-name="V" unicode="V" horiz-adv-x="1120" 
d="M676 0h-232l-428 1405h199l348 -1207h8l358 1207h175z" />
    <glyph glyph-name="W" unicode="W" horiz-adv-x="1585" 
d="M1239 0l-233.002 0.00195312l-172 953c-4 23.333 -8.33301 50.833 -13 82.5s-9 62.5 -13 92.5l-14 106h-8c-4 -36 -8.33301 -71.333 -13 -106c-4 -30 -8.33301 -60.833 -13 -92.5s-9 -59.167 -13 -82.5l-167 -953h-234l-326 1405h190l216 -971
c4.66699 -20.667 9.33398 -45.334 14.001 -74.001l14 -82l15 -94h8c2.66699 25.333 5.66699 51.666 9 78.999l11 79.5c4 29.667 8.66699 60.167 14 91.5l163 971h249l175 -971c4.66699 -25.333 9.33398 -52.5 14.001 -81.5s8.66699 -56.167 12 -81.5
c4 -29.333 7.66699 -58.333 11 -87h8l14 90l13.5 81.5c5 29 10.167 55.167 15.5 78.5l215 971h164z" />
    <glyph glyph-name="X" unicode="X" horiz-adv-x="1120" 
d="M1067 1405l-18 -29l-45.5 -75.5l-65.5 -105.5l-75 -121l-203 -329l452 -745h-213l-346 574l-353 -574h-192l449 729l-408 676h213l303 -502l155 250l57 92l49.5 80.5l34.5 57.5l14 22h192z" />
    <glyph glyph-name="Y" unicode="Y" horiz-adv-x="1120" 
d="M651 582v-582h-180v582l-455 823h199l356 -651h9l349 651h175z" />
    <glyph glyph-name="Z" unicode="Z" horiz-adv-x="1026" 
d="M41 0v78l668 1163h-625v164h883v-78l-670 -1163h684v-164h-940z" />
    <glyph glyph-name="bracketleft" unicode="[" horiz-adv-x="467" 
d="M426 1372h-170v-1568h170v-133h-325v1834h325v-133z" />
    <glyph glyph-name="backslash" unicode="\" horiz-adv-x="467" 
d="M467 -101h-146l-319 1606h143z" />
    <glyph glyph-name="bracketright" unicode="]" horiz-adv-x="467" 
d="M367 -329h-326v133h169v1568h-169v133h326v-1834z" />
    <glyph glyph-name="asciicircum" unicode="^" horiz-adv-x="788" 
d="M786 602h-184l-206 646l-204 -646h-184l279 803h218z" />
    <glyph glyph-name="underscore" unicode="_" 
d="M931 -254h-931v109h931v-109z" />
    <glyph glyph-name="grave" unicode="`" horiz-adv-x="559" 
d="M418 1210h-141l-222 264l2 7h185z" />
    <glyph glyph-name="a" unicode="a" 
d="M457 1102c108.667 0 190 -26.499 244 -79.499s81 -127.167 81 -222.5v-604c0 -25.333 6 -43.5 18 -54.5s25.333 -16.5 40 -16.5h65v-117c-9.33301 -5.33301 -23.333 -10.666 -42 -15.999s-41.667 -8 -69 -8c-44 0 -80.667 12.167 -110 36.5s-49.333 56.5 -60 96.5h-10
c-28 -44.667 -64.5 -79.334 -109.5 -104.001s-95.833 -37 -152.5 -37c-18 0 -37.333 1.5 -58 4.5s-41.5 8.33301 -62.5 16s-41.333 18.667 -61 33s-37 32.666 -52 54.999s-27 49.5 -36 81.5s-13.5 69.667 -13.5 113c0 74 13.667 134.5 41 181.5s65.333 83.667 114 110
s106.334 44.333 173.001 54s139 14.5 217 14.5v139c0 26 -2.33301 49.667 -7 71s-13.334 39.666 -26.001 54.999s-30 27.333 -52 36s-50.333 13 -85 13c-32 0 -58.5 -5 -79.5 -15s-37.833 -23.167 -50.5 -39.5s-21.667 -34.666 -27 -54.999s-8 -40.833 -8 -61.5v-24h-166
c-1.33301 6 -2 12.333 -2 19v25c0 49.333 8.5 92.833 25.5 130.5s40.833 69 71.5 94s67.167 43.833 109.5 56.5s88.833 19 139.5 19zM614 489.001c-54.667 0 -104.498 -2.5 -149.498 -7.5s-83.667 -14.833 -116 -29.5s-57.5 -35 -75.5 -61s-27 -60 -27 -102
c0 -61.333 12.333 -104 37 -128s60.667 -36 108 -36c26.667 0 53.167 5.5 79.5 16.5s50.166 27.5 71.499 49.5s38.666 49.667 51.999 83s20 72.333 20 117v98z" />
    <glyph glyph-name="b" unicode="b" 
d="M272 125l-22 -124.998h-127v1481h168v-506h10c18.667 40 48.5 71.167 89.5 93.5s87.5 33.5 139.5 33.5c44.667 0 86.667 -10.833 126 -32.5s73.5 -55.334 102.5 -101.001s51.833 -103.834 68.5 -174.501s25 -155 25 -253c0 -99.333 -7.83301 -184.666 -23.5 -255.999
s-38 -130 -67 -176s-64 -79.833 -105 -101.5s-87.167 -32.5 -138.5 -32.5c-49.333 0 -94.5 12.667 -135.5 38s-74.167 62.666 -99.5 111.999h-11zM676 578.002c0 66.667 -4.00098 123.669 -12.001 171.002s-20 86 -36 116s-36.167 52 -60.5 66s-52.5 21 -84.5 21
c-128 0 -192 -127.667 -192 -383v-69c0 -124.667 15.833 -218.334 47.5 -281.001s79.834 -94 144.501 -94c32 0 60.167 7 84.5 21s44.5 36 60.5 66s28 68.667 36 116s12 104.666 12 171.999v78z" />
    <glyph glyph-name="c" unicode="c" horiz-adv-x="840" 
d="M442 1102c58.667 0 108.832 -9.16504 150.499 -27.498s75.834 -45.5 102.501 -81.5s46.167 -80.333 58.5 -133s18.5 -113.334 18.5 -182.001h-174c0 46.667 -2.5 87.167 -7.5 121.5s-13.5 62.833 -25.5 85.5s-28 39.667 -48 51s-45 17 -75 17
c-66.667 0 -115.334 -31.333 -146.001 -94s-46 -156.334 -46 -281.001v-79c0 -124 15 -217.333 45 -280s79 -94 147 -94c30 0 55.5 6 76.5 18s38 29.667 51 53s22.333 52 28 86s8.5 73.333 8.5 118h166c0 -56.667 -6 -110.5 -18 -161.5s-31.167 -96 -57.5 -135
s-60.5 -70 -102.5 -93s-92.667 -34.5 -152 -34.5c-63.333 0 -118.166 11.167 -164.499 33.5s-84.5 56.666 -114.5 102.999s-52.333 104.833 -67 175.5s-22 154.334 -22 251.001c0 192.667 29.833 334.667 89.5 426s152.5 137 278.5 137z" />
    <glyph glyph-name="d" unicode="d" 
d="M811 0l-127.001 -0.000976562l-22 125h-11c-25.333 -50 -58.333 -87.333 -99 -112s-86 -37 -136 -37c-51.333 0 -97.666 10.833 -138.999 32.5s-76.5 55.5 -105.5 101.5s-51.167 104.5 -66.5 175.5s-23 156.167 -23 255.5c0 97.333 8.5 181.333 25.5 252
s40 128.834 69 174.501s63 79.5 102 101.5s80.833 33 125.5 33c52 0 98.5 -11.167 139.5 -33.5s70.833 -53.5 89.5 -93.5h10v506h168v-1481zM449.999 952.999c-32 0 -60 -6.99902 -84 -20.999s-44 -36 -60 -66s-28 -68.833 -36 -116.5s-12 -104.834 -12 -171.501v-79
c0 -66.667 4 -123.667 12 -171s20 -86 36 -116s36 -52 60 -66s52 -21 84 -21c65.333 0 113.833 31.333 145.5 94s47.5 156 47.5 280v70c0 256 -64.333 384 -193 384z" />
    <glyph glyph-name="e" unicode="e" 
d="M491 1102c58.667 0 110.334 -9.5 155.001 -28.5s81.667 -48.833 111 -89.5s51.5 -93 66.5 -157s22.5 -141 22.5 -231v-107h-584c0.666992 -125.333 20.167 -217.333 58.5 -276s97.166 -88 176.499 -88c26.667 0 51.167 5.5 73.5 16.5s41.666 27 57.999 48
s29 46.5 38 76.5s13.5 63.667 13.5 101h166c0 -60.667 -8.5 -115.167 -25.5 -163.5s-41 -89.333 -72 -123s-68.167 -59.5 -111.5 -77.5s-91.333 -27 -144 -27c-66.667 0 -125.334 10.5 -176.001 31.5s-93.167 54.333 -127.5 100s-60.166 104 -77.499 175
s-26 156.5 -26 256.5c0 192.667 33.833 334.667 101.5 426s168.834 137 303.501 137zM491 953c-37.333 0 -69.5 -6.66797 -96.5 -20.001s-49.5 -33.166 -67.5 -59.499s-32 -59 -42 -98s-17 -84.5 -21 -136.5h406c0 103.333 -15.167 181.5 -45.5 234.5
s-74.833 79.5 -133.5 79.5z" />
    <glyph glyph-name="f" unicode="f" horiz-adv-x="467" 
d="M325 1497c25.333 0 51.001 -2.49805 77.001 -7.49805s47.667 -10.833 65 -17.5v-116h-90c-32 0 -56 -8.33301 -72 -25s-24 -41 -24 -73v-181h186v-150h-186v-927h-168v927h-95v150h95v173c0 30.667 3.33301 60.667 10 90s18.167 55.666 34.5 78.999
s38.166 42.166 65.499 56.499s61.333 21.5 102 21.5z" />
    <glyph glyph-name="g" unicode="g" 
d="M893 1252c0 -32 -4.00195 -62.167 -12.002 -90.5s-19.833 -53.833 -35.5 -76.5s-34.667 -41.834 -57 -57.501s-47.5 -27.167 -75.5 -34.5c30 -31.333 53.5 -68 70.5 -110s25.5 -90 25.5 -144c0 -55.333 -8.16699 -105.333 -24.5 -150s-39.5 -82.5 -69.5 -113.5
s-66.167 -55 -108.5 -72s-89.5 -25.833 -141.5 -26.5h-113c-14 0 -26.833 -2.5 -38.5 -7.5s-22 -11.833 -31 -20.5s-16 -18.834 -21 -30.501s-7.5 -24.167 -7.5 -37.5s2.66699 -25.833 8 -37.5s12.5 -22 21.5 -31s19.333 -16 31 -21s24.167 -7.5 37.5 -7.5h308
c38.667 0 73.667 -6.66699 105 -20s58 -31.5 80 -54.5s38.833 -49.667 50.5 -80s17.5 -62.5 17.5 -96.5c0 -42.667 -6.83301 -82.667 -20.5 -120s-33.834 -69.666 -60.501 -96.999s-59.667 -49 -99 -65s-84.333 -24 -135 -24h-305c-44 0 -82.667 6.66699 -116 20
s-61.166 31.666 -83.499 54.999s-39.166 50.5 -50.499 81.5s-17 64.167 -17 99.5c0 26 3.33301 51.167 10 75.5s16 46.5 28 66.5s26.667 37.667 44 53s36.666 27 57.999 35c-28 17.333 -49.667 40.5 -65 69.5s-23 59.833 -23 92.5c0 44 13.833 81.833 41.5 113.5
s64.5 55.834 110.5 72.501c-39.333 32 -70 71.167 -92 117.5s-33 99.833 -33 160.5c0 56.667 8 107.334 24 152.001s39.167 82.667 69.5 114s67.333 55.333 111 72s92.834 25 147.501 25c27.333 0 54.333 -3.5 81 -10.5s51.334 -16.5 74.001 -28.5
c24 12.667 44 26.5 60 41.5s29 30.667 39 47s17.5 32.833 22.5 49.5s8.83301 33.667 11.5 51h148zM318.998 24c-21.333 0 -39.832 -3.16699 -55.499 -9.5s-28.667 -15.166 -39 -26.499s-18 -24.666 -23 -39.999s-7.5 -31.666 -7.5 -48.999s2.66699 -33.666 8 -48.999
s13.166 -28.833 23.499 -40.5s23.333 -20.834 39 -27.501s33.834 -10 54.501 -10h297c18 0 34.667 3.33301 50 10s28.833 15.834 40.5 27.501s20.667 25.167 27 40.5s9.5 31.666 9.5 48.999s-2.5 33.666 -7.5 48.999s-12.833 28.666 -23.5 39.999
s-23.834 20.166 -39.501 26.499s-34.5 9.5 -56.5 9.5h-297zM454.999 963c-60 0 -105.333 -20.001 -136 -60.001s-46 -94.667 -46 -164c0 -72 15.333 -127 46 -165s76 -57 136 -57s105.667 19.833 137 59.5s47 93.834 47 162.501c0 72.667 -15.667 128.167 -47 166.5
s-77 57.5 -137 57.5z" />
    <glyph glyph-name="h" unicode="h" 
d="M291 965l11.999 0.00195312c28 48 61.833 82.833 101.5 104.5s86.5 32.5 140.5 32.5c40.667 0 77.334 -5.66699 110.001 -17s60.5 -30 83.5 -56s40.833 -59.667 53.5 -101s19 -92 19 -152v-776h-168v764c0 37.333 -3.66699 68.166 -11 92.499
s-17.666 43.666 -30.999 57.999s-29.333 24.333 -48 30s-39.334 8.5 -62.001 8.5c-26.667 0 -52 -6.66699 -76 -20s-45.167 -32.666 -63.5 -57.999s-33 -56.333 -44 -93s-16.5 -78.334 -16.5 -125.001v-657h-168v1481h168v-516z" />
    <glyph glyph-name="i" unicode="i" horiz-adv-x="373" 
d="M270 0h-167v1077h167v-1077zM270 1280h-167v201h167v-201z" />
    <glyph glyph-name="j" unicode="j" horiz-adv-x="373" 
d="M270 -125c0 -30.667 -3.33496 -60.834 -10.002 -90.501s-18.167 -56.167 -34.5 -79.5s-38.166 -42.166 -65.499 -56.499s-61.666 -21.5 -102.999 -21.5c-24.667 0 -50 2.66699 -76 8s-47.667 11 -65 17v116h90c32 0 56.167 8.5 72.5 25.5s24.5 41.5 24.5 73.5v1210h167
v-1202zM269.998 1280h-167v201h167v-201z" />
    <glyph glyph-name="k" unicode="k" horiz-adv-x="840" 
d="M291 578l348 499h187l-319 -442l335 -635h-191l-245 491l-115 -124v-367h-168v1481h168v-903z" />
    <glyph glyph-name="l" unicode="l" horiz-adv-x="373" 
d="M270 0h-167v1481h167v-1481z" />
    <glyph glyph-name="m" unicode="m" horiz-adv-x="1399" 
d="M1022 1102c38 0 72.5 -5.66309 103.5 -16.9961s57.667 -30 80 -56s39.666 -59.667 51.999 -101s18.5 -92 18.5 -152v-776h-168v764c0 37.333 -3.5 68.166 -10.5 92.499s-16.833 43.666 -29.5 57.999s-27.334 24.333 -44.001 30s-35 8.5 -55 8.5
c-25.333 0 -49.166 -6.66699 -71.499 -20s-42 -32.666 -59 -57.999s-30.333 -56.333 -40 -93s-14.5 -78.334 -14.5 -125.001v-657h-168v764c0 37.333 -3.5 68.166 -10.5 92.499s-16.667 43.666 -29 57.999s-27 24.333 -44 30s-35.5 8.5 -55.5 8.5
c-25.333 0 -49.166 -6.66699 -71.499 -20s-42 -32.666 -59 -57.999s-30.5 -56.333 -40.5 -93s-15 -78.334 -15 -125.001v-657h-168v1077h127l23 -124h12c28.667 53.333 63.834 91.5 105.501 114.5s88.5 34.5 140.5 34.5c52.667 0 99.167 -12.167 139.5 -36.5
s70.166 -64.166 89.499 -119.499c29.333 51.333 67.333 90.166 114 116.499s96 39.5 148 39.5z" />
    <glyph glyph-name="n" unicode="n" 
d="M545 1102c40.667 0 77.333 -5.66504 110 -16.998s60.5 -30 83.5 -56s40.833 -59.667 53.5 -101s19 -92 19 -152v-776h-168v764c0 37.333 -3.66699 68.166 -11 92.499s-17.666 43.666 -30.999 57.999s-29.333 24.333 -48 30s-39.334 8.5 -62.001 8.5
c-26.667 0 -52 -6.66699 -76 -20s-45.167 -32.666 -63.5 -57.999s-33 -56.333 -44 -93s-16.5 -78.334 -16.5 -125.001v-657h-168v1077h127l23 -124h12c30 53.333 67.333 91.5 112 114.5s94 34.5 148 34.5z" />
    <glyph glyph-name="o" unicode="o" 
d="M467 1102c126 0 221.667 -45.667 287 -137s98 -233.333 98 -426c0 -193.333 -32.667 -335.5 -98 -426.5s-161 -136.5 -287 -136.5s-221.667 45.5 -287 136.5s-98 233.167 -98 426.5c0 192.667 32.667 334.667 98 426s161 137 287 137zM467 953
c-70.667 0 -123.167 -31.333 -157.5 -94s-51.5 -156.334 -51.5 -281.001v-79c0 -124 17.167 -217.333 51.5 -280s86.833 -94 157.5 -94c70 0 122.333 31.333 157 94s52 156 52 280v79c0 124.667 -17.333 218.334 -52 281.001s-87 94 -157 94z" />
    <glyph glyph-name="p" unicode="p" 
d="M519 1102c50.667 0 96.666 -10.998 137.999 -32.998s76.333 -56 105 -102s50.834 -104.5 66.501 -175.5s23.5 -155.833 23.5 -254.5c0 -98 -8.33301 -182.333 -25 -253s-39.5 -128.834 -68.5 -174.501s-63 -79.334 -102 -101.001s-80.833 -32.5 -125.5 -32.5
c-52.667 0 -99.5 10.333 -140.5 31s-70.833 50 -89.5 88h-10v-449h-168v1431h127l23 -124h10c25.333 48.667 58.5 85.667 99.5 111s86.5 38 136.5 38zM482.999 953.002c-64.667 0 -112.834 -31.333 -144.501 -94s-47.5 -156.334 -47.5 -281.001v-79
c0 -124 15.833 -217.333 47.5 -280s79.834 -94 144.501 -94c32 0 60.167 7 84.5 21s44.5 36 60.5 66s28 68.667 36 116s12 104.333 12 171v79c0 66.667 -4 123.834 -12 171.501s-20 86.5 -36 116.5s-36.167 52 -60.5 66s-52.5 21 -84.5 21z" />
    <glyph glyph-name="q" unicode="q" 
d="M662 952l22 125h127v-1431h-168v448h-10c-18.667 -37.333 -48.5 -66.5 -89.5 -87.5s-87.833 -31.5 -140.5 -31.5c-44.667 0 -86.5 10.833 -125.5 32.5s-73 55.5 -102 101.5s-51.833 104.333 -68.5 175s-25 155 -25 253c0 98.667 7.83301 183.667 23.5 255s38 130 67 176
s64 79.833 105 101.5s87.167 32.5 138.5 32.5c49.333 0 94.5 -12.5 135.5 -37.5s74.167 -62.5 99.5 -112.5h11zM258 500c0 -67.333 4 -124.668 12 -172.001s20 -86 36 -116s36.167 -52 60.5 -66s52.5 -21 84.5 -21c64.667 0 112.834 31.333 144.501 94
s47.5 156.334 47.5 281.001v78c0 124 -15.833 217.333 -47.5 280s-79.834 94 -144.501 94c-32 0 -60.167 -7 -84.5 -21s-44.5 -36 -60.5 -66s-28 -68.667 -36 -116s-12 -104.333 -12 -171v-78z" />
    <glyph glyph-name="r" unicode="r" horiz-adv-x="559" 
d="M467 1102c11.333 0 21.667 -1.00195 31 -3.00195s17.666 -4 24.999 -6l24 -8v-174h-56c-26.667 0 -52 -4.33301 -76 -13s-45.167 -22.834 -63.5 -42.501s-33 -45.667 -44 -78s-16.5 -72.5 -16.5 -120.5v-657h-168v1077h127l23 -141h12
c6.66699 20.667 15 40.834 25 60.501s22.333 37.334 37 53.001s31.834 28.334 51.501 38.001s42.5 14.5 68.5 14.5z" />
    <glyph glyph-name="s" unicode="s" horiz-adv-x="840" 
d="M428 1102c50 0 94.1689 -7.83496 132.502 -23.502s70.666 -37 96.999 -64s46.166 -58.333 59.499 -94s20 -73.5 20 -113.5c0 -7.33301 -0.333008 -15.166 -1 -23.499s-1 -13.5 -1 -15.5h-174v18c0 20.667 -2.33301 41.167 -7 61.5s-12.834 38.5 -24.501 54.5
s-27 28.833 -46 38.5s-42.833 14.5 -71.5 14.5c-30 0 -54.333 -5 -73 -15s-33.5 -22.333 -44.5 -37s-18.5 -30.667 -22.5 -48s-6 -33.333 -6 -48c0 -29.333 7 -53.5 21 -72.5s32.5 -35.167 55.5 -48.5s49.333 -25 79 -35l90.5 -32c30.667 -11.333 60.834 -24.5 90.501 -39.5
s56 -34.333 79 -58s41.5 -52.834 55.5 -87.501s21 -77 21 -127c0 -58 -8.66699 -107.833 -26 -149.5s-41.333 -76 -72 -103s-67 -46.833 -109 -59.5s-87.667 -19 -137 -19c-62 0 -115 8.83301 -159 26.5s-79.833 41.334 -107.5 71.001s-48 63.334 -61 101.001
s-19.5 76.5 -19.5 116.5c0 14 0.333008 24.5 1 31.5s1 11.5 1 13.5h177v-21c0 -34 4.5 -63 13.5 -87s21.5 -43.833 37.5 -59.5s34.667 -27.167 56 -34.5s44.333 -11 69 -11c22 0 42.667 3.33301 62 10s36.5 16.834 51.5 30.501s26.833 30.5 35.5 50.5s13 43 13 69
c0 34 -7 62 -21 84s-32.5 40.5 -55.5 55.5s-49.167 28 -78.5 39l-90.5 33.5c-31 11.333 -61.167 24.333 -90.5 39s-55.5 33.167 -78.5 55.5s-41.5 50 -55.5 83s-21 73.5 -21 121.5s7.83301 91 23.5 129s38.167 70.167 67.5 96.5s64.5 46.666 105.5 60.999
s87.167 21.5 138.5 21.5z" />
    <glyph glyph-name="t" unicode="t" horiz-adv-x="467" 
d="M289 1077h145.002v-150h-145v-703c0 -32 8 -56.5 24 -73.5s40 -25.5 72 -25.5h49v-117c-14 -8 -32.5 -14.667 -55.5 -20s-44.833 -8 -65.5 -8c-36.667 0 -67.334 7.16699 -92.001 21.5s-44.334 33.166 -59.001 56.499s-25.167 49.833 -31.5 79.5s-9.5 59.834 -9.5 90.501
v699h-93v150h93l37 299h131v-299z" />
    <glyph glyph-name="u" unicode="u" 
d="M811 0l-126.997 0.000976562l-22 125h-13c-30 -54 -67.5 -92.333 -112.5 -115s-94.167 -34 -147.5 -34c-40 0 -76.5 5.66699 -109.5 17s-61 29.833 -84 55.5s-40.833 59.167 -53.5 100.5s-19 92 -19 152v776h168v-764c0 -37.333 3.66699 -68.166 11 -92.499
s17.666 -43.5 30.999 -57.5s29.166 -23.833 47.499 -29.5s38.833 -8.5 61.5 -8.5c26.667 0 52.167 6.66699 76.5 20s45.666 32.666 63.999 57.999s33 56.166 44 92.499s16.5 77.833 16.5 124.5v657h168v-1077z" />
    <glyph glyph-name="v" unicode="v" horiz-adv-x="840" 
d="M511 0h-182l-309 1077h184l220 -819h8l219 819h171z" />
    <glyph glyph-name="w" unicode="w" horiz-adv-x="1212" 
d="M940 0h-186l-113 614c-5.33301 28 -9.83301 56.667 -13.5 86s-7.16699 56 -10.5 80c-3.33301 28 -6.33301 55.333 -9 82h-8c-2.66699 -26.667 -5.66699 -54 -9 -82c-3.33301 -24 -6.83301 -50.667 -10.5 -80s-8.16699 -58 -13.5 -86l-110 -614h-187l-268 1077h184
l135 -606c5.33301 -22 10.5 -47.667 15.5 -77s9.5 -57.333 13.5 -84l14 -95h9c2.66699 28 5.66699 56.667 9 86l10.5 83c3.66699 30 8.16699 59 13.5 87l109 606h194l111 -606c4.66699 -28 8.83398 -56.833 12.501 -86.5l10.5 -82.5c3.33301 -29.333 6.33301 -58.333 9 -87
h8c3.33301 26 7.33301 53.333 12 82c3.33301 24.667 7.66602 52 12.999 82s11.333 60.667 18 92l135 606h170z" />
    <glyph glyph-name="x" unicode="x" horiz-adv-x="840" 
d="M511 559l317 -559h-204l-210 394l-218 -394h-184l313 545l-299 532h204l194 -368l200 368h190z" />
    <glyph glyph-name="y" unicode="y" horiz-adv-x="840" 
d="M547 55c-16 -58.667 -34.334 -114.001 -55.001 -166.001s-44.834 -97.333 -72.501 -136s-59.667 -69.334 -96 -92.001s-78.166 -34 -125.499 -34c-23.333 0 -44.833 1.16699 -64.5 3.5s-38.167 6.83301 -55.5 13.5v116h59c22.667 0 44.667 3.83301 66 11.5
s41.333 20.834 60 39.501s35.334 43.334 50.001 74.001s27 69 37 115l-330 1077h184l238 -835h8l201 835h171z" />
    <glyph glyph-name="z" unicode="z" horiz-adv-x="840" 
d="M758 1000l-475 -851h501v-149h-731v80l474 847h-441v150h672v-77z" />
    <glyph glyph-name="braceleft" unicode="{" horiz-adv-x="561" 
d="M521 1388c-18.667 0 -37.667 -1.83691 -57 -5.50391s-36.833 -10.834 -52.5 -21.501s-28.5 -25.5 -38.5 -44.5s-15 -43.5 -15 -73.5c0 -70.667 -1.5 -140.5 -4.5 -209.5l-9.5 -211.5c-1.33301 -35.333 -5.16602 -66.666 -11.499 -93.999s-16.5 -50.5 -30.5 -69.5
s-32.333 -33.5 -55 -43.5s-50.334 -15 -83.001 -15v-20c32.667 0 60.334 -5 83.001 -15s41 -24.5 55 -43.5s24.167 -42.333 30.5 -70s10.166 -58.834 11.499 -93.501l9.5 -211.5c3 -69 4.5 -138.833 4.5 -209.5c0 -30 5 -54.5 15 -73.5s22.833 -33.833 38.5 -44.5
s33.167 -17.834 52.5 -21.501s38.333 -5.5 57 -5.5v-117c-42.667 0 -83.5 3.66699 -122.5 11s-73.333 21.833 -103 43.5s-53.334 52.334 -71.001 92.001s-26.5 91.834 -26.5 156.501v403c0 22.667 -4.66699 41.834 -14 57.501s-21.5 28.334 -36.5 38.001
s-31.833 16.5 -50.5 20.5s-37.334 6 -56.001 6v173c18.667 0 37.334 2.16699 56.001 6.5s35.5 11.166 50.5 20.499s27.167 21.833 36.5 37.5s14 34.834 14 57.501v404c0 64.667 8.83301 116.834 26.5 156.501s41.334 70.334 71.001 92.001s64 36.167 103 43.5
s79.833 11 122.5 11v-117z" />
    <glyph glyph-name="bar" unicode="|" horiz-adv-x="436" 
d="M299 -354h-162v1835h162v-1835z" />
    <glyph glyph-name="braceright" unicode="}" horiz-adv-x="561" 
d="M41 1505c42 0 82.5 -3.66309 121.5 -10.9961s73.167 -21.833 102.5 -43.5s52.833 -52.334 70.5 -92.001s26.5 -91.834 26.5 -156.501v-404c0 -22.667 4.83301 -41.834 14.5 -57.501s22 -28.167 37 -37.5s32 -16.166 51 -20.499s37.833 -6.5 56.5 -6.5v-173
c-18.667 0 -37.5 -2 -56.5 -6s-36 -10.833 -51 -20.5s-27.333 -22.334 -37 -38.001s-14.5 -34.834 -14.5 -57.501v-403c0 -64.667 -8.83301 -116.834 -26.5 -156.501s-41.167 -70.334 -70.5 -92.001s-63.5 -36.167 -102.5 -43.5s-79.5 -11 -121.5 -11v117
c18.667 0 37.5 1.83301 56.5 5.5s36.167 10.834 51.5 21.501s28 25.5 38 44.5s15 43.5 15 73.5c0 70.667 1.66699 140.5 5 209.5l10 211.5c1.33301 34.667 5.33301 65.834 12 93.501s17 51 31 70s32.167 33.5 54.5 43.5s50.166 15 83.499 15v20
c-33.333 0 -61.166 5 -83.499 15s-40.5 24.5 -54.5 43.5s-24.333 42.167 -31 69.5s-10.667 58.666 -12 93.999l-10 211.5c-3.33301 69 -5 138.833 -5 209.5c0 30 -5 54.5 -15 73.5s-22.667 33.833 -38 44.5s-32.5 17.834 -51.5 21.501s-37.833 5.5 -56.5 5.5v117z" />
    <glyph glyph-name="asciitilde" unicode="~" horiz-adv-x="981" 
d="M668 645c22.667 0 44.332 3.5 64.999 10.5s39.834 15.833 57.501 26.5s33.5 22.167 47.5 34.5s26.167 24 36.5 35s18.5 20.167 24.5 27.5c5.33301 7.33301 8.66602 11.666 9.99902 12.999v-186c-16.667 -28 -36.667 -53 -60 -75c-20 -18.667 -45 -35.667 -75 -51
s-65.333 -23 -106 -23c-32 0 -62.333 6.5 -91 19.5s-57 27.333 -85 43s-56.667 30 -86 43s-60.333 19.5 -93 19.5c-34.667 0 -66.5 -7.5 -95.5 -22.5s-54.167 -31.667 -75.5 -50s-38.166 -35.333 -50.499 -51s-19.166 -24.5 -20.499 -26.5v188
c17.333 28 37.666 53 60.999 75c20 18.667 45 35.834 75 51.501s65.333 23.5 106 23.5c32 0 62.333 -6.5 91 -19.5s57 -27.333 85 -43s56.667 -30 86 -43s60.333 -19.5 93 -19.5z" />
    <glyph glyph-name="uni00A0" unicode="&#xa0;" horiz-adv-x="467" 
 />
    <glyph glyph-name="exclamdown" unicode="&#xa1;" horiz-adv-x="559" 
d="M383 727c3.33301 -62 6.66699 -128.333 10 -199l10 -213.5l10 -210l9 -188.5c2.66699 -57.333 5.16699 -107.333 7.5 -150s4.5 -73.667 6.5 -93h-232c11.333 175.333 20.833 350.833 28.5 526.5l23.5 527.5h127zM424.001 856h-205v221h205v-221z" />
    <glyph glyph-name="cent" unicode="&#xa2;" 
d="M531 1264c53.333 -4.66699 99.167 -17.1709 137.5 -37.5039s69.666 -48.333 93.999 -84s42.333 -78.667 54 -129s17.5 -107.5 17.5 -171.5h-174c0 82 -9.33301 144.833 -28 188.5s-52.334 70.834 -101.001 81.501v-819c50 10 85.333 37.833 106 83.5
s31 107.834 31 186.501h166c0 -52.667 -5.66699 -103.167 -17 -151.5s-29.166 -91.666 -53.499 -129.999s-55.666 -69.833 -93.999 -94.5s-84.5 -40 -138.5 -46v-242h-101v242c-114 12.667 -197.667 64.334 -251 155.001s-80 226.334 -80 407.001
c0 178.667 26.667 313.667 80 405s137 142.666 251 153.999v219h101v-217zM430.001 1108c-54.667 -14.667 -94.167 -52.668 -118.5 -114.001s-36.5 -145.666 -36.5 -252.999v-77c0 -108.667 11.833 -193.5 35.5 -254.5s63.5 -99.167 119.5 -114.5v813z" />
    <glyph glyph-name="sterling" unicode="&#xa3;" 
d="M517 1430c50 0 95.333 -7 136 -21s75.167 -36.667 103.5 -68s50.333 -72.333 66 -123s23.5 -112.667 23.5 -186v-26h-168v32c0 83.333 -13.833 144.5 -41.5 183.5s-67.5 58.5 -119.5 58.5c-52.667 0 -92.667 -18 -120 -54s-41 -93 -41 -171v-285h272v-148h-274l-18 -460
h510v-162h-785v162h125v460h-147v148h147v252c0 136 29.167 238 87.5 306s139.5 102 243.5 102z" />
    <glyph glyph-name="currency" unicode="&#xa4;" 
d="M467 1206c54.667 0 106.334 -10.667 155.001 -32s92.667 -51 132 -89l88 88l98 -98l-100 -100c22.667 -40 40.167 -83.167 52.5 -129.5s18.5 -94.5 18.5 -144.5c0 -52 -6.16699 -101.167 -18.5 -147.5s-29.833 -88.833 -52.5 -127.5l100 -101l-98 -97l-88 87
c-39.333 -36.667 -83.333 -65.667 -132 -87s-100.334 -32 -155.001 -32c-56 0 -108 10.667 -156 32s-91.667 50.333 -131 87l-87 -87l-99 97l101 101c-23.333 38.667 -41.333 81.167 -54 127.5s-19 95.5 -19 147.5c0 50 6.33301 98.167 19 144.5s30.667 89.5 54 129.5
l-101 100l99 98l85 -88c39.333 38 83.333 67.667 132 89s101 32 157 32zM467 1065c-42.667 0 -82.5 -9.5 -119.5 -28.5s-69.333 -45 -97 -78s-49.334 -71.5 -65.001 -115.5s-23.5 -91.333 -23.5 -142s7.83301 -98 23.5 -142s37.334 -82.333 65.001 -115s60 -58.5 97 -77.5
s76.833 -28.5 119.5 -28.5c42 0 81.333 9.5 118 28.5s68.834 44.833 96.501 77.5s49.334 71 65.001 115s23.5 91.333 23.5 142s-7.83301 98 -23.5 142s-37.334 82.5 -65.001 115.5s-59.834 59 -96.501 78s-76 28.5 -118 28.5z" />
    <glyph glyph-name="yen" unicode="&#xa5;" 
d="M620 756h263v-134h-326v-143h326v-133h-326v-346h-180v346h-326v133h326v143h-326v134h262l-309 649h194l279 -600h8l273 600h169z" />
    <glyph glyph-name="brokenbar" unicode="&#xa6;" horiz-adv-x="436" 
d="M299 703h-162v778h162v-778zM299 -354h-162v778h162v-778z" />
    <glyph glyph-name="section" unicode="&#xa7;" 
d="M495 1430c50.667 0 95.333 -7.83594 134 -23.5029s71 -37 97 -64s45.667 -58.333 59 -94s20 -73.5 20 -113.5c0 -7.33301 -0.5 -15.166 -1.5 -23.499s-1.5 -13.833 -1.5 -16.5h-174v20c0 20.667 -2.33301 41 -7 61s-12.834 37.833 -24.501 53.5s-27 28.334 -46 38.001
s-42.833 14.5 -71.5 14.5c-29.333 0 -53.333 -4.83301 -72 -14.5s-33.5 -21.834 -44.5 -36.501s-18.5 -30.667 -22.5 -48s-6 -33.333 -6 -48c0 -38 7 -70.833 21 -98.5s32.5 -52 55.5 -73s49.333 -40.167 79 -57.5l90.5 -53c30.667 -18 60.834 -37.333 90.501 -58
s56 -45 79 -73s41.5 -60.833 55.5 -98.5s21 -82.5 21 -134.5c0 -33.333 -4.16699 -64 -12.5 -92s-19.166 -53.5 -32.499 -76.5s-28.666 -43.5 -45.999 -61.5s-35 -33.333 -53 -46c17.333 -15.333 33.5 -32.166 48.5 -50.499s28 -38.666 39 -60.999s19.667 -47.333 26 -75
s9.5 -58.167 9.5 -91.5c0 -48 -7.5 -91 -22.5 -129s-36.833 -70.167 -65.5 -96.5s-63.834 -46.666 -105.501 -60.999s-89.167 -21.5 -142.5 -21.5c-50 0 -94.333 7.83301 -133 23.5s-71 37 -97 64s-45.667 58.333 -59 94s-20 73.5 -20 113.5
c0 7.33301 0.333008 15.166 1 23.499s1 13.5 1 15.5h174v-18c0 -21.333 2.33301 -42 7 -62s12.834 -38 24.501 -54s27 -28.833 46 -38.5s42.833 -14.5 71.5 -14.5c29.333 0 53.333 5 72 15s33.5 22.333 44.5 37s18.5 30.667 22.5 48s6 33.333 6 48c0 38 -7 70.833 -21 98.5
s-32.5 52.167 -55.5 73.5s-49.167 40.666 -78.5 57.999l-90.5 52.5c-31 17.667 -61.167 36.834 -90.5 57.501s-55.5 45 -78.5 73s-41.5 60.833 -55.5 98.5s-21 82.167 -21 133.5c0 33.333 4 64.166 12 92.499s18.833 53.833 32.5 76.5s29.167 42.834 46.5 60.501
s35 32.834 53 45.501c-36.667 30.667 -66.334 68.167 -89.001 112.5s-34 100.5 -34 168.5c0 47.333 7.5 90 22.5 128s36.833 70.167 65.5 96.5s63.667 46.666 105 60.999s88.666 21.5 141.999 21.5zM372.999 775.997c-22 -16.667 -39.165 -38.998 -51.498 -66.998
s-18.5 -61 -18.5 -99c0 -46.667 8.66699 -86.167 26 -118.5s39.666 -60.666 66.999 -84.999s58 -46.333 92 -66l102 -61.5c21.333 17.333 38.666 40 51.999 68s20 61 20 99c0 46.667 -8.66699 86.167 -26 118.5s-39.833 60.666 -67.5 84.999s-58.667 46.166 -93 65.499
s-68.5 39.666 -102.5 60.999z" />
    <glyph glyph-name="dieresis" unicode="&#xa8;" horiz-adv-x="559" 
d="M523 1286h-179v195h179v-195zM215 1286h-178v195h178v-195z" />
    <glyph glyph-name="copyright" unicode="&#xa9;" horiz-adv-x="1237" 
d="M618 1430c90 0 170.5 -17.167 241.5 -51.5s131.333 -83.166 181 -146.499s87.667 -139.666 114 -228.999s39.5 -189.333 39.5 -300s-13.167 -210.834 -39.5 -300.501s-64.333 -166 -114 -229s-110 -111.667 -181 -146s-151.5 -51.5 -241.5 -51.5
c-89.333 0 -169.666 17.167 -240.999 51.5s-131.666 83 -180.999 146s-87.166 139.333 -113.499 229s-39.5 189.834 -39.5 300.501s13.167 210.667 39.5 300s64.166 165.666 113.499 228.999s109.666 112.166 180.999 146.499s151.666 51.5 240.999 51.5zM622 1143
c42 0 80.666 -6.5 115.999 -19.5s65.833 -32.5 91.5 -58.5s45.667 -58.5 60 -97.5s21.5 -84.833 21.5 -137.5h-119c0 70 -15.333 121.833 -46 155.5s-72 50.5 -124 50.5c-70 0 -121.5 -24 -154.5 -72s-49.5 -121 -49.5 -219v-61c0 -98 16.5 -171.333 49.5 -220
s84.5 -73 154.5 -73c52.667 0 94.834 17 126.501 51s47.5 85.333 47.5 154h115c0 -53.333 -7.16699 -99.5 -21.5 -138.5s-34.333 -71.333 -60 -97s-56.167 -44.667 -91.5 -57s-74 -18.5 -116 -18.5c-107.333 0 -188.333 35.5 -243 106.5s-82 178.167 -82 321.5
c0 145.333 27.333 253.333 82 324s135.667 106 243 106zM617.999 1333c-74.667 0 -141.667 -14.833 -201 -44.5s-109.833 -72 -151.5 -127s-73.5 -121.333 -95.5 -199s-33 -164.167 -33 -259.5c0 -96 11 -183 33 -261s53.833 -144.5 95.5 -199.5s92.167 -97.333 151.5 -127
s126.333 -44.5 201 -44.5s141.834 14.833 201.501 44.5s110.167 72 151.5 127s73.166 121.5 95.499 199.5s33.5 165 33.5 261c0 95.333 -11.167 181.833 -33.5 259.5s-54.166 144 -95.499 199s-91.833 97.333 -151.5 127s-126.834 44.5 -201.501 44.5z" />
    <glyph glyph-name="ordfeminine" unicode="&#xaa;" horiz-adv-x="621" 
d="M305 1505c75.333 0 131.498 -17.8291 168.498 -53.4961s55.5 -85.834 55.5 -150.501v-406c0 -16.667 3.66699 -28.334 11 -35.001s15 -10 23 -10h47v-84c-7.33301 -5.33301 -17.666 -9.83301 -30.999 -13.5s-28.666 -5.5 -45.999 -5.5c-30 0 -55.333 8 -76 24
s-35 37.667 -43 65c-19.333 -30 -44.333 -53.333 -75 -70s-65 -25 -103 -25c-18.667 0 -39.334 2.5 -62.001 7.5s-43.834 14.833 -63.501 29.5s-36.167 35.5 -49.5 62.5s-20 62.833 -20 107.5c0 51.333 9.16699 93.166 27.5 125.499s43.833 57.5 76.5 75.5
s71.334 30.333 116.001 37s93.667 10 147 10v88c0 16.667 -1.66699 32 -5 46s-9.16602 26.167 -17.499 36.5s-19.5 18.333 -33.5 24s-31.667 8.5 -53 8.5c-20.667 0 -38 -3.33301 -52 -10s-25.167 -15.334 -33.5 -26.001s-14.333 -22.667 -18 -36s-5.5 -27 -5.5 -41v-20
h-121v35c0 34 5.83301 63.667 17.5 89s28 46.5 49 63.5s46 29.833 75 38.5s60.5 13 94.5 13zM407.998 1087c-35.333 0 -67.833 -1.66992 -97.5 -5.00293s-55 -9.83301 -76 -19.5s-37.333 -23.167 -49 -40.5s-17.5 -39.666 -17.5 -66.999
c0 -39.333 7.83301 -66.666 23.5 -81.999s39.167 -23 70.5 -23c16.667 0 33.667 3.5 51 10.5s33 17.833 47 32.5s25.5 32.834 34.5 54.501s13.5 47.167 13.5 76.5v63z" />
    <glyph glyph-name="guillemotleft" unicode="&#xab;" 
d="M624 668l230 -410h-143l-291 410l291 409h143zM313 668l232 -410h-145l-289 410l289 409h145z" />
    <glyph glyph-name="logicalnot" unicode="&#xac;" horiz-adv-x="981" 
d="M891 404h-172v333h-639v190h811v-523z" />
    <glyph glyph-name="uni00AD" unicode="&#xad;" horiz-adv-x="559" 
d="M537 453h-517v200h517v-200z" />
    <glyph glyph-name="registered" unicode="&#xae;" horiz-adv-x="1237" 
d="M618 1430c90 0 170.5 -17.167 241.5 -51.5s131.333 -83.166 181 -146.499s87.667 -139.666 114 -228.999s39.5 -189.333 39.5 -300s-13.167 -210.834 -39.5 -300.501s-64.333 -166 -114 -229s-110 -111.667 -181 -146s-151.5 -51.5 -241.5 -51.5
c-89.333 0 -169.666 17.167 -240.999 51.5s-131.666 83 -180.999 146s-87.166 139.333 -113.499 229s-39.5 189.834 -39.5 300.501s13.167 210.667 39.5 300s64.166 165.666 113.499 228.999s109.666 112.166 180.999 146.499s151.666 51.5 240.999 51.5zM618 1333
c-74.667 0 -141.667 -14.833 -201 -44.5s-109.833 -72 -151.5 -127s-73.5 -121.333 -95.5 -199s-33 -164.167 -33 -259.5c0 -96 11 -183 33 -261s53.833 -144.5 95.5 -199.5s92.167 -97.333 151.5 -127s126.333 -44.5 201 -44.5s141.834 14.833 201.501 44.5
s110.167 72 151.5 127s73.166 121.5 95.499 199.5s33.5 165 33.5 261c0 95.333 -11.167 181.833 -33.5 259.5s-54.166 144 -95.499 199s-91.833 97.333 -151.5 127s-126.834 44.5 -201.501 44.5zM686 1127c30 0 57.9971 -5 83.9971 -15s48.333 -24.167 67 -42.5
s33.334 -40.333 44.001 -66s16 -53.834 16 -84.501c0 -24 -3.33301 -46.5 -10 -67.5s-15.834 -39.667 -27.501 -56s-25.334 -30.333 -41.001 -42s-32.5 -20.5 -50.5 -26.5v-8c6 -2.66699 15.833 -8.16699 29.5 -16.5s27.334 -21 41.001 -38s25.834 -39 36.501 -66
s16 -60.167 16 -99.5c0 -28.667 1.16699 -52.334 3.5 -71.001s6 -33.667 11 -45s11 -20.166 18 -26.499s15.167 -11.166 24.5 -14.499v-35c-5.33301 -2 -13.666 -4.16699 -24.999 -6.5s-22.666 -3.5 -33.999 -3.5c-15.333 0 -30 2.5 -44 7.5s-26.5 13.5 -37.5 25.5
s-19.667 28 -26 48s-9.5 45 -9.5 75c0 42 -4.33301 76.5 -13 103.5s-19.5 48.333 -32.5 64s-27.333 26.5 -43 32.5s-30.5 9 -44.5 9h-166v-359h-117v824h330zM472.997 1018v-248h170c41.333 0 73.833 12 97.5 36s35.5 54.333 35.5 91c0 39.333 -11.667 69.333 -35 90
s-54 31 -92 31h-176z" />
    <glyph glyph-name="macron" unicode="&#xaf;" horiz-adv-x="559" 
d="M537 1226h-513v148h513v-148z" />
    <glyph glyph-name="degree" unicode="&#xb0;" horiz-adv-x="819" 
d="M406 1430c38 0 73.833 -7.16699 107.5 -21.5s63 -34 88 -59s44.667 -54.333 59 -88s21.5 -69.834 21.5 -108.501c0 -38 -7.16699 -73.833 -21.5 -107.5s-34 -63 -59 -88s-54.333 -44.667 -88 -59s-69.5 -21.5 -107.5 -21.5c-38.667 0 -74.834 7.16699 -108.501 21.5
s-63 34 -88 59s-44.667 54.333 -59 88s-21.5 69.5 -21.5 107.5c0 38.667 7.16699 74.834 21.5 108.501s34 63 59 88s54.333 44.667 88 59s69.834 21.5 108.501 21.5zM406 1319c-23.333 0 -45.166 -4.33301 -65.499 -13s-38.166 -20.5 -53.499 -35.5s-27.333 -32.5 -36 -52.5
s-13 -41.667 -13 -65s4.33301 -45.166 13 -65.499s20.667 -38 36 -53s33.166 -27 53.499 -36s42.166 -13.5 65.499 -13.5c22.667 0 44 4.5 64 13.5s37.5 21 52.5 36s26.833 32.667 35.5 53s13 42.166 13 65.499s-4.33301 45 -13 65s-20.5 37.5 -35.5 52.5
s-32.5 26.833 -52.5 35.5s-41.333 13 -64 13z" />
    <glyph glyph-name="plusminus" unicode="&#xb1;" horiz-adv-x="1124" 
d="M645 807h318v-172h-318v-375h-170v375h-315v172h315v377h170v-377zM963 0h-803v170h803v-170z" />
    <glyph glyph-name="twosuperior" unicode="&#xb2;" horiz-adv-x="559" 
d="M289 1505c30.667 0 59.6699 -4.16797 87.0029 -12.501s51.333 -21.333 72 -39s37 -40.667 49 -69s18 -62.5 18 -102.5c0 -34 -6 -66.833 -18 -98.5s-27.333 -62.167 -46 -91.5s-39.5 -57.5 -62.5 -84.5l-67.5 -76.5l-62 -66.5c-22 -23 -39.667 -48.5 -53 -76.5h311v-128
h-468v32c0 42 8.16699 80.833 24.5 116.5s36.666 69.167 60.999 100.5s50.833 61.666 79.5 90.999s55.167 58.833 79.5 88.5s44.666 60.167 60.999 91.5s24.5 65.333 24.5 102c0 11.333 -1.33301 23 -4 35s-7.5 23 -14.5 33s-16.5 18.167 -28.5 24.5s-27 9.5 -45 9.5
c-17.333 0 -32.166 -3.5 -44.499 -10.5s-22.333 -16.667 -30 -29s-13.334 -26.666 -17.001 -42.999s-5.5 -33.5 -5.5 -51.5v-64h-129c-0.666992 6 -1.33398 12.667 -2.00098 20c-0.666992 6 -1.16699 12.667 -1.5 20s-0.5 14.666 -0.5 21.999
c0 45.333 6.33301 84.333 19 117s29.667 59.334 51 80.001s46 35.834 74 45.501s57.333 14.5 88 14.5z" />
    <glyph glyph-name="threesuperior" unicode="&#xb3;" horiz-adv-x="559" 
d="M285 1505c34 0 64.668 -5.16797 92.001 -15.501s50.833 -25.333 70.5 -45s34.834 -44.167 45.501 -73.5s16 -63 16 -101c0 -46 -8.5 -83 -25.5 -111s-40.833 -52 -71.5 -72c32 -16 58.5 -40.667 79.5 -74s31.5 -74 31.5 -122c0 -38.667 -5.83301 -73 -17.5 -103
s-27.834 -55.5 -48.501 -76.5s-45.334 -37 -74.001 -48s-60 -16.5 -94 -16.5c-78.667 0 -138.667 22.833 -180 68.5s-62 108.167 -62 187.5v22h131v-26c0 -90 34.333 -135 103 -135c34 0 61.333 10.667 82 32s31 55 31 101c0 25.333 -3.16699 46.166 -9.5 62.499
s-14.833 29.333 -25.5 39s-23 16.334 -37 20.001s-28.333 5.5 -43 5.5h-73v117h75c26.667 0 50 10 70 30s30 51 30 93c0 43.333 -9.5 74.833 -28.5 94.5s-40.833 29.5 -65.5 29.5c-26.667 0 -49.5 -10.333 -68.5 -31s-28.5 -53 -28.5 -97v-28h-129v38
c0 36 5.5 68.333 16.5 97s26.5 53.334 46.5 74.001s43.667 36.5 71 47.5s57.333 16.5 90 16.5z" />
    <glyph glyph-name="acute" unicode="&#xb4;" horiz-adv-x="559" 
d="M501 1474l-220 -264h-142l176 271h184z" />
    <glyph glyph-name="mu" unicode="&#xb5;" 
d="M811 0l-126.999 0.00195312l-22 125h-13c-30 -54 -67.5 -92.333 -112.5 -115s-94.167 -34 -147.5 -34c-18.667 0 -36.167 1 -52.5 3s-31.5 5.66699 -45.5 11v-344h-168v1431h168v-786c0 -32.667 3.83301 -59.667 11.5 -81s18.167 -38.333 31.5 -51s29.333 -21.5 48 -26.5
s38.667 -7.5 60 -7.5c26.667 0 52.167 6.66699 76.5 20s45.666 32.666 63.999 57.999s33 56.166 44 92.499s16.5 77.833 16.5 124.5v657h168v-1077z" />
    <glyph glyph-name="paragraph" unicode="&#xb6;" horiz-adv-x="901" 
d="M858 1280l-97.999 -0.000976562v-1634h-136v1634h-107v-1634h-134v865c-49.333 6.66699 -95 22.834 -137 48.501s-78.5 58.334 -109.5 98.001s-55.333 85 -73 136s-26.5 105.5 -26.5 163.5c0 62 10.167 120.167 30.5 174.5s48.166 101.666 83.499 141.999
s76.833 72.333 124.5 96s99.167 35.5 154.5 35.5h428v-125z" />
    <glyph glyph-name="periodcentered" unicode="&#xb7;" horiz-adv-x="467" 
d="M336 590h-207v228h207v-228z" />
    <glyph glyph-name="cedilla" unicode="&#xb8;" horiz-adv-x="559" 
d="M293 -74c22 -1.33301 43.002 -4.66797 63.002 -10.001s37.667 -13.166 53 -23.499s27.5 -23.5 36.5 -39.5s13.5 -35.667 13.5 -59c0 -34.667 -7.16699 -62.834 -21.5 -84.501s-32.333 -38.667 -54 -51s-44.834 -20.666 -69.501 -24.999s-47.334 -6.5 -68.001 -6.5
c-29.333 0 -59.166 1.5 -89.499 4.5s-57.833 7.16699 -82.5 12.5v100h156c22.667 0 40.5 3.33301 53.5 10s19.5 20 19.5 40c0 16 -4.83301 28 -14.5 36s-27.834 12 -54.501 12h-68l28 180h113z" />
    <glyph glyph-name="onesuperior" unicode="&#xb9;" horiz-adv-x="559" 
d="M371 778l150 -0.000976562v-118h-439v118h162v529h-164v88c16 2 34 5.66699 54 11s40.5 12 61.5 20s41.5 16.833 61.5 26.5s38 19.834 54 30.501h60v-705z" />
    <glyph glyph-name="ordmasculine" unicode="&#xba;" horiz-adv-x="612" 
d="M305 1505c86 0 151.167 -31 195.5 -93s66.5 -158.333 66.5 -289c0 -132 -22 -229 -66 -291s-109.333 -93 -196 -93c-85.333 0 -150.333 31 -195 93s-67 159 -67 291c0 130.667 22.333 227 67 289s109.667 93 195 93zM305 1397c-46 0 -80 -20.667 -102 -62
s-33 -103.333 -33 -186v-54c0 -82.667 11 -144.5 33 -185.5s56 -61.5 102 -61.5c91.333 0 137 82.333 137 247v54c0 165.333 -45.667 248 -137 248z" />
    <glyph glyph-name="guillemotright" unicode="&#xbb;" 
d="M824 668l-289 -410h-146l231 410l-231 409h146zM515 668l-291 -410h-144l229 410l-229 409h144z" />
    <glyph glyph-name="onequarter" unicode="&#xbc;" horiz-adv-x="1401" 
d="M364 -24h-128l851 1454h127zM354 701l149 -0.000976562v-119h-438v119h163v527h-165v89c16 2 34.167 5.66699 54.5 11s41 12 62 20s41.5 16.833 61.5 26.5s38 19.834 54 30.501h59v-704zM1137 845.999c-11.333 -52 -26.001 -104.832 -44.001 -158.499
s-36.667 -104.5 -56 -152.5s-38.5 -91.333 -57.5 -130s-35.167 -69.334 -48.5 -92.001h175v186l17 45.5c6.66699 17.667 13.334 36.667 20.001 57s13.167 41.333 19.5 63s11.5 42.5 15.5 62.5h54v-414h83v-117h-83v-196h-126v196h-310v107c44 78.667 84.333 165 121 259
s67.667 188.667 93 284h127z" />
    <glyph glyph-name="onehalf" unicode="&#xbd;" horiz-adv-x="1401" 
d="M342 -24h-129l852 1454h127zM354 701l149 -0.000976562v-119h-438v119h163v527h-165v89c16 2 34.167 5.66699 54.5 11s41 12 62 20s41.5 16.833 61.5 26.5s38 19.834 54 30.501h59v-704zM1085 845.999c30.667 0 59.6699 -4.16602 87.0029 -12.499s51.333 -21.5 72 -39.5
s37 -41.167 49 -69.5s18 -62.5 18 -102.5c0 -34 -6 -66.667 -18 -98s-27.167 -61.666 -45.5 -90.999s-38.833 -57.333 -61.5 -84l-67 -76l-63.5 -67.5c-22.333 -23.667 -39.5 -49.167 -51.5 -76.5h309v-129h-467v33c0 42 8.16699 80.833 24.5 116.5
s36.666 69.167 60.999 100.5s50.833 61.666 79.5 90.999s55.167 58.666 79.5 87.999s44.666 59.833 60.999 91.5s24.5 65.5 24.5 101.5c0 11.333 -1.33301 23.166 -4 35.499s-7.5 23.5 -14.5 33.5s-16.5 18.167 -28.5 24.5s-27.333 9.5 -46 9.5
c-17.333 0 -32 -3.5 -44 -10.5s-21.833 -16.667 -29.5 -29s-13.334 -26.666 -17.001 -42.999s-5.5 -33.833 -5.5 -52.5v-63h-129c-0.666992 6 -1.33398 12.667 -2.00098 20c-0.666992 6 -1.16699 12.5 -1.5 19.5s-0.5 14.167 -0.5 21.5c0 45.333 6.33301 84.333 19 117
s29.667 59.5 51 80.5s45.833 36.333 73.5 46s56.834 14.5 87.501 14.5z" />
    <glyph glyph-name="threequarters" unicode="&#xbe;" horiz-adv-x="1401" 
d="M348 -24h-129l852 1454h127zM293 1430c34 0 64.835 -5.16504 92.502 -15.498s51.334 -25.5 71.001 -45.5s35 -44.667 46 -74s16.5 -63 16.5 -101c0 -46 -8.83301 -83 -26.5 -111s-41.834 -51.667 -72.501 -71c32 -16.667 58.5 -41.5 79.5 -74.5s31.5 -73.5 31.5 -121.5
c0 -38.667 -5.83301 -73.167 -17.5 -103.5s-27.834 -56 -48.501 -77s-45.334 -37 -74.001 -48s-60 -16.5 -94 -16.5c-78.667 0 -138.667 23 -180 69s-62 108.667 -62 188v22h131v-26c0 -90.667 34.333 -136 103 -136c34 0 61.333 10.667 82 32s31 55.333 31 102
c0 24.667 -3.16699 45.167 -9.5 61.5s-14.833 29.166 -25.5 38.499s-23 16 -37 20s-28.333 6 -43 6h-72v117h74c26.667 0 50 10 70 30s30 51 30 93c0 44 -9.5 75.833 -28.5 95.5s-40.833 29.5 -65.5 29.5c-26.667 0 -49.5 -10.5 -68.5 -31.5s-28.5 -53.5 -28.5 -97.5v-27
h-129v37c0 36 5.5 68.5 16.5 97.5s26.5 53.667 46.5 74s43.667 36.166 71 47.499s57.333 17 90 17zM1137 846.002c-11.333 -52 -26.001 -104.832 -44.001 -158.499s-36.667 -104.5 -56 -152.5s-38.5 -91.333 -57.5 -130s-35.167 -69.334 -48.5 -92.001h175v186l17 45.5
c6.66699 17.667 13.334 36.667 20.001 57s13.167 41.333 19.5 63s11.5 42.5 15.5 62.5h54v-414h83v-117h-83v-196h-126v196h-310v107c44 78.667 84.333 165 121 259s67.667 188.667 93 284h127z" />
    <glyph glyph-name="questiondown" unicode="&#xbf;" horiz-adv-x="1026" 
d="M588 594c0 -46.667 -6.33789 -86.6699 -19.0049 -120.003s-28.667 -63.5 -48 -90.5s-40.166 -52.333 -62.499 -76s-43.166 -48.667 -62.499 -75s-35.333 -56 -48 -89s-19 -72.167 -19 -117.5c0 -9.33301 0.833008 -21.166 2.5 -35.499s4.83398 -29.5 9.50098 -45.5
s11.334 -32.333 20.001 -49s20.167 -31.667 34.5 -45s32 -24.166 53 -32.499s45.833 -12.5 74.5 -12.5c41.333 0 74.166 9.83301 98.499 29.5s42.833 43.834 55.5 72.501s20.834 58.834 24.501 90.501s5.5 59.5 5.5 83.5c0 8 -0.166992 15.333 -0.5 22s-0.5 12.667 -0.5 18
c-0.666992 6 -1 11 -1 15h182c0.666992 -8.66699 1.66699 -17.334 3 -26.001c0.666992 -7.33301 1.33398 -15.166 2.00098 -23.499s1 -15.833 1 -22.5c0 -60 -8 -115.5 -24 -166.5s-40 -95 -72 -132s-72.167 -66 -120.5 -87s-104.833 -31.5 -169.5 -31.5
c-52 0 -100.167 8.66699 -144.5 26s-82.833 41.666 -115.5 72.999s-58.167 68.833 -76.5 112.5s-27.5 91.834 -27.5 144.501c0 63.333 6.66699 116.833 20 160.5s29.833 81.667 49.5 114s41 60.666 64 84.999s44.333 49 64 74s36.167 52 49.5 81s20 64.167 20 105.5v85h178
v-115zM601.995 855.997h-204v221h204v-221z" />
    <glyph glyph-name="Agrave" unicode="&#xc0;" horiz-adv-x="1120" 
d="M541 1538l-222 264l3 6h184l176 -270h-141zM831 313h-557l-96 -313h-180l446 1405h232l446 -1405h-194zM324 477l456 -0.000976562l-190 625c-4 11.333 -7.83301 25.833 -11.5 43.5l-10.5 51.5c-3.33301 19.333 -7 39.333 -11 60h-8l-11 -61
c-3.33301 -16.667 -7 -33.667 -11 -51s-7.66699 -31.666 -11 -42.999z" />
    <glyph glyph-name="Aacute" unicode="&#xc1;" horiz-adv-x="1120" 
d="M580 1538h-142l176 270h185l2 -6zM831 313h-557l-96 -313h-180l446 1405h232l446 -1405h-194zM324 477l456 -0.000976562l-190 625c-4 11.333 -7.83301 25.833 -11.5 43.5l-10.5 51.5c-3.33301 19.333 -7 39.333 -11 60h-8l-11 -61c-3.33301 -16.667 -7 -33.667 -11 -51
s-7.66699 -31.666 -11 -42.999z" />
    <glyph glyph-name="Acircumflex" unicode="&#xc2;" horiz-adv-x="1120" 
d="M815 1530h-164l-90 162l-92 -162h-164l176 276h160zM831 313h-557l-96 -313h-180l446 1405h232l446 -1405h-194zM324 477l456 -0.000976562l-190 625c-4 11.333 -7.83301 25.833 -11.5 43.5l-10.5 51.5c-3.33301 19.333 -7 39.333 -11 60h-8l-11 -61
c-3.33301 -16.667 -7 -33.667 -11 -51s-7.66699 -31.666 -11 -42.999z" />
    <glyph glyph-name="Atilde" unicode="&#xc3;" horiz-adv-x="1120" 
d="M858 1808c0 -23.333 -3.16699 -47.667 -9.5 -73s-16.5 -48.333 -30.5 -69s-32 -37.667 -54 -51s-48.667 -20 -80 -20c-22 0 -42.833 3.33301 -62.5 10s-39 14 -58 22s-37.833 15.333 -56.5 22s-38 10 -58 10c-18.667 0 -34.167 -4.83301 -46.5 -14.5
s-19.5 -26.167 -21.5 -49.5h-121c0 24 3.33301 48.5 10 73.5s17 47.833 31 68.5s32 37.667 54 51s48.333 20 79 20c22 0 42.833 -3.16699 62.5 -9.5s39 -13.333 58 -21s38 -14.667 57 -21s38.5 -9.5 58.5 -9.5c18.667 0 34 4.33301 46 13s19.667 24.667 23 48h119z
M831 312.999h-557l-96 -313h-180l446 1405h232l446 -1405h-194zM324 476.999l456 -0.000976562l-190 625c-4 11.333 -7.83301 25.833 -11.5 43.5l-10.5 51.5c-3.33301 19.333 -7 39.333 -11 60h-8l-11 -61c-3.33301 -16.667 -7 -33.667 -11 -51
s-7.66699 -31.666 -11 -42.999z" />
    <glyph glyph-name="Adieresis" unicode="&#xc4;" horiz-adv-x="1120" 
d="M803 1614h-178v194h178v-194zM496 1614h-179v194h179v-194zM831 313h-557l-96 -313h-180l446 1405h232l446 -1405h-194zM324 477l456 -0.000976562l-190 625c-4 11.333 -7.83301 25.833 -11.5 43.5l-10.5 51.5c-3.33301 19.333 -7 39.333 -11 60h-8l-11 -61
c-3.33301 -16.667 -7 -33.667 -11 -51s-7.66699 -31.666 -11 -42.999z" />
    <glyph glyph-name="Aring" unicode="&#xc5;" horiz-adv-x="1120" 
d="M559 1874c28 0 54.1689 -5.16602 78.502 -15.499s45.166 -24.5 62.499 -42.5s31 -39 41 -63s15 -49.333 15 -76c0 -27.333 -5 -52.833 -15 -76.5s-23.833 -44.334 -41.5 -62.001s-38.5 -31.667 -62.5 -42s-50 -15.5 -78 -15.5c-26.667 0 -51.834 5 -75.501 15
s-44.5 23.833 -62.5 41.5s-32.333 38.5 -43 62.5s-16 49.667 -16 77s5.16699 53 15.5 77s24.5 44.833 42.5 62.5s38.833 31.667 62.5 42s49.167 15.5 76.5 15.5zM559.002 1782c-14 0 -27.167 -2.83301 -39.5 -8.5s-23.333 -13.167 -33 -22.5s-17.334 -20.333 -23.001 -33
s-8.5 -26.334 -8.5 -41.001c0 -14 2.83301 -27.333 8.5 -40s13.334 -23.834 23.001 -33.501s20.667 -17.167 33 -22.5s25.5 -8 39.5 -8s27.333 2.66699 40 8s23.834 12.833 33.501 22.5s17.334 20.834 23.001 33.501s8.5 26 8.5 40c0 14.667 -2.83301 28.334 -8.5 41.001
s-13.334 23.667 -23.001 33s-20.834 16.833 -33.501 22.5s-26 8.5 -40 8.5zM831.002 313.001h-557l-96 -313h-180l446 1405h232l446 -1405h-194zM324.002 477.001l456 -0.000976562l-190 625c-4 11.333 -7.83301 25.833 -11.5 43.5l-10.5 51.5
c-3.33301 19.333 -7 39.333 -11 60h-8l-11 -61c-3.33301 -16.667 -7 -33.667 -11 -51s-7.66699 -31.666 -11 -42.999z" />
    <glyph glyph-name="AE" unicode="&#xc6;" horiz-adv-x="1679" 
d="M928 0l-70 313h-559l-121 -313h-180l573 1405h1020v-164h-751l100 -440h561v-164h-524l106 -473h521v-164h-676zM362 477l461 0.000976562l-139 635c-3.33301 11.333 -6.33301 24.333 -9 39s-5 28.667 -7 42c-2.66699 15.333 -4.66699 30.666 -6 45.999h-9
c-4.66699 -16 -9.66699 -31.667 -15 -47l-14.5 -41.5l-13.5 -38.5z" />
    <glyph glyph-name="Ccedilla" unicode="&#xc7;" horiz-adv-x="1212" 
d="M639 1430c71.333 0 137.004 -11.002 197.004 -33.002s111.667 -55 155 -99s77.166 -99.333 101.499 -166s36.5 -145 36.5 -235h-185c0 61.333 -7.16699 115 -21.5 161s-34.833 84.167 -61.5 114.5s-58.834 53.166 -96.501 68.499s-79.5 23 -125.5 23
c-123.333 0 -214.833 -42.167 -274.5 -126.5s-89.5 -212.166 -89.5 -383.499v-103c0 -172 29.833 -300 89.5 -384s151.167 -126 274.5 -126c47.333 0 90.166 7.5 128.499 22.5s71 37.5 98 67.5s47.833 67.667 62.5 113s22 98.333 22 159h179
c0 -90.667 -12.167 -169 -36.5 -235s-58.166 -120.667 -101.499 -164s-94.833 -75.5 -154.5 -96.5s-125.167 -31.5 -196.5 -31.5l-7 -50c22 -1.33301 43 -4.66602 63 -9.99902s37.667 -13.166 53 -23.499s27.5 -23.5 36.5 -39.5s13.5 -35.667 13.5 -59
c0 -34.667 -7.16699 -62.834 -21.5 -84.501s-32.333 -38.667 -54 -51s-44.834 -20.666 -69.501 -24.999s-47.334 -6.5 -68.001 -6.5c-29.333 0 -59.166 1.5 -89.499 4.5s-57.833 7.16699 -82.5 12.5v100h156c22.667 0 40.5 3.33301 53.5 10s19.5 20 19.5 40
c0 16 -4.83301 28 -14.5 36s-27.834 12 -54.501 12h-68l22 142c-146 22.667 -256.167 93.667 -330.5 213s-111.5 288 -111.5 506c0 243.333 46.667 425.333 140 546s231 181 413 181z" />
    <glyph glyph-name="Egrave" unicode="&#xc8;" horiz-adv-x="1120" 
d="M541 1538l-222 264l3 6h184l176 -270h-141zM143 0v1405h867v-164h-686v-440h596v-164h-596v-473h698v-164h-879z" />
    <glyph glyph-name="Eacute" unicode="&#xc9;" horiz-adv-x="1120" 
d="M580 1538h-142l176 270h185l2 -6zM143 0v1405h867v-164h-686v-440h596v-164h-596v-473h698v-164h-879z" />
    <glyph glyph-name="Ecircumflex" unicode="&#xca;" horiz-adv-x="1120" 
d="M815 1530h-164l-90 162l-92 -162h-164l176 276h160zM143 0v1405h867v-164h-686v-440h596v-164h-596v-473h698v-164h-879z" />
    <glyph glyph-name="Edieresis" unicode="&#xcb;" horiz-adv-x="1120" 
d="M803 1614h-178v194h178v-194zM496 1614h-179v194h179v-194zM143 0v1405h867v-164h-686v-440h596v-164h-596v-473h698v-164h-879z" />
    <glyph glyph-name="Igrave" unicode="&#xcc;" horiz-adv-x="467" 
d="M143 0v1405h180v-1405h-180zM215 1538l-222 264l2 7h185l176 -271h-141z" />
    <glyph glyph-name="Iacute" unicode="&#xcd;" horiz-adv-x="467" 
d="M143 0v1405h180v-1405h-180zM254 1538h-142l176 271h184l2 -7z" />
    <glyph glyph-name="Icircumflex" unicode="&#xce;" horiz-adv-x="467" 
d="M323 0h-180v1405h180v-1405zM490 1530h-164l-90 162l-93 -162h-165l177 277h160z" />
    <glyph glyph-name="Idieresis" unicode="&#xcf;" horiz-adv-x="467" 
d="M323 0h-180v1405h180v-1405zM477 1614h-179v195h179v-195zM169 1614h-178v195h178v-195z" />
    <glyph glyph-name="Eth" unicode="&#xd0;" horiz-adv-x="1212" 
d="M10 793l133 -0.00195312v612h437c82.667 0 156.834 -14.333 222.501 -43s121.5 -71.5 167.5 -128.5s81.167 -128 105.5 -213s36.5 -184.167 36.5 -297.5c0 -120 -12.167 -225.167 -36.5 -315.5s-59.5 -165.666 -105.5 -225.999s-101.833 -105.666 -167.5 -135.999
s-139.834 -45.5 -222.501 -45.5h-437v662h-133v131zM324 1241v-448.001h321v-131h-321v-498h239c55.333 0 105.166 10.5 149.499 31.5s82.166 52.5 113.499 94.5s55.5 94.833 72.5 158.5s25.5 138.167 25.5 223.5v102c0 78 -8.5 146.333 -25.5 205
s-41.167 107.334 -72.5 146.001s-69.166 67.667 -113.499 87s-94.166 29 -149.499 29h-239z" />
    <glyph glyph-name="Ntilde" unicode="&#xd1;" horiz-adv-x="1212" 
d="M1069 0l-150.001 -0.000976562l-525 895c-9.33301 15.333 -19.166 33.5 -29.499 54.5l-29.5 61.5c-10.667 22.667 -21.334 46.667 -32.001 72l-6 -2l4 -71c1.33301 -19.333 2.33301 -39.666 3 -60.999s1 -39.333 1 -54v-895h-162v1405h156l523 -882
c7.33301 -13.333 15.833 -30.833 25.5 -52.5l28.5 -62.5l31 -74l6 2c-1.33301 26.667 -2.33301 52 -3 76c-1.33301 20.667 -2.16602 41.5 -2.49902 62.5s-0.5 37.167 -0.5 48.5v882h162v-1405zM904.999 1809c0 -24 -3.33203 -48.499 -9.99902 -73.499s-17 -47.833 -31 -68.5
s-32 -37.667 -54 -51s-48.333 -20 -79 -20c-22 0 -43 3.33301 -63 10s-39.5 13.834 -58.5 21.501s-37.833 14.834 -56.5 21.501s-38 10 -58 10c-18.667 0 -34 -4.66699 -46 -14s-19.667 -25.666 -23 -48.999h-119c0 23.333 3.33301 47.666 10 72.999s17 48.333 31 69
s32 37.667 54 51s48.333 20 79 20c22 0 42.833 -3.33301 62.5 -10s39 -13.834 58 -21.501s37.833 -14.834 56.5 -21.501s38 -10 58 -10c18.667 0 34.167 4.66699 46.5 14s20.166 25.666 23.499 48.999h119z" />
    <glyph glyph-name="Ograve" unicode="&#xd2;" horiz-adv-x="1307" 
d="M653 1430c86 0 163.333 -15 232 -45s126.667 -75.333 174 -136s83.666 -136.334 108.999 -227.001s38 -197 38 -319s-12.667 -228.5 -38 -319.5s-61.666 -166.667 -108.999 -227s-105.333 -105.5 -174 -135.5s-146 -45 -232 -45s-163.167 15 -231.5 45
s-126.166 75.167 -173.499 135.5s-83.666 136 -108.999 227s-38 197.5 -38 319.5s12.667 228.333 38 319s61.666 166.334 108.999 227.001s105.166 106 173.499 136s145.5 45 231.5 45zM653 1264c-56 0 -106.5 -10.5 -151.5 -31.5s-83.333 -52.833 -115 -95.5
s-55.834 -95.834 -72.501 -159.501s-25 -138.167 -25 -223.5v-103c0 -85.333 8.33301 -160 25 -224s40.834 -117.167 72.501 -159.5s70 -74 115 -95s95.5 -31.5 151.5 -31.5c56.667 0 107.5 10.5 152.5 31.5s83.167 52.667 114.5 95s55.5 95.5 72.5 159.5
s25.5 138.667 25.5 224v103c0 85.333 -8.5 159.833 -25.5 223.5s-41.167 116.834 -72.5 159.501s-69.5 74.5 -114.5 95.5s-95.833 31.5 -152.5 31.5zM635 1538l-222 264l2 7h185l176 -271h-141z" />
    <glyph glyph-name="Oacute" unicode="&#xd3;" horiz-adv-x="1307" 
d="M653 1430c86 0 163.333 -15 232 -45s126.667 -75.333 174 -136s83.666 -136.334 108.999 -227.001s38 -197 38 -319s-12.667 -228.5 -38 -319.5s-61.666 -166.667 -108.999 -227s-105.333 -105.5 -174 -135.5s-146 -45 -232 -45s-163.167 15 -231.5 45
s-126.166 75.167 -173.499 135.5s-83.666 136 -108.999 227s-38 197.5 -38 319.5s12.667 228.333 38 319s61.666 166.334 108.999 227.001s105.166 106 173.499 136s145.5 45 231.5 45zM653 1264c-56 0 -106.5 -10.5 -151.5 -31.5s-83.333 -52.833 -115 -95.5
s-55.834 -95.834 -72.501 -159.501s-25 -138.167 -25 -223.5v-103c0 -85.333 8.33301 -160 25 -224s40.834 -117.167 72.501 -159.5s70 -74 115 -95s95.5 -31.5 151.5 -31.5c56.667 0 107.5 10.5 152.5 31.5s83.167 52.667 114.5 95s55.5 95.5 72.5 159.5
s25.5 138.667 25.5 224v103c0 85.333 -8.5 159.833 -25.5 223.5s-41.167 116.834 -72.5 159.501s-69.5 74.5 -114.5 95.5s-95.833 31.5 -152.5 31.5zM674 1538h-142l176 271h184l2 -7z" />
    <glyph glyph-name="Ocircumflex" unicode="&#xd4;" horiz-adv-x="1307" 
d="M653 1430c86 0 163.333 -15 232 -45s126.667 -75.333 174 -136s83.666 -136.334 108.999 -227.001s38 -197 38 -319s-12.667 -228.5 -38 -319.5s-61.666 -166.667 -108.999 -227s-105.333 -105.5 -174 -135.5s-146 -45 -232 -45s-163.167 15 -231.5 45
s-126.166 75.167 -173.499 135.5s-83.666 136 -108.999 227s-38 197.5 -38 319.5s12.667 228.333 38 319s61.666 166.334 108.999 227.001s105.166 106 173.499 136s145.5 45 231.5 45zM653 1264c-56 0 -106.5 -10.5 -151.5 -31.5s-83.333 -52.833 -115 -95.5
s-55.834 -95.834 -72.501 -159.501s-25 -138.167 -25 -223.5v-103c0 -85.333 8.33301 -160 25 -224s40.834 -117.167 72.501 -159.5s70 -74 115 -95s95.5 -31.5 151.5 -31.5c56.667 0 107.5 10.5 152.5 31.5s83.167 52.667 114.5 95s55.5 95.5 72.5 159.5
s25.5 138.667 25.5 224v103c0 85.333 -8.5 159.833 -25.5 223.5s-41.167 116.834 -72.5 159.501s-69.5 74.5 -114.5 95.5s-95.833 31.5 -152.5 31.5zM910 1530h-164l-90 162l-93 -162h-164l176 277h160z" />
    <glyph glyph-name="Otilde" unicode="&#xd5;" horiz-adv-x="1307" 
d="M653 1430c86 0 163.333 -15 232 -45s126.667 -75.333 174 -136s83.666 -136.334 108.999 -227.001s38 -197 38 -319s-12.667 -228.5 -38 -319.5s-61.666 -166.667 -108.999 -227s-105.333 -105.5 -174 -135.5s-146 -45 -232 -45s-163.167 15 -231.5 45
s-126.166 75.167 -173.499 135.5s-83.666 136 -108.999 227s-38 197.5 -38 319.5s12.667 228.333 38 319s61.666 166.334 108.999 227.001s105.166 106 173.499 136s145.5 45 231.5 45zM653 1264c-56 0 -106.5 -10.5 -151.5 -31.5s-83.333 -52.833 -115 -95.5
s-55.834 -95.834 -72.501 -159.501s-25 -138.167 -25 -223.5v-103c0 -85.333 8.33301 -160 25 -224s40.834 -117.167 72.501 -159.5s70 -74 115 -95s95.5 -31.5 151.5 -31.5c56.667 0 107.5 10.5 152.5 31.5s83.167 52.667 114.5 95s55.5 95.5 72.5 159.5
s25.5 138.667 25.5 224v103c0 85.333 -8.5 159.833 -25.5 223.5s-41.167 116.834 -72.5 159.501s-69.5 74.5 -114.5 95.5s-95.833 31.5 -152.5 31.5zM953 1809c0 -24 -3.33203 -48.499 -9.99902 -73.499s-17 -47.833 -31 -68.5s-32 -37.667 -54 -51s-48.333 -20 -79 -20
c-22 0 -43 3.33301 -63 10s-39.5 13.834 -58.5 21.501s-37.833 14.834 -56.5 21.501s-38 10 -58 10c-18.667 0 -34 -4.66699 -46 -14s-19.667 -25.666 -23 -48.999h-119c0 23.333 3.33301 47.666 10 72.999s17 48.333 31 69s32 37.667 54 51s48.333 20 79 20
c22 0 42.833 -3.33301 62.5 -10s39 -13.834 58 -21.501s37.833 -14.834 56.5 -21.501s38 -10 58 -10c18.667 0 34.167 4.66699 46.5 14s20.166 25.666 23.499 48.999h119z" />
    <glyph glyph-name="Odieresis" unicode="&#xd6;" horiz-adv-x="1307" 
d="M653 1430c86 0 163.333 -15 232 -45s126.667 -75.333 174 -136s83.666 -136.334 108.999 -227.001s38 -197 38 -319s-12.667 -228.5 -38 -319.5s-61.666 -166.667 -108.999 -227s-105.333 -105.5 -174 -135.5s-146 -45 -232 -45s-163.167 15 -231.5 45
s-126.166 75.167 -173.499 135.5s-83.666 136 -108.999 227s-38 197.5 -38 319.5s12.667 228.333 38 319s61.666 166.334 108.999 227.001s105.166 106 173.499 136s145.5 45 231.5 45zM653 1264c-56 0 -106.5 -10.5 -151.5 -31.5s-83.333 -52.833 -115 -95.5
s-55.834 -95.834 -72.501 -159.501s-25 -138.167 -25 -223.5v-103c0 -85.333 8.33301 -160 25 -224s40.834 -117.167 72.501 -159.5s70 -74 115 -95s95.5 -31.5 151.5 -31.5c56.667 0 107.5 10.5 152.5 31.5s83.167 52.667 114.5 95s55.5 95.5 72.5 159.5
s25.5 138.667 25.5 224v103c0 85.333 -8.5 159.833 -25.5 223.5s-41.167 116.834 -72.5 159.501s-69.5 74.5 -114.5 95.5s-95.833 31.5 -152.5 31.5zM897 1614h-179v195h179v-195zM589 1614h-178v195h178v-195z" />
    <glyph glyph-name="multiply" unicode="&#xd7;" horiz-adv-x="981" 
d="M820 955l56.5 -60.999l54.5 -60l-313 -311l313 -310l-56.5 -60.5l-54.5 -59.5l-158 152.5l-157 154.5l-315 -307l-55 59.5l-57 60.5l313 310l-313 311l57 60c18.667 19.333 37 39.666 55 60.999l315 -312z" />
    <glyph glyph-name="Oslash" unicode="&#xd8;" horiz-adv-x="1307" 
d="M1059 1248c47.333 -60.667 83.667 -136.336 109 -227.003s38 -196.667 38 -318c0 -122 -12.667 -228.5 -38 -319.5s-61.666 -166.667 -108.999 -227s-105.333 -105.5 -174 -135.5s-146 -45 -232 -45c-64.667 0 -124.167 8.16699 -178.5 24.5s-103.5 41.5 -147.5 75.5
l-93 -152h-131l145 232c-48 60.667 -84.5 136.334 -109.5 227.001s-37.5 197.334 -37.5 320.001c0 122 12.667 228.333 38 319s61.666 166.334 108.999 227.001s105.166 106 173.499 136s145.5 45 231.5 45c130.667 0 239.334 -34.333 326.001 -103l96 154h131z
M422.001 227.998c58.667 -58 135.668 -87 231.001 -87c56.667 0 107.5 10.5 152.5 31.5s83.167 52.667 114.5 95s55.5 95.5 72.5 159.5s25.5 138.667 25.5 224v103c0 68 -5.33301 129 -16 183s-26.334 101.333 -47.001 142zM653.002 1264
c-56 0 -106.5 -10.499 -151.5 -31.499s-83.333 -52.833 -115 -95.5s-55.834 -95.834 -72.501 -159.501s-25 -138.167 -25 -223.5v-103c0 -68.667 5.33301 -130 16 -184s26.334 -102 47.001 -144l533 853c-62 58.667 -139.333 88 -232 88z" />
    <glyph glyph-name="Ugrave" unicode="&#xd9;" horiz-adv-x="1212" 
d="M1069 457c0 -79.333 -10.5 -148.833 -31.5 -208.5s-51.5 -109.834 -91.5 -150.501s-88.667 -71.167 -146 -91.5s-122 -30.5 -194 -30.5s-136.667 10.167 -194 30.5s-106 50.833 -146 91.5s-70.5 90.834 -91.5 150.501s-31.5 129.167 -31.5 208.5v948h180v-959
c0 -99.333 25.167 -175 75.5 -227s119.5 -78 207.5 -78s157.167 26 207.5 78s75.5 127.667 75.5 227v959h180v-948zM587 1538l-222 264l2 7h185l176 -271h-141z" />
    <glyph glyph-name="Uacute" unicode="&#xda;" horiz-adv-x="1212" 
d="M1069 457c0 -79.333 -10.5 -148.833 -31.5 -208.5s-51.5 -109.834 -91.5 -150.501s-88.667 -71.167 -146 -91.5s-122 -30.5 -194 -30.5s-136.667 10.167 -194 30.5s-106 50.833 -146 91.5s-70.5 90.834 -91.5 150.501s-31.5 129.167 -31.5 208.5v948h180v-959
c0 -99.333 25.167 -175 75.5 -227s119.5 -78 207.5 -78s157.167 26 207.5 78s75.5 127.667 75.5 227v959h180v-948zM626 1538h-142l176 271h184l2 -7z" />
    <glyph glyph-name="Ucircumflex" unicode="&#xdb;" horiz-adv-x="1212" 
d="M1069 457c0 -79.333 -10.5 -148.833 -31.5 -208.5s-51.5 -109.834 -91.5 -150.501s-88.667 -71.167 -146 -91.5s-122 -30.5 -194 -30.5s-136.667 10.167 -194 30.5s-106 50.833 -146 91.5s-70.5 90.834 -91.5 150.501s-31.5 129.167 -31.5 208.5v948h180v-959
c0 -99.333 25.167 -175 75.5 -227s119.5 -78 207.5 -78s157.167 26 207.5 78s75.5 127.667 75.5 227v959h180v-948zM862 1530h-164l-90 162l-93 -162h-164l176 277h160z" />
    <glyph glyph-name="Udieresis" unicode="&#xdc;" horiz-adv-x="1212" 
d="M1069 457c0 -79.333 -10.5 -148.833 -31.5 -208.5s-51.5 -109.834 -91.5 -150.501s-88.667 -71.167 -146 -91.5s-122 -30.5 -194 -30.5s-136.667 10.167 -194 30.5s-106 50.833 -146 91.5s-70.5 90.834 -91.5 150.501s-31.5 129.167 -31.5 208.5v948h180v-959
c0 -99.333 25.167 -175 75.5 -227s119.5 -78 207.5 -78s157.167 26 207.5 78s75.5 127.667 75.5 227v959h180v-948zM849 1614h-179v195h179v-195zM541 1614h-178v195h178v-195z" />
    <glyph glyph-name="Yacute" unicode="&#xdd;" horiz-adv-x="1120" 
d="M651 0h-180v582l-455 823h199l356 -651h9l349 651h175l-453 -823v-582zM580 1538h-142l176 271h184l2 -7z" />
    <glyph glyph-name="Thorn" unicode="&#xde;" horiz-adv-x="1120" 
d="M324 1126h321.001c69.333 0 130.166 -9.83301 182.499 -29.5s96.166 -47.5 131.499 -83.5s61.833 -79.167 79.5 -129.5s26.5 -105.833 26.5 -166.5c0 -62 -9.66699 -118.5 -29 -169.5s-47.166 -94.833 -83.499 -131.5s-80.5 -65 -132.5 -85s-110.333 -30 -175 -30h-321
v-301h-181v1405h181v-279zM324.001 963v-498h315c36 0 68.5 6 97.5 18s54 29 75 51s37.167 48.5 48.5 79.5s17 65.5 17 103.5c0 76 -20.333 136 -61 180s-99.667 66 -177 66h-315z" />
    <glyph glyph-name="germandbls" unicode="&#xdf;" horiz-adv-x="1026" 
d="M521 1505c54.667 0 105.499 -8.66699 152.499 -26s87.667 -42.5 122 -75.5s61.166 -73 80.499 -120s29 -100.5 29 -160.5c0 -34 -4.66699 -67.333 -14 -100s-22.5 -63 -39.5 -91s-37.5 -52.667 -61.5 -74s-50.333 -37.666 -79 -48.999v-9
c34.667 -12.667 66.5 -31.334 95.5 -56.001s54 -53 75 -85s37.333 -67 49 -105s17.5 -76.667 17.5 -116c0 -66 -10.5 -126 -31.5 -180s-50 -100 -87 -138s-80.333 -67.5 -130 -88.5s-103.167 -31.5 -160.5 -31.5h-154v152h138c35.333 0 68.333 7.5 99 22.5
s57.5 35.5 80.5 61.5s41 56.5 54 91.5s19.5 72.5 19.5 112.5c0 38 -6.5 73.833 -19.5 107.5s-31 63 -54 88s-49.833 44.833 -80.5 59.5s-63.667 22 -99 22h-138v149h120c31.333 0 60.833 6.66699 88.5 20s51.834 31.5 72.501 54.5s37 49.667 49 80s18 62.5 18 96.5
c0 36 -4.83301 68.667 -14.5 98s-24 54.5 -43 75.5s-42.333 37.167 -70 48.5s-59.834 17 -96.501 17c-36 0 -68.833 -6.16699 -98.5 -18.5s-54.834 -30.833 -75.501 -55.5s-36.667 -55.5 -48 -92.5s-17 -79.833 -17 -128.5v-1061h-167v1057c0 80 10.833 148.333 32.5 205
s51.334 103 89.001 139s81.834 62.333 132.501 79s105.334 25 164.001 25z" />
    <glyph glyph-name="agrave" unicode="&#xe0;" 
d="M457 1102c108.667 0 190 -26.499 244 -79.499s81 -127.167 81 -222.5v-604c0 -25.333 6 -43.5 18 -54.5s25.333 -16.5 40 -16.5h65v-117c-9.33301 -5.33301 -23.333 -10.666 -42 -15.999s-41.667 -8 -69 -8c-44 0 -80.667 12.167 -110 36.5s-49.333 56.5 -60 96.5h-10
c-28 -44.667 -64.5 -79.334 -109.5 -104.001s-95.833 -37 -152.5 -37c-18 0 -37.333 1.5 -58 4.5s-41.5 8.33301 -62.5 16s-41.333 18.667 -61 33s-37 32.666 -52 54.999s-27 49.5 -36 81.5s-13.5 69.667 -13.5 113c0 74 13.667 134.5 41 181.5s65.333 83.667 114 110
s106.334 44.333 173.001 54s139 14.5 217 14.5v139c0 26 -2.33301 49.667 -7 71s-13.334 39.666 -26.001 54.999s-30 27.333 -52 36s-50.333 13 -85 13c-32 0 -58.5 -5 -79.5 -15s-37.833 -23.167 -50.5 -39.5s-21.667 -34.666 -27 -54.999s-8 -40.833 -8 -61.5v-24h-166
c-1.33301 6 -2 12.333 -2 19v25c0 49.333 8.5 92.833 25.5 130.5s40.833 69 71.5 94s67.167 43.833 109.5 56.5s88.833 19 139.5 19zM614 489.001c-54.667 0 -104.498 -2.5 -149.498 -7.5s-83.667 -14.833 -116 -29.5s-57.5 -35 -75.5 -61s-27 -60 -27 -102
c0 -61.333 12.333 -104 37 -128s60.667 -36 108 -36c26.667 0 53.167 5.5 79.5 16.5s50.166 27.5 71.499 49.5s38.666 49.667 51.999 83s20 72.333 20 117v98zM439.002 1210l-222 264l2 7h185l176 -271h-141z" />
    <glyph glyph-name="aacute" unicode="&#xe1;" 
d="M457 1102c108.667 0 190 -26.499 244 -79.499s81 -127.167 81 -222.5v-604c0 -25.333 6 -43.5 18 -54.5s25.333 -16.5 40 -16.5h65v-117c-9.33301 -5.33301 -23.333 -10.666 -42 -15.999s-41.667 -8 -69 -8c-44 0 -80.667 12.167 -110 36.5s-49.333 56.5 -60 96.5h-10
c-28 -44.667 -64.5 -79.334 -109.5 -104.001s-95.833 -37 -152.5 -37c-18 0 -37.333 1.5 -58 4.5s-41.5 8.33301 -62.5 16s-41.333 18.667 -61 33s-37 32.666 -52 54.999s-27 49.5 -36 81.5s-13.5 69.667 -13.5 113c0 74 13.667 134.5 41 181.5s65.333 83.667 114 110
s106.334 44.333 173.001 54s139 14.5 217 14.5v139c0 26 -2.33301 49.667 -7 71s-13.334 39.666 -26.001 54.999s-30 27.333 -52 36s-50.333 13 -85 13c-32 0 -58.5 -5 -79.5 -15s-37.833 -23.167 -50.5 -39.5s-21.667 -34.666 -27 -54.999s-8 -40.833 -8 -61.5v-24h-166
c-1.33301 6 -2 12.333 -2 19v25c0 49.333 8.5 92.833 25.5 130.5s40.833 69 71.5 94s67.167 43.833 109.5 56.5s88.833 19 139.5 19zM614 489.001c-54.667 0 -104.498 -2.5 -149.498 -7.5s-83.667 -14.833 -116 -29.5s-57.5 -35 -75.5 -61s-27 -60 -27 -102
c0 -61.333 12.333 -104 37 -128s60.667 -36 108 -36c26.667 0 53.167 5.5 79.5 16.5s50.166 27.5 71.499 49.5s38.666 49.667 51.999 83s20 72.333 20 117v98zM478.002 1210h-142l176 271h184l2 -7z" />
    <glyph glyph-name="acircumflex" unicode="&#xe2;" 
d="M457 1102c108.667 0 190 -26.499 244 -79.499s81 -127.167 81 -222.5v-604c0 -25.333 6 -43.5 18 -54.5s25.333 -16.5 40 -16.5h65v-117c-9.33301 -5.33301 -23.333 -10.666 -42 -15.999s-41.667 -8 -69 -8c-44 0 -80.667 12.167 -110 36.5s-49.333 56.5 -60 96.5h-10
c-28 -44.667 -64.5 -79.334 -109.5 -104.001s-95.833 -37 -152.5 -37c-18 0 -37.333 1.5 -58 4.5s-41.5 8.33301 -62.5 16s-41.333 18.667 -61 33s-37 32.666 -52 54.999s-27 49.5 -36 81.5s-13.5 69.667 -13.5 113c0 74 13.667 134.5 41 181.5s65.333 83.667 114 110
s106.334 44.333 173.001 54s139 14.5 217 14.5v139c0 26 -2.33301 49.667 -7 71s-13.334 39.666 -26.001 54.999s-30 27.333 -52 36s-50.333 13 -85 13c-32 0 -58.5 -5 -79.5 -15s-37.833 -23.167 -50.5 -39.5s-21.667 -34.666 -27 -54.999s-8 -40.833 -8 -61.5v-24h-166
c-1.33301 6 -2 12.333 -2 19v25c0 49.333 8.5 92.833 25.5 130.5s40.833 69 71.5 94s67.167 43.833 109.5 56.5s88.833 19 139.5 19zM614 489.001c-54.667 0 -104.498 -2.5 -149.498 -7.5s-83.667 -14.833 -116 -29.5s-57.5 -35 -75.5 -61s-27 -60 -27 -102
c0 -61.333 12.333 -104 37 -128s60.667 -36 108 -36c26.667 0 53.167 5.5 79.5 16.5s50.166 27.5 71.499 49.5s38.666 49.667 51.999 83s20 72.333 20 117v98zM723.002 1202h-164l-90 162l-93 -162h-164l176 277h160z" />
    <glyph glyph-name="atilde" unicode="&#xe3;" 
d="M457 1102c108.667 0 190 -26.499 244 -79.499s81 -127.167 81 -222.5v-604c0 -25.333 6 -43.5 18 -54.5s25.333 -16.5 40 -16.5h65v-117c-9.33301 -5.33301 -23.333 -10.666 -42 -15.999s-41.667 -8 -69 -8c-44 0 -80.667 12.167 -110 36.5s-49.333 56.5 -60 96.5h-10
c-28 -44.667 -64.5 -79.334 -109.5 -104.001s-95.833 -37 -152.5 -37c-18 0 -37.333 1.5 -58 4.5s-41.5 8.33301 -62.5 16s-41.333 18.667 -61 33s-37 32.666 -52 54.999s-27 49.5 -36 81.5s-13.5 69.667 -13.5 113c0 74 13.667 134.5 41 181.5s65.333 83.667 114 110
s106.334 44.333 173.001 54s139 14.5 217 14.5v139c0 26 -2.33301 49.667 -7 71s-13.334 39.666 -26.001 54.999s-30 27.333 -52 36s-50.333 13 -85 13c-32 0 -58.5 -5 -79.5 -15s-37.833 -23.167 -50.5 -39.5s-21.667 -34.666 -27 -54.999s-8 -40.833 -8 -61.5v-24h-166
c-1.33301 6 -2 12.333 -2 19v25c0 49.333 8.5 92.833 25.5 130.5s40.833 69 71.5 94s67.167 43.833 109.5 56.5s88.833 19 139.5 19zM614 489.001c-54.667 0 -104.498 -2.5 -149.498 -7.5s-83.667 -14.833 -116 -29.5s-57.5 -35 -75.5 -61s-27 -60 -27 -102
c0 -61.333 12.333 -104 37 -128s60.667 -36 108 -36c26.667 0 53.167 5.5 79.5 16.5s50.166 27.5 71.499 49.5s38.666 49.667 51.999 83s20 72.333 20 117v98zM766.002 1481c0 -24 -3.33203 -48.499 -9.99902 -73.499s-17 -47.833 -31 -68.5s-32 -37.667 -54 -51
s-48.333 -20 -79 -20c-22 0 -43 3.33301 -63 10s-39.5 13.834 -58.5 21.501s-37.833 14.834 -56.5 21.501s-38 10 -58 10c-18.667 0 -34 -4.66699 -46 -14s-19.667 -25.666 -23 -48.999h-119c0 23.333 3.33301 47.666 10 72.999s17 48.333 31 69s32 37.667 54 51
s48.333 20 79 20c22 0 42.833 -3.33301 62.5 -10s39 -13.834 58 -21.501s37.833 -14.834 56.5 -21.501s38 -10 58 -10c18.667 0 34.167 4.66699 46.5 14s20.166 25.666 23.499 48.999h119z" />
    <glyph glyph-name="adieresis" unicode="&#xe4;" 
d="M457 1102c108.667 0 190 -26.499 244 -79.499s81 -127.167 81 -222.5v-604c0 -25.333 6 -43.5 18 -54.5s25.333 -16.5 40 -16.5h65v-117c-9.33301 -5.33301 -23.333 -10.666 -42 -15.999s-41.667 -8 -69 -8c-44 0 -80.667 12.167 -110 36.5s-49.333 56.5 -60 96.5h-10
c-28 -44.667 -64.5 -79.334 -109.5 -104.001s-95.833 -37 -152.5 -37c-18 0 -37.333 1.5 -58 4.5s-41.5 8.33301 -62.5 16s-41.333 18.667 -61 33s-37 32.666 -52 54.999s-27 49.5 -36 81.5s-13.5 69.667 -13.5 113c0 74 13.667 134.5 41 181.5s65.333 83.667 114 110
s106.334 44.333 173.001 54s139 14.5 217 14.5v139c0 26 -2.33301 49.667 -7 71s-13.334 39.666 -26.001 54.999s-30 27.333 -52 36s-50.333 13 -85 13c-32 0 -58.5 -5 -79.5 -15s-37.833 -23.167 -50.5 -39.5s-21.667 -34.666 -27 -54.999s-8 -40.833 -8 -61.5v-24h-166
c-1.33301 6 -2 12.333 -2 19v25c0 49.333 8.5 92.833 25.5 130.5s40.833 69 71.5 94s67.167 43.833 109.5 56.5s88.833 19 139.5 19zM614 489.001c-54.667 0 -104.498 -2.5 -149.498 -7.5s-83.667 -14.833 -116 -29.5s-57.5 -35 -75.5 -61s-27 -60 -27 -102
c0 -61.333 12.333 -104 37 -128s60.667 -36 108 -36c26.667 0 53.167 5.5 79.5 16.5s50.166 27.5 71.499 49.5s38.666 49.667 51.999 83s20 72.333 20 117v98zM710.002 1286h-179v195h179v-195zM402.002 1286h-178v195h178v-195z" />
    <glyph glyph-name="aring" unicode="&#xe5;" 
d="M457 1102c108.667 0 190 -26.499 244 -79.499s81 -127.167 81 -222.5v-604c0 -25.333 6 -43.5 18 -54.5s25.333 -16.5 40 -16.5h65v-117c-9.33301 -5.33301 -23.333 -10.666 -42 -15.999s-41.667 -8 -69 -8c-44 0 -80.667 12.167 -110 36.5s-49.333 56.5 -60 96.5h-10
c-28 -44.667 -64.5 -79.334 -109.5 -104.001s-95.833 -37 -152.5 -37c-18 0 -37.333 1.5 -58 4.5s-41.5 8.33301 -62.5 16s-41.333 18.667 -61 33s-37 32.666 -52 54.999s-27 49.5 -36 81.5s-13.5 69.667 -13.5 113c0 74 13.667 134.5 41 181.5s65.333 83.667 114 110
s106.334 44.333 173.001 54s139 14.5 217 14.5v139c0 26 -2.33301 49.667 -7 71s-13.334 39.666 -26.001 54.999s-30 27.333 -52 36s-50.333 13 -85 13c-32 0 -58.5 -5 -79.5 -15s-37.833 -23.167 -50.5 -39.5s-21.667 -34.666 -27 -54.999s-8 -40.833 -8 -61.5v-24h-166
c-1.33301 6 -2 12.333 -2 19v25c0 49.333 8.5 92.833 25.5 130.5s40.833 69 71.5 94s67.167 43.833 109.5 56.5s88.833 19 139.5 19zM467 1545c28 0 53.833 -5.16699 77.5 -15.5s44.334 -24.5 62.001 -42.5s31.5 -38.833 41.5 -62.5s15 -48.834 15 -75.501
c0 -27.333 -5.16699 -53 -15.5 -77s-24.333 -44.833 -42 -62.5s-38.334 -31.667 -62.001 -42s-49.167 -15.5 -76.5 -15.5c-26.667 0 -52 5 -76 15s-45 23.833 -63 41.5s-32.167 38.5 -42.5 62.5s-15.5 50 -15.5 78c0 27.333 5.16699 52.833 15.5 76.5
s24.333 44.334 42 62.001s38.5 31.667 62.5 42s49.667 15.5 77 15.5zM614 489.001c-54.667 0 -104.498 -2.5 -149.498 -7.5s-83.667 -14.833 -116 -29.5s-57.5 -35 -75.5 -61s-27 -60 -27 -102c0 -61.333 12.333 -104 37 -128s60.667 -36 108 -36
c26.667 0 53.167 5.5 79.5 16.5s50.166 27.5 71.499 49.5s38.666 49.667 51.999 83s20 72.333 20 117v98zM467.002 1453c-14 0 -27.5 -2.66699 -40.5 -8s-24.167 -12.833 -33.5 -22.5s-16.833 -20.834 -22.5 -33.501s-8.5 -26 -8.5 -40s2.83301 -27.5 8.5 -40.5
s13.167 -24.167 22.5 -33.5s20.5 -16.833 33.5 -22.5s26.5 -8.5 40.5 -8.5s27.167 2.83301 39.5 8.5s23.333 13.167 33 22.5s17.334 20.5 23.001 33.5s8.5 26.5 8.5 40.5s-2.83301 27.333 -8.5 40s-13.334 23.834 -23.001 33.501s-20.667 17.167 -33 22.5s-25.5 8 -39.5 8z
" />
    <glyph glyph-name="ae" unicode="&#xe6;" horiz-adv-x="1493" 
d="M1032 1102c58.667 0 110.17 -9.50098 154.503 -28.501s81.333 -48.833 111 -89.5s51.834 -93 66.501 -157s22 -141 22 -231v-107h-584c1.33301 -126 21 -218.167 59 -276.5s97 -87.5 177 -87.5c26.667 0 51.167 5.5 73.5 16.5s41.5 27 57.5 48s28.5 46.5 37.5 76.5
s13.5 63.667 13.5 101h166c0 -60.667 -8.5 -115.167 -25.5 -163.5s-41 -89.333 -72 -123s-68.167 -59.5 -111.5 -77.5s-91 -27 -143 -27c-74.667 0 -139.334 12.667 -194.001 38s-99 67 -133 125c-38.667 -50 -84.5 -89.667 -137.5 -119s-110.833 -44 -173.5 -44
c-33.333 0 -68.5 3.5 -105.5 10.5s-71 21.333 -102 43s-56.5 52.334 -76.5 92.001s-30 92.167 -30 157.5c0 74 13.667 134.5 41 181.5s65.166 83.667 113.499 110s105.833 44.333 172.5 54s139 14.5 217 14.5v139c0 26 -2.33301 49.667 -7 71s-13.334 39.666 -26.001 54.999
s-30 27.333 -52 36s-50 13 -84 13c-32 0 -58.667 -5 -80 -15s-38.333 -23.167 -51 -39.5s-21.667 -34.666 -27 -54.999s-8 -40.833 -8 -61.5v-24h-166c-1.33301 6 -2 12.333 -2 19v25c0 49.333 8.5 92.833 25.5 130.5s40.833 69 71.5 94s67.167 43.833 109.5 56.5
s88.833 19 139.5 19c66 0 122.167 -10.5 168.5 -31.5s82.166 -51.5 107.499 -91.5c34.667 42 75.5 73 122.5 93s101.833 30 164.5 30zM626.003 488.999c-54.667 0 -104.5 -2.5 -149.5 -7.5s-83.667 -14.833 -116 -29.5s-57.5 -35 -75.5 -61s-27 -60 -27 -102
c0 -61.333 12.5 -104 37.5 -128s61.167 -36 108.5 -36c26 0 52.333 5.16699 79 15.5s50.5 25.833 71.5 46.5s38.167 46.667 51.5 78s20 68 20 110v114zM1032 952.999c-37.333 0 -69.5 -6.66797 -96.5 -20.001s-49.5 -33.166 -67.5 -59.499s-32 -59 -42 -98
s-17 -84.5 -21 -136.5h405c0 103.333 -15 181.5 -45 234.5s-74.333 79.5 -133 79.5z" />
    <glyph glyph-name="ccedilla" unicode="&#xe7;" horiz-adv-x="840" 
d="M442 1102c58.667 0 108.833 -9.16699 150.5 -27.5s75.834 -45.5 102.501 -81.5s46.167 -80.333 58.5 -133s18.5 -113.334 18.5 -182.001h-174c0 46.667 -2.5 87.167 -7.5 121.5s-13.5 62.833 -25.5 85.5s-28 39.667 -48 51s-45 17 -75 17
c-66.667 0 -115.334 -31.333 -146.001 -94s-46 -156.334 -46 -281.001v-79c0 -124 15 -217.333 45 -280s79 -94 147 -94c30 0 55.5 6 76.5 18s38 29.667 51 53s22.333 52 28 86s8.5 73.333 8.5 118h166c0 -55.333 -5.83301 -108.166 -17.5 -158.499
s-30.167 -94.833 -55.5 -133.5s-58.166 -69.667 -98.499 -93s-89.166 -36 -146.499 -38l-7 -51c22 -1.33301 43 -4.66602 63 -9.99902s37.667 -13.166 53 -23.499s27.5 -23.5 36.5 -39.5s13.5 -35.667 13.5 -59c0 -34.667 -7.16699 -62.834 -21.5 -84.501
s-32.333 -38.667 -54 -51s-44.834 -20.666 -69.501 -24.999s-47.334 -6.5 -68.001 -6.5c-29.333 0 -59.166 1.5 -89.499 4.5s-57.833 7.16699 -82.5 12.5v100h156c22.667 0 40.5 3.33301 53.5 10s19.5 20 19.5 40c0 16 -4.83301 28 -14.5 36s-27.834 12 -54.501 12h-68
l22 145c-92 21.333 -159.667 77.166 -203 167.499s-65 218.5 -65 384.5c0 192.667 29.833 334.667 89.5 426s152.5 137 278.5 137z" />
    <glyph glyph-name="egrave" unicode="&#xe8;" 
d="M491 1102c58.667 0 110.334 -9.5 155.001 -28.5s81.667 -48.833 111 -89.5s51.5 -93 66.5 -157s22.5 -141 22.5 -231v-107h-584c0.666992 -125.333 20.167 -217.333 58.5 -276s97.166 -88 176.499 -88c26.667 0 51.167 5.5 73.5 16.5s41.666 27 57.999 48
s29 46.5 38 76.5s13.5 63.667 13.5 101h166c0 -60.667 -8.5 -115.167 -25.5 -163.5s-41 -89.333 -72 -123s-68.167 -59.5 -111.5 -77.5s-91.333 -27 -144 -27c-66.667 0 -125.334 10.5 -176.001 31.5s-93.167 54.333 -127.5 100s-60.166 104 -77.499 175
s-26 156.5 -26 256.5c0 192.667 33.833 334.667 101.5 426s168.834 137 303.501 137zM491 953c-37.333 0 -69.5 -6.66797 -96.5 -20.001s-49.5 -33.166 -67.5 -59.499s-32 -59 -42 -98s-17 -84.5 -21 -136.5h406c0 103.333 -15.167 181.5 -45.5 234.5
s-74.833 79.5 -133.5 79.5zM472 1210l-222 264l2 7h185l176 -271h-141z" />
    <glyph glyph-name="eacute" unicode="&#xe9;" 
d="M491 1102c58.667 0 110.334 -9.5 155.001 -28.5s81.667 -48.833 111 -89.5s51.5 -93 66.5 -157s22.5 -141 22.5 -231v-107h-584c0.666992 -125.333 20.167 -217.333 58.5 -276s97.166 -88 176.499 -88c26.667 0 51.167 5.5 73.5 16.5s41.666 27 57.999 48
s29 46.5 38 76.5s13.5 63.667 13.5 101h166c0 -60.667 -8.5 -115.167 -25.5 -163.5s-41 -89.333 -72 -123s-68.167 -59.5 -111.5 -77.5s-91.333 -27 -144 -27c-66.667 0 -125.334 10.5 -176.001 31.5s-93.167 54.333 -127.5 100s-60.166 104 -77.499 175
s-26 156.5 -26 256.5c0 192.667 33.833 334.667 101.5 426s168.834 137 303.501 137zM491 953c-37.333 0 -69.5 -6.66797 -96.5 -20.001s-49.5 -33.166 -67.5 -59.499s-32 -59 -42 -98s-17 -84.5 -21 -136.5h406c0 103.333 -15.167 181.5 -45.5 234.5
s-74.833 79.5 -133.5 79.5zM511 1210h-142l176 271h184l2 -7z" />
    <glyph glyph-name="ecircumflex" unicode="&#xea;" 
d="M491 1102c58.667 0 110.334 -9.5 155.001 -28.5s81.667 -48.833 111 -89.5s51.5 -93 66.5 -157s22.5 -141 22.5 -231v-107h-584c0.666992 -125.333 20.167 -217.333 58.5 -276s97.166 -88 176.499 -88c26.667 0 51.167 5.5 73.5 16.5s41.666 27 57.999 48
s29 46.5 38 76.5s13.5 63.667 13.5 101h166c0 -60.667 -8.5 -115.167 -25.5 -163.5s-41 -89.333 -72 -123s-68.167 -59.5 -111.5 -77.5s-91.333 -27 -144 -27c-66.667 0 -125.334 10.5 -176.001 31.5s-93.167 54.333 -127.5 100s-60.166 104 -77.499 175
s-26 156.5 -26 256.5c0 192.667 33.833 334.667 101.5 426s168.834 137 303.501 137zM491 953c-37.333 0 -69.5 -6.66797 -96.5 -20.001s-49.5 -33.166 -67.5 -59.499s-32 -59 -42 -98s-17 -84.5 -21 -136.5h406c0 103.333 -15.167 181.5 -45.5 234.5
s-74.833 79.5 -133.5 79.5zM723 1202h-164l-90 162l-93 -162h-164l176 277h160z" />
    <glyph glyph-name="edieresis" unicode="&#xeb;" 
d="M491 1102c58.667 0 110.334 -9.5 155.001 -28.5s81.667 -48.833 111 -89.5s51.5 -93 66.5 -157s22.5 -141 22.5 -231v-107h-584c0.666992 -125.333 20.167 -217.333 58.5 -276s97.166 -88 176.499 -88c26.667 0 51.167 5.5 73.5 16.5s41.666 27 57.999 48
s29 46.5 38 76.5s13.5 63.667 13.5 101h166c0 -60.667 -8.5 -115.167 -25.5 -163.5s-41 -89.333 -72 -123s-68.167 -59.5 -111.5 -77.5s-91.333 -27 -144 -27c-66.667 0 -125.334 10.5 -176.001 31.5s-93.167 54.333 -127.5 100s-60.166 104 -77.499 175
s-26 156.5 -26 256.5c0 192.667 33.833 334.667 101.5 426s168.834 137 303.501 137zM491 953c-37.333 0 -69.5 -6.66797 -96.5 -20.001s-49.5 -33.166 -67.5 -59.499s-32 -59 -42 -98s-17 -84.5 -21 -136.5h406c0 103.333 -15.167 181.5 -45.5 234.5
s-74.833 79.5 -133.5 79.5zM710 1286h-179v195h179v-195zM402 1286h-178v195h178v-195z" />
    <glyph glyph-name="igrave" unicode="&#xec;" horiz-adv-x="467" 
d="M149 0v1077h168v-1077h-168zM215 1210l-222 264l2 7h185l176 -271h-141z" />
    <glyph glyph-name="iacute" unicode="&#xed;" horiz-adv-x="467" 
d="M149 0v1077h168v-1077h-168zM254 1210h-142l176 271h184l2 -7z" />
    <glyph glyph-name="icircumflex" unicode="&#xee;" horiz-adv-x="467" 
d="M317 0h-168v1077h168v-1077zM490 1202h-164l-90 162l-93 -162h-165l177 277h160z" />
    <glyph glyph-name="idieresis" unicode="&#xef;" horiz-adv-x="467" 
d="M317 0h-168v1077h168v-1077zM477 1286h-179v195h179v-195zM169 1286h-178v195h178v-195z" />
    <glyph glyph-name="eth" unicode="&#xf0;" 
d="M424 1481l46.5 -50l46.5 -51l239 23v-123l-146 -14c36.667 -50 69.834 -102 99.501 -156s55 -111 76 -171s37.333 -123.167 49 -189.5s17.5 -136.5 17.5 -210.5c0 -193.333 -32.667 -335.5 -98 -426.5s-161 -136.5 -287 -136.5s-221.667 45.5 -287 136.5
s-98 233.167 -98 426.5c0 99.333 9 184.5 27 255.5s43 129.333 75 175s70.167 79.167 114.5 100.5s92.833 32 145.5 32c18.667 0 36.667 -2.33301 54 -7s33.666 -10.667 48.999 -18c-16 30 -33.833 59 -53.5 87l-61.5 86l-242 -22v123l146 13l-46.5 53.5
c-15.667 18.333 -32.167 36.5 -49.5 54.5l4 9h180zM467 953c-70.667 0 -123.167 -31.333 -157.5 -94s-51.5 -156.334 -51.5 -281.001v-79c0 -124 17.167 -217.333 51.5 -280s86.833 -94 157.5 -94c70 0 122.333 31.333 157 94s52 156 52 280v79
c0 124.667 -17.667 218.334 -53 281.001s-87.333 94 -156 94z" />
    <glyph glyph-name="ntilde" unicode="&#xf1;" 
d="M545 1102c40.667 0 77.333 -5.66504 110 -16.998s60.5 -30 83.5 -56s40.833 -59.667 53.5 -101s19 -92 19 -152v-776h-168v764c0 37.333 -3.66699 68.166 -11 92.499s-17.666 43.666 -30.999 57.999s-29.333 24.333 -48 30s-39.334 8.5 -62.001 8.5
c-26.667 0 -52 -6.66699 -76 -20s-45.167 -32.666 -63.5 -57.999s-33 -56.333 -44 -93s-16.5 -78.334 -16.5 -125.001v-657h-168v1077h127l23 -124h12c30 53.333 67.333 91.5 112 114.5s94 34.5 148 34.5zM765.999 1481c0 -24 -3.33203 -48.499 -9.99902 -73.499
s-17 -47.833 -31 -68.5s-32 -37.667 -54 -51s-48.333 -20 -79 -20c-22 0 -43 3.33301 -63 10s-39.5 13.834 -58.5 21.501s-37.833 14.834 -56.5 21.501s-38 10 -58 10c-18.667 0 -34 -4.66699 -46 -14s-19.667 -25.666 -23 -48.999h-119c0 23.333 3.33301 47.666 10 72.999
s17 48.333 31 69s32 37.667 54 51s48.333 20 79 20c22 0 42.833 -3.33301 62.5 -10s39 -13.834 58 -21.501s37.833 -14.834 56.5 -21.501s38 -10 58 -10c18.667 0 34.167 4.66699 46.5 14s20.166 25.666 23.499 48.999h119z" />
    <glyph glyph-name="ograve" unicode="&#xf2;" 
d="M467 1102c126 0 221.667 -45.667 287 -137s98 -233.333 98 -426c0 -193.333 -32.667 -335.5 -98 -426.5s-161 -136.5 -287 -136.5s-221.667 45.5 -287 136.5s-98 233.167 -98 426.5c0 192.667 32.667 334.667 98 426s161 137 287 137zM467 953
c-70.667 0 -123.167 -31.333 -157.5 -94s-51.5 -156.334 -51.5 -281.001v-79c0 -124 17.167 -217.333 51.5 -280s86.833 -94 157.5 -94c70 0 122.333 31.333 157 94s52 156 52 280v79c0 124.667 -17.333 218.334 -52 281.001s-87 94 -157 94zM448 1210l-222 264l2 7h185
l176 -271h-141z" />
    <glyph glyph-name="oacute" unicode="&#xf3;" 
d="M467 1102c126 0 221.667 -45.667 287 -137s98 -233.333 98 -426c0 -193.333 -32.667 -335.5 -98 -426.5s-161 -136.5 -287 -136.5s-221.667 45.5 -287 136.5s-98 233.167 -98 426.5c0 192.667 32.667 334.667 98 426s161 137 287 137zM467 953
c-70.667 0 -123.167 -31.333 -157.5 -94s-51.5 -156.334 -51.5 -281.001v-79c0 -124 17.167 -217.333 51.5 -280s86.833 -94 157.5 -94c70 0 122.333 31.333 157 94s52 156 52 280v79c0 124.667 -17.333 218.334 -52 281.001s-87 94 -157 94zM487 1210h-142l176 271h184
l2 -7z" />
    <glyph glyph-name="ocircumflex" unicode="&#xf4;" 
d="M467 1102c126 0 221.667 -45.667 287 -137s98 -233.333 98 -426c0 -193.333 -32.667 -335.5 -98 -426.5s-161 -136.5 -287 -136.5s-221.667 45.5 -287 136.5s-98 233.167 -98 426.5c0 192.667 32.667 334.667 98 426s161 137 287 137zM467 953
c-70.667 0 -123.167 -31.333 -157.5 -94s-51.5 -156.334 -51.5 -281.001v-79c0 -124 17.167 -217.333 51.5 -280s86.833 -94 157.5 -94c70 0 122.333 31.333 157 94s52 156 52 280v79c0 124.667 -17.333 218.334 -52 281.001s-87 94 -157 94zM723 1202h-164l-90 162
l-93 -162h-164l176 277h160z" />
    <glyph glyph-name="otilde" unicode="&#xf5;" 
d="M467 1102c126 0 221.667 -45.667 287 -137s98 -233.333 98 -426c0 -193.333 -32.667 -335.5 -98 -426.5s-161 -136.5 -287 -136.5s-221.667 45.5 -287 136.5s-98 233.167 -98 426.5c0 192.667 32.667 334.667 98 426s161 137 287 137zM467 953
c-70.667 0 -123.167 -31.333 -157.5 -94s-51.5 -156.334 -51.5 -281.001v-79c0 -124 17.167 -217.333 51.5 -280s86.833 -94 157.5 -94c70 0 122.333 31.333 157 94s52 156 52 280v79c0 124.667 -17.333 218.334 -52 281.001s-87 94 -157 94zM766 1481
c0 -24 -3.33203 -48.499 -9.99902 -73.499s-17 -47.833 -31 -68.5s-32 -37.667 -54 -51s-48.333 -20 -79 -20c-22 0 -43 3.33301 -63 10s-39.5 13.834 -58.5 21.501s-37.833 14.834 -56.5 21.501s-38 10 -58 10c-18.667 0 -34 -4.66699 -46 -14s-19.667 -25.666 -23 -48.999
h-119c0 23.333 3.33301 47.666 10 72.999s17 48.333 31 69s32 37.667 54 51s48.333 20 79 20c22 0 42.833 -3.33301 62.5 -10s39 -13.834 58 -21.501s37.833 -14.834 56.5 -21.501s38 -10 58 -10c18.667 0 34.167 4.66699 46.5 14s20.166 25.666 23.499 48.999h119z" />
    <glyph glyph-name="odieresis" unicode="&#xf6;" 
d="M467 1102c126 0 221.667 -45.667 287 -137s98 -233.333 98 -426c0 -193.333 -32.667 -335.5 -98 -426.5s-161 -136.5 -287 -136.5s-221.667 45.5 -287 136.5s-98 233.167 -98 426.5c0 192.667 32.667 334.667 98 426s161 137 287 137zM467 953
c-70.667 0 -123.167 -31.333 -157.5 -94s-51.5 -156.334 -51.5 -281.001v-79c0 -124 17.167 -217.333 51.5 -280s86.833 -94 157.5 -94c70 0 122.333 31.333 157 94s52 156 52 280v79c0 124.667 -17.333 218.334 -52 281.001s-87 94 -157 94zM710 1286h-179v195h179v-195z
M402 1286h-178v195h178v-195z" />
    <glyph glyph-name="divide" unicode="&#xf7;" horiz-adv-x="1124" 
d="M1034 436h-946v172h946v-172zM647 105h-172v184h172v-184zM647 756h-172v186h172v-186z" />
    <glyph glyph-name="oslash" unicode="&#xf8;" horiz-adv-x="1026" 
d="M798 965c66 -93.333 99.001 -235.332 99.001 -425.999c0 -193.333 -32.667 -335.5 -98 -426.5s-161.333 -136.5 -288 -136.5c-42.667 0 -82.167 5.16699 -118.5 15.5s-68.833 26.166 -97.5 47.499l-55 -104h-113l97 178c-32 46 -56.167 104 -72.5 174
s-24.5 154 -24.5 252c0 192.667 32.667 334.667 98 426s160.666 137 285.999 137c87.333 0 159.333 -21.333 216 -64l57 105h113zM377.001 186.001c32.667 -40.667 77.332 -61 133.999 -61c70.667 0 123.334 31.333 158.001 94s52 156 52 280v79
c0 40 -1.83301 76.667 -5.5 110s-9.16699 63.333 -16.5 90zM510.999 953.001c-69.333 0 -121.333 -31.332 -156 -93.999s-52 -156.334 -52 -281.001v-79c0 -40 1.5 -76.667 4.5 -110s8.16699 -64 15.5 -92l324 594c-36 41.333 -81.333 62 -136 62z" />
    <glyph glyph-name="ugrave" unicode="&#xf9;" 
d="M684 0l-21.9971 125.001h-13c-30 -54 -67.5 -92.333 -112.5 -115s-94.167 -34 -147.5 -34c-40 0 -76.5 5.66699 -109.5 17s-61 29.833 -84 55.5s-40.833 59.167 -53.5 100.5s-19 92 -19 152v776h168v-764c0 -37.333 3.66699 -68.166 11 -92.499
s17.666 -43.5 30.999 -57.5s29.166 -23.833 47.499 -29.5s38.833 -8.5 61.5 -8.5c26.667 0 52.167 6.66699 76.5 20s45.666 32.666 63.999 57.999s33 56.166 44 92.499s16.5 77.833 16.5 124.5v657h168v-1077h-127zM448.003 1210l-222 264l2 7h185l176 -271h-141z" />
    <glyph glyph-name="uacute" unicode="&#xfa;" 
d="M684 0l-21.9971 125.001h-13c-30 -54 -67.5 -92.333 -112.5 -115s-94.167 -34 -147.5 -34c-40 0 -76.5 5.66699 -109.5 17s-61 29.833 -84 55.5s-40.833 59.167 -53.5 100.5s-19 92 -19 152v776h168v-764c0 -37.333 3.66699 -68.166 11 -92.499
s17.666 -43.5 30.999 -57.5s29.166 -23.833 47.499 -29.5s38.833 -8.5 61.5 -8.5c26.667 0 52.167 6.66699 76.5 20s45.666 32.666 63.999 57.999s33 56.166 44 92.499s16.5 77.833 16.5 124.5v657h168v-1077h-127zM487.003 1210h-142l176 271h184l2 -7z" />
    <glyph glyph-name="ucircumflex" unicode="&#xfb;" 
d="M811 0l-126.997 0.000976562l-22 125h-13c-30 -54 -67.5 -92.333 -112.5 -115s-94.167 -34 -147.5 -34c-40 0 -76.5 5.66699 -109.5 17s-61 29.833 -84 55.5s-40.833 59.167 -53.5 100.5s-19 92 -19 152v776h168v-764c0 -37.333 3.66699 -68.166 11 -92.499
s17.666 -43.5 30.999 -57.5s29.166 -23.833 47.499 -29.5s38.833 -8.5 61.5 -8.5c26.667 0 52.167 6.66699 76.5 20s45.666 32.666 63.999 57.999s33 56.166 44 92.499s16.5 77.833 16.5 124.5v657h168v-1077zM723.003 1202h-164l-90 162l-93 -162h-164l176 277h160z" />
    <glyph glyph-name="udieresis" unicode="&#xfc;" 
d="M811 0l-126.997 0.000976562l-22 125h-13c-30 -54 -67.5 -92.333 -112.5 -115s-94.167 -34 -147.5 -34c-40 0 -76.5 5.66699 -109.5 17s-61 29.833 -84 55.5s-40.833 59.167 -53.5 100.5s-19 92 -19 152v776h168v-764c0 -37.333 3.66699 -68.166 11 -92.499
s17.666 -43.5 30.999 -57.5s29.166 -23.833 47.499 -29.5s38.833 -8.5 61.5 -8.5c26.667 0 52.167 6.66699 76.5 20s45.666 32.666 63.999 57.999s33 56.166 44 92.499s16.5 77.833 16.5 124.5v657h168v-1077zM710.003 1286h-179v195h179v-195zM402.003 1286h-178v195h178
v-195z" />
    <glyph glyph-name="yacute" unicode="&#xfd;" horiz-adv-x="840" 
d="M547 55c-16 -58.667 -34.334 -114.001 -55.001 -166.001s-44.834 -97.333 -72.501 -136s-59.667 -69.334 -96 -92.001s-78.166 -34 -125.499 -34c-23.333 0 -44.833 1.16699 -64.5 3.5s-38.167 6.83301 -55.5 13.5v116h59c22.667 0 44.667 3.83301 66 11.5
s41.333 20.834 60 39.501s35.334 43.334 50.001 74.001s27 69 37 115l-330 1077h184l238 -835h8l201 835h171zM439.999 1210h-142l176 271h184l2 -7z" />
    <glyph glyph-name="thorn" unicode="&#xfe;" 
d="M291 983l7.99902 -1.99805c21.333 37.333 51.333 66.833 90 88.5s82 32.5 130 32.5c50.667 0 96.667 -11 138 -33s76.333 -56 105 -102s50.834 -104.5 66.501 -175.5s23.5 -155.833 23.5 -254.5c0 -98 -8.33301 -182.333 -25 -253s-39.5 -128.834 -68.5 -174.501
s-63 -79.334 -102 -101.001s-80.833 -32.5 -125.5 -32.5c-52.667 0 -99.5 10.333 -140.5 31s-70.833 50 -89.5 88h-10v-449h-168v1835h168v-498zM482.999 953.002c-64.667 0 -112.834 -31.333 -144.501 -94s-47.5 -156.334 -47.5 -281.001v-79
c0 -124 15.833 -217.333 47.5 -280s79.834 -94 144.501 -94c32 0 60.167 7 84.5 21s44.5 36 60.5 66s28 68.667 36 116s12 104.333 12 171v79c0 66.667 -4 123.834 -12 171.501s-20 86.5 -36 116.5s-36.167 52 -60.5 66s-52.5 21 -84.5 21z" />
    <glyph glyph-name="ydieresis" unicode="&#xff;" horiz-adv-x="840" 
d="M547 55c-16 -58.667 -34.334 -114.001 -55.001 -166.001s-44.834 -97.333 -72.501 -136s-59.667 -69.334 -96 -92.001s-78.166 -34 -125.499 -34c-23.333 0 -44.833 1.16699 -64.5 3.5s-38.167 6.83301 -55.5 13.5v116h59c22.667 0 44.667 3.83301 66 11.5
s41.333 20.834 60 39.501s35.334 43.334 50.001 74.001s27 69 37 115l-330 1077h184l238 -835h8l201 835h171zM662.999 1286h-179v195h179v-195zM354.999 1286h-178v195h178v-195z" />
    <glyph glyph-name="Amacron" unicode="&#x100;" horiz-adv-x="1120" 
d="M817 1554h-514v148h514v-148zM831 313h-557l-96 -313h-180l446 1405h232l446 -1405h-194zM324 477l456 -0.000976562l-190 625c-4 11.333 -7.83301 25.833 -11.5 43.5l-10.5 51.5c-3.33301 19.333 -7 39.333 -11 60h-8l-11 -61c-3.33301 -16.667 -7 -33.667 -11 -51
s-7.66699 -31.666 -11 -42.999z" />
    <glyph glyph-name="amacron" unicode="&#x101;" 
d="M457 1102c108.667 0 190 -26.499 244 -79.499s81 -127.167 81 -222.5v-604c0 -25.333 6 -43.5 18 -54.5s25.333 -16.5 40 -16.5h65v-117c-9.33301 -5.33301 -23.333 -10.666 -42 -15.999s-41.667 -8 -69 -8c-44 0 -80.667 12.167 -110 36.5s-49.333 56.5 -60 96.5h-10
c-28 -44.667 -64.5 -79.334 -109.5 -104.001s-95.833 -37 -152.5 -37c-18 0 -37.333 1.5 -58 4.5s-41.5 8.33301 -62.5 16s-41.333 18.667 -61 33s-37 32.666 -52 54.999s-27 49.5 -36 81.5s-13.5 69.667 -13.5 113c0 74 13.667 134.5 41 181.5s65.333 83.667 114 110
s106.334 44.333 173.001 54s139 14.5 217 14.5v139c0 26 -2.33301 49.667 -7 71s-13.334 39.666 -26.001 54.999s-30 27.333 -52 36s-50.333 13 -85 13c-32 0 -58.5 -5 -79.5 -15s-37.833 -23.167 -50.5 -39.5s-21.667 -34.666 -27 -54.999s-8 -40.833 -8 -61.5v-24h-166
c-1.33301 6 -2 12.333 -2 19v25c0 49.333 8.5 92.833 25.5 130.5s40.833 69 71.5 94s67.167 43.833 109.5 56.5s88.833 19 139.5 19zM614 489.001c-54.667 0 -104.498 -2.5 -149.498 -7.5s-83.667 -14.833 -116 -29.5s-57.5 -35 -75.5 -61s-27 -60 -27 -102
c0 -61.333 12.333 -104 37 -128s60.667 -36 108 -36c26.667 0 53.167 5.5 79.5 16.5s50.166 27.5 71.499 49.5s38.666 49.667 51.999 83s20 72.333 20 117v98zM724.002 1226h-513v148h513v-148z" />
    <glyph glyph-name="Abreve" unicode="&#x102;" horiz-adv-x="1120" 
d="M813 1808c0 -23.333 -5.83203 -46.666 -17.499 -69.999s-28.5 -44.5 -50.5 -63.5s-48.667 -34.5 -80 -46.5s-66.666 -18 -105.999 -18s-74.5 6 -105.5 18s-57.333 27.5 -79 46.5s-38.334 40.167 -50.001 63.5s-17.5 46.666 -17.5 69.999h131
c1.33301 -7.33301 5.33301 -14.833 12 -22.5s15.167 -14.834 25.5 -21.501s22.666 -12.167 36.999 -16.5s29.833 -6.5 46.5 -6.5c17.333 0 33.5 2.16699 48.5 6.5s27.833 9.83301 38.5 16.5s19.167 13.834 25.5 21.501s9.83301 15.167 10.5 22.5h131zM831.001 313h-557
l-96 -313h-180l446 1405h232l446 -1405h-194zM324.001 477l456 -0.000976562l-190 625c-4 11.333 -7.83301 25.833 -11.5 43.5l-10.5 51.5c-3.33301 19.333 -7 39.333 -11 60h-8l-11 -61c-3.33301 -16.667 -7 -33.667 -11 -51s-7.66699 -31.666 -11 -42.999z" />
    <glyph glyph-name="abreve" unicode="&#x103;" 
d="M457 1102c108.667 0 190 -26.499 244 -79.499s81 -127.167 81 -222.5v-604c0 -25.333 6 -43.5 18 -54.5s25.333 -16.5 40 -16.5h65v-117c-9.33301 -5.33301 -23.333 -10.666 -42 -15.999s-41.667 -8 -69 -8c-44 0 -80.667 12.167 -110 36.5s-49.333 56.5 -60 96.5h-10
c-28 -44.667 -64.5 -79.334 -109.5 -104.001s-95.833 -37 -152.5 -37c-18 0 -37.333 1.5 -58 4.5s-41.5 8.33301 -62.5 16s-41.333 18.667 -61 33s-37 32.666 -52 54.999s-27 49.5 -36 81.5s-13.5 69.667 -13.5 113c0 74 13.667 134.5 41 181.5s65.333 83.667 114 110
s106.334 44.333 173.001 54s139 14.5 217 14.5v139c0 26 -2.33301 49.667 -7 71s-13.334 39.666 -26.001 54.999s-30 27.333 -52 36s-50.333 13 -85 13c-32 0 -58.5 -5 -79.5 -15s-37.833 -23.167 -50.5 -39.5s-21.667 -34.666 -27 -54.999s-8 -40.833 -8 -61.5v-24h-166
c-1.33301 6 -2 12.333 -2 19v25c0 49.333 8.5 92.833 25.5 130.5s40.833 69 71.5 94s67.167 43.833 109.5 56.5s88.833 19 139.5 19zM614 489.001c-54.667 0 -104.498 -2.5 -149.498 -7.5s-83.667 -14.833 -116 -29.5s-57.5 -35 -75.5 -61s-27 -60 -27 -102
c0 -61.333 12.333 -104 37 -128s60.667 -36 108 -36c26.667 0 53.167 5.5 79.5 16.5s50.166 27.5 71.499 49.5s38.666 49.667 51.999 83s20 72.333 20 117v98zM721.002 1481c0 -23.333 -5.83301 -46.833 -17.5 -70.5s-28.5 -45 -50.5 -64s-48.667 -34.5 -80 -46.5
s-66.666 -18 -105.999 -18s-74.5 6 -105.5 18s-57.5 27.5 -79.5 46.5s-38.833 40.333 -50.5 64s-17.5 47.167 -17.5 70.5h132c1.33301 -7.33301 5.16602 -15 11.499 -23s14.833 -15.333 25.5 -22s23 -12.167 37 -16.5s29.667 -6.5 47 -6.5s33.333 2.16699 48 6.5
s27.334 9.83301 38.001 16.5s19.167 14 25.5 22s10.166 15.667 11.499 23h131z" />
    <glyph glyph-name="Aogonek" unicode="&#x104;" horiz-adv-x="1120" 
d="M1122 0l-60.9961 0.00195312c-11.333 -15.333 -22.333 -34.166 -33 -56.499s-16 -45.833 -16 -70.5c0 -14 1.66699 -27.833 5 -41.5s8.66602 -25.834 15.999 -36.501s17 -19.167 29 -25.5s26.667 -9.5 44 -9.5h63v-104c-21.333 -9.33301 -42.333 -16.5 -63 -21.5
s-41.334 -7.5 -62.001 -7.5c-22 0 -44.333 3 -67 9s-43.334 16.167 -62.001 30.5s-33.834 33.333 -45.501 57s-17.5 53.167 -17.5 88.5c0 43.333 7.33301 79.666 22 108.999s32.667 55.666 54 78.999l-97 313h-557l-96 -313h-180l446 1405h232zM549.004 1257l-11 -61.001
c-3.33301 -16.667 -7 -33.667 -11 -51s-7.66699 -31.666 -11 -42.999l-192 -625h456l-190 625c-4 11.333 -7.83301 25.833 -11.5 43.5l-10.5 51.5c-3.33301 19.333 -7 39.333 -11 60h-8z" />
    <glyph glyph-name="aogonek" unicode="&#x105;" 
d="M457 1102c108.667 0 190.002 -26.499 244.002 -79.499s81 -127.167 81 -222.5v-604c0 -25.333 6 -43.5 18 -54.5s25.333 -16.5 40 -16.5h65v-117c-2 -1.33301 -4.33301 -2.66602 -7 -3.99902s-5.66699 -2.66602 -9 -3.99902c-11.333 -15.333 -22.333 -34.166 -33 -56.499
s-16 -45.833 -16 -70.5c0 -14 1.66699 -27.833 5 -41.5s8.66602 -25.834 15.999 -36.501s16.833 -19.167 28.5 -25.5s26.167 -9.5 43.5 -9.5h65v-104c-21.333 -9.33301 -42.333 -16.5 -63 -21.5s-41.334 -7.5 -62.001 -7.5c-22 0 -44.5 3 -67.5 9s-43.667 16.167 -62 30.5
s-33.5 33.333 -45.5 57s-18 53.167 -18 88.5c0 40 6.33301 74 19 102s28.667 53.333 48 76c-31.333 7.33301 -57.5 22.166 -78.5 44.499s-35.833 49.833 -44.5 82.5h-10c-28 -44.667 -64.5 -79.334 -109.5 -104.001s-95.833 -37 -152.5 -37c-18 0 -37.333 1.5 -58 4.5
s-41.5 8.33301 -62.5 16s-41.333 18.667 -61 33s-37 32.666 -52 54.999s-27 49.5 -36 81.5s-13.5 69.667 -13.5 113c0 74 13.667 134.5 41 181.5s65.333 83.667 114 110s106.334 44.333 173.001 54s139 14.5 217 14.5v139c0 26 -2.33301 49.667 -7 71
s-13.334 39.666 -26.001 54.999s-30 27.333 -52 36s-50.333 13 -85 13c-32 0 -58.5 -5 -79.5 -15s-37.833 -23.167 -50.5 -39.5s-21.667 -34.666 -27 -54.999s-8 -40.833 -8 -61.5v-24h-166c-1.33301 6 -2 12.333 -2 19v25c0 49.333 8.5 92.833 25.5 130.5
s40.833 69 71.5 94s67.167 43.833 109.5 56.5s88.833 19 139.5 19zM614.002 489.001c-54.667 0 -104.498 -2.5 -149.498 -7.5s-83.667 -14.833 -116 -29.5s-57.5 -35 -75.5 -61s-27 -60 -27 -102c0 -61.333 12.333 -104 37 -128s60.667 -36 108 -36
c26.667 0 53.167 5.5 79.5 16.5s50.166 27.5 71.499 49.5s38.666 49.667 51.999 83s20 72.333 20 117v98z" />
    <glyph glyph-name="Cacute" unicode="&#x106;" horiz-adv-x="1212" 
d="M639 1430c71.333 0 137.002 -11 197.002 -33s111.667 -55 155 -99s77.166 -99.333 101.499 -166s36.5 -145 36.5 -235h-185c0 61.333 -7.16699 115 -21.5 161s-34.833 84.167 -61.5 114.5s-58.834 53.166 -96.501 68.499s-79.5 23 -125.5 23
c-123.333 0 -214.833 -42.167 -274.5 -126.5s-89.5 -212.166 -89.5 -383.499v-103c0 -172 29.833 -300 89.5 -384s151.167 -126 274.5 -126c47.333 0 90.166 7.5 128.499 22.5s71 37.5 98 67.5s47.833 67.667 62.5 113s22 98.333 22 159h179
c0 -90.667 -12.167 -169 -36.5 -235s-58.166 -120.667 -101.499 -164s-95 -75.5 -155 -96.5s-125.667 -31.5 -197 -31.5c-182 0 -319.667 60.167 -413 180.5s-140 302.5 -140 546.5c0 243.333 46.667 425.333 140 546s231 181 413 181zM656.002 1538h-142l176 271h184l2 -7z
" />
    <glyph glyph-name="cacute" unicode="&#x107;" horiz-adv-x="840" 
d="M442 1102c58.667 0 108.832 -9.16504 150.499 -27.498s75.834 -45.5 102.501 -81.5s46.167 -80.333 58.5 -133s18.5 -113.334 18.5 -182.001h-174c0 46.667 -2.5 87.167 -7.5 121.5s-13.5 62.833 -25.5 85.5s-28 39.667 -48 51s-45 17 -75 17
c-66.667 0 -115.334 -31.333 -146.001 -94s-46 -156.334 -46 -281.001v-79c0 -124 15 -217.333 45 -280s79 -94 147 -94c30 0 55.5 6 76.5 18s38 29.667 51 53s22.333 52 28 86s8.5 73.333 8.5 118h166c0 -56.667 -6 -110.5 -18 -161.5s-31.167 -96 -57.5 -135
s-60.5 -70 -102.5 -93s-92.667 -34.5 -152 -34.5c-63.333 0 -118.166 11.167 -164.499 33.5s-84.5 56.666 -114.5 102.999s-52.333 104.833 -67 175.5s-22 154.334 -22 251.001c0 192.667 29.833 334.667 89.5 426s152.5 137 278.5 137zM459.998 1210h-142l176 271h184l2 -7
z" />
    <glyph glyph-name="Ccircumflex" unicode="&#x108;" horiz-adv-x="1212" 
d="M639 1430c71.333 0 137.002 -11 197.002 -33s111.667 -55 155 -99s77.166 -99.333 101.499 -166s36.5 -145 36.5 -235h-185c0 61.333 -7.16699 115 -21.5 161s-34.833 84.167 -61.5 114.5s-58.834 53.166 -96.501 68.499s-79.5 23 -125.5 23
c-123.333 0 -214.833 -42.167 -274.5 -126.5s-89.5 -212.166 -89.5 -383.499v-103c0 -172 29.833 -300 89.5 -384s151.167 -126 274.5 -126c47.333 0 90.166 7.5 128.499 22.5s71 37.5 98 67.5s47.833 67.667 62.5 113s22 98.333 22 159h179
c0 -90.667 -12.167 -169 -36.5 -235s-58.166 -120.667 -101.499 -164s-95 -75.5 -155 -96.5s-125.667 -31.5 -197 -31.5c-182 0 -319.667 60.167 -413 180.5s-140 302.5 -140 546.5c0 243.333 46.667 425.333 140 546s231 181 413 181zM862.002 1530h-164l-90 162l-93 -162
h-164l176 277h160z" />
    <glyph glyph-name="ccircumflex" unicode="&#x109;" horiz-adv-x="840" 
d="M442 1102c58.667 0 108.832 -9.16504 150.499 -27.498s75.834 -45.5 102.501 -81.5s46.167 -80.333 58.5 -133s18.5 -113.334 18.5 -182.001h-174c0 46.667 -2.5 87.167 -7.5 121.5s-13.5 62.833 -25.5 85.5s-28 39.667 -48 51s-45 17 -75 17
c-66.667 0 -115.334 -31.333 -146.001 -94s-46 -156.334 -46 -281.001v-79c0 -124 15 -217.333 45 -280s79 -94 147 -94c30 0 55.5 6 76.5 18s38 29.667 51 53s22.333 52 28 86s8.5 73.333 8.5 118h166c0 -56.667 -6 -110.5 -18 -161.5s-31.167 -96 -57.5 -135
s-60.5 -70 -102.5 -93s-92.667 -34.5 -152 -34.5c-63.333 0 -118.166 11.167 -164.499 33.5s-84.5 56.666 -114.5 102.999s-52.333 104.833 -67 175.5s-22 154.334 -22 251.001c0 192.667 29.833 334.667 89.5 426s152.5 137 278.5 137zM675.998 1202h-164l-90 162l-93 -162
h-164l176 277h160z" />
    <glyph glyph-name="Cdotaccent" unicode="&#x10a;" horiz-adv-x="1212" 
d="M639 1430c71.333 0 137.002 -11 197.002 -33s111.667 -55 155 -99s77.166 -99.333 101.499 -166s36.5 -145 36.5 -235h-185c0 61.333 -7.16699 115 -21.5 161s-34.833 84.167 -61.5 114.5s-58.834 53.166 -96.501 68.499s-79.5 23 -125.5 23
c-123.333 0 -214.833 -42.167 -274.5 -126.5s-89.5 -212.166 -89.5 -383.499v-103c0 -172 29.833 -300 89.5 -384s151.167 -126 274.5 -126c47.333 0 90.166 7.5 128.499 22.5s71 37.5 98 67.5s47.833 67.667 62.5 113s22 98.333 22 159h179
c0 -90.667 -12.167 -169 -36.5 -235s-58.166 -120.667 -101.499 -164s-95 -75.5 -155 -96.5s-125.667 -31.5 -197 -31.5c-182 0 -319.667 60.167 -413 180.5s-140 302.5 -140 546.5c0 243.333 46.667 425.333 140 546s231 181 413 181zM696.002 1614h-179v195h179v-195z" />
    <glyph glyph-name="cdotaccent" unicode="&#x10b;" horiz-adv-x="840" 
d="M442 1102c58.667 0 108.832 -9.16504 150.499 -27.498s75.834 -45.5 102.501 -81.5s46.167 -80.333 58.5 -133s18.5 -113.334 18.5 -182.001h-174c0 46.667 -2.5 87.167 -7.5 121.5s-13.5 62.833 -25.5 85.5s-28 39.667 -48 51s-45 17 -75 17
c-66.667 0 -115.334 -31.333 -146.001 -94s-46 -156.334 -46 -281.001v-79c0 -124 15 -217.333 45 -280s79 -94 147 -94c30 0 55.5 6 76.5 18s38 29.667 51 53s22.333 52 28 86s8.5 73.333 8.5 118h166c0 -56.667 -6 -110.5 -18 -161.5s-31.167 -96 -57.5 -135
s-60.5 -70 -102.5 -93s-92.667 -34.5 -152 -34.5c-63.333 0 -118.166 11.167 -164.499 33.5s-84.5 56.666 -114.5 102.999s-52.333 104.833 -67 175.5s-22 154.334 -22 251.001c0 192.667 29.833 334.667 89.5 426s152.5 137 278.5 137zM509.998 1286h-179v195h179v-195z
" />
    <glyph glyph-name="Ccaron" unicode="&#x10c;" horiz-adv-x="1212" 
d="M639 1430c71.333 0 137.002 -11 197.002 -33s111.667 -55 155 -99s77.166 -99.333 101.499 -166s36.5 -145 36.5 -235h-185c0 61.333 -7.16699 115 -21.5 161s-34.833 84.167 -61.5 114.5s-58.834 53.166 -96.501 68.499s-79.5 23 -125.5 23
c-123.333 0 -214.833 -42.167 -274.5 -126.5s-89.5 -212.166 -89.5 -383.499v-103c0 -172 29.833 -300 89.5 -384s151.167 -126 274.5 -126c47.333 0 90.166 7.5 128.499 22.5s71 37.5 98 67.5s47.833 67.667 62.5 113s22 98.333 22 159h179
c0 -90.667 -12.167 -169 -36.5 -235s-58.166 -120.667 -101.499 -164s-95 -75.5 -155 -96.5s-125.667 -31.5 -197 -31.5c-182 0 -319.667 60.167 -413 180.5s-140 302.5 -140 546.5c0 243.333 46.667 425.333 140 546s231 181 413 181zM685.002 1532h-160l-174 277h164
l91 -162l92 162h164z" />
    <glyph glyph-name="ccaron" unicode="&#x10d;" horiz-adv-x="840" 
d="M442 1102c58.667 0 108.832 -9.16504 150.499 -27.498s75.834 -45.5 102.501 -81.5s46.167 -80.333 58.5 -133s18.5 -113.334 18.5 -182.001h-174c0 46.667 -2.5 87.167 -7.5 121.5s-13.5 62.833 -25.5 85.5s-28 39.667 -48 51s-45 17 -75 17
c-66.667 0 -115.334 -31.333 -146.001 -94s-46 -156.334 -46 -281.001v-79c0 -124 15 -217.333 45 -280s79 -94 147 -94c30 0 55.5 6 76.5 18s38 29.667 51 53s22.333 52 28 86s8.5 73.333 8.5 118h166c0 -56.667 -6 -110.5 -18 -161.5s-31.167 -96 -57.5 -135
s-60.5 -70 -102.5 -93s-92.667 -34.5 -152 -34.5c-63.333 0 -118.166 11.167 -164.499 33.5s-84.5 56.666 -114.5 102.999s-52.333 104.833 -67 175.5s-22 154.334 -22 251.001c0 192.667 29.833 334.667 89.5 426s152.5 137 278.5 137zM498.998 1204h-160l-174 277h164
l91 -162l92 162h164z" />
    <glyph glyph-name="Dcaron" unicode="&#x10e;" horiz-adv-x="1212" 
d="M684 1532h-160l-174 276h164l92 -161l92 161h164zM143 0v1405h437c82.667 0 156.834 -14.333 222.501 -43s121.5 -71.5 167.5 -128.5s81.167 -128 105.5 -213s36.5 -184.167 36.5 -297.5c0 -120 -12.167 -225.167 -36.5 -315.5s-59.5 -165.666 -105.5 -225.999
s-101.833 -105.666 -167.5 -135.999s-139.834 -45.5 -222.501 -45.5h-437zM324 1241v-1077h239c55.333 0 105.166 10.5 149.499 31.5s82.166 52.5 113.499 94.5s55.5 94.833 72.5 158.5s25.5 138.167 25.5 223.5v102c0 78 -8.5 146.333 -25.5 205
s-41.167 107.334 -72.5 146.001s-69.166 67.667 -113.499 87s-94.166 29 -149.499 29h-239z" />
    <glyph glyph-name="dcaron" unicode="&#x10f;" horiz-adv-x="1032" 
d="M811 0l-127.001 -0.000976562l-22 125h-11c-25.333 -50 -58.333 -87.333 -99 -112s-86 -37 -136 -37c-51.333 0 -97.666 10.833 -138.999 32.5s-76.5 55.5 -105.5 101.5s-51.167 104.5 -66.5 175.5s-23 156.167 -23 255.5c0 97.333 8.5 181.333 25.5 252
s40 128.834 69 174.501s63 79.5 102 101.5s80.833 33 125.5 33c52 0 98.5 -11.167 139.5 -33.5s70.833 -53.5 89.5 -93.5h10v506h168v-1481zM449.999 952.999c-32 0 -60 -6.99902 -84 -20.999s-44 -36 -60 -66s-28 -68.833 -36 -116.5s-12 -104.834 -12 -171.501v-79
c0 -66.667 4 -123.667 12 -171s20 -86 36 -116s36 -52 60 -66s52 -21 84 -21c65.333 0 113.833 31.333 145.5 94s47.5 156 47.5 280v70c0 256 -64.333 384 -193 384zM1097 1202l-99 -273h-106l82 255h-82v221h205v-203z" />
    <glyph glyph-name="Dcroat" unicode="&#x110;" horiz-adv-x="1212" 
d="M10 793l133 -0.00195312v612h437c82.667 0 156.834 -14.333 222.501 -43s121.5 -71.5 167.5 -128.5s81.167 -128 105.5 -213s36.5 -184.167 36.5 -297.5c0 -120 -12.167 -225.167 -36.5 -315.5s-59.5 -165.666 -105.5 -225.999s-101.833 -105.666 -167.5 -135.999
s-139.834 -45.5 -222.501 -45.5h-437v662h-133v131zM324 1241v-448.001h321v-131h-321v-498h239c55.333 0 105.166 10.5 149.499 31.5s82.166 52.5 113.499 94.5s55.5 94.833 72.5 158.5s25.5 138.167 25.5 223.5v102c0 78 -8.5 146.333 -25.5 205
s-41.167 107.334 -72.5 146.001s-69.166 67.667 -113.499 87s-94.166 29 -149.499 29h-239z" />
    <glyph glyph-name="dcroat" unicode="&#x111;" horiz-adv-x="928" 
d="M811 1333l117.999 -0.000976562v-138h-118v-1195h-127l-22 125h-11c-25.333 -50 -58.333 -87.333 -99 -112s-86 -37 -136 -37c-51.333 0 -97.666 10.833 -138.999 32.5s-76.5 55.5 -105.5 101.5s-51.167 104.5 -66.5 175.5s-23 156.167 -23 255.5
c0 97.333 8.5 181.333 25.5 252s40 128.834 69 174.501s63 79.5 102 101.5s80.833 33 125.5 33c52 0 98.5 -11.167 139.5 -33.5s70.833 -53.5 89.5 -93.5h10v220h-227v138h227v148h168v-148zM449.999 952.999c-32 0 -60 -6.99902 -84 -20.999s-44 -36 -60 -66
s-28 -68.833 -36 -116.5s-12 -104.834 -12 -171.501v-79c0 -66.667 4 -123.667 12 -171s20 -86 36 -116s36 -52 60 -66s52 -21 84 -21c65.333 0 113.833 31.333 145.5 94s47.5 156 47.5 280v70c0 256 -64.333 384 -193 384z" />
    <glyph glyph-name="Emacron" unicode="&#x112;" horiz-adv-x="1120" 
d="M817 1554h-514v148h514v-148zM143 0v1405h867v-164h-686v-440h596v-164h-596v-473h698v-164h-879z" />
    <glyph glyph-name="emacron" unicode="&#x113;" 
d="M491 1102c58.667 0 110.334 -9.5 155.001 -28.5s81.667 -48.833 111 -89.5s51.5 -93 66.5 -157s22.5 -141 22.5 -231v-107h-584c0.666992 -125.333 20.167 -217.333 58.5 -276s97.166 -88 176.499 -88c26.667 0 51.167 5.5 73.5 16.5s41.666 27 57.999 48
s29 46.5 38 76.5s13.5 63.667 13.5 101h166c0 -60.667 -8.5 -115.167 -25.5 -163.5s-41 -89.333 -72 -123s-68.167 -59.5 -111.5 -77.5s-91.333 -27 -144 -27c-66.667 0 -125.334 10.5 -176.001 31.5s-93.167 54.333 -127.5 100s-60.166 104 -77.499 175
s-26 156.5 -26 256.5c0 192.667 33.833 334.667 101.5 426s168.834 137 303.501 137zM491 953c-37.333 0 -69.5 -6.66797 -96.5 -20.001s-49.5 -33.166 -67.5 -59.499s-32 -59 -42 -98s-17 -84.5 -21 -136.5h406c0 103.333 -15.167 181.5 -45.5 234.5
s-74.833 79.5 -133.5 79.5zM724 1226h-513v148h513v-148z" />
    <glyph glyph-name="Ebreve" unicode="&#x114;" horiz-adv-x="1120" 
d="M813 1808c0 -23.333 -5.83203 -46.666 -17.499 -69.999s-28.5 -44.5 -50.5 -63.5s-48.667 -34.5 -80 -46.5s-66.666 -18 -105.999 -18s-74.5 6 -105.5 18s-57.333 27.5 -79 46.5s-38.334 40.167 -50.001 63.5s-17.5 46.666 -17.5 69.999h131
c1.33301 -7.33301 5.33301 -14.833 12 -22.5s15.167 -14.834 25.5 -21.501s22.666 -12.167 36.999 -16.5s29.833 -6.5 46.5 -6.5c17.333 0 33.5 2.16699 48.5 6.5s27.833 9.83301 38.5 16.5s19.167 13.834 25.5 21.501s9.83301 15.167 10.5 22.5h131zM143.001 0v1405h867
v-164h-686v-440h596v-164h-596v-473h698v-164h-879z" />
    <glyph glyph-name="ebreve" unicode="&#x115;" 
d="M491 1102c58.667 0 110.334 -9.5 155.001 -28.5s81.667 -48.833 111 -89.5s51.5 -93 66.5 -157s22.5 -141 22.5 -231v-107h-584c0.666992 -125.333 20.167 -217.333 58.5 -276s97.166 -88 176.499 -88c26.667 0 51.167 5.5 73.5 16.5s41.666 27 57.999 48
s29 46.5 38 76.5s13.5 63.667 13.5 101h166c0 -60.667 -8.5 -115.167 -25.5 -163.5s-41 -89.333 -72 -123s-68.167 -59.5 -111.5 -77.5s-91.333 -27 -144 -27c-66.667 0 -125.334 10.5 -176.001 31.5s-93.167 54.333 -127.5 100s-60.166 104 -77.499 175
s-26 156.5 -26 256.5c0 192.667 33.833 334.667 101.5 426s168.834 137 303.501 137zM491 953c-37.333 0 -69.5 -6.66797 -96.5 -20.001s-49.5 -33.166 -67.5 -59.499s-32 -59 -42 -98s-17 -84.5 -21 -136.5h406c0 103.333 -15.167 181.5 -45.5 234.5
s-74.833 79.5 -133.5 79.5zM721 1481c0 -23.333 -5.83301 -46.833 -17.5 -70.5s-28.5 -45 -50.5 -64s-48.667 -34.5 -80 -46.5s-66.666 -18 -105.999 -18s-74.5 6 -105.5 18s-57.5 27.5 -79.5 46.5s-38.833 40.333 -50.5 64s-17.5 47.167 -17.5 70.5h132
c1.33301 -7.33301 5.16602 -15 11.499 -23s14.833 -15.333 25.5 -22s23 -12.167 37 -16.5s29.667 -6.5 47 -6.5s33.333 2.16699 48 6.5s27.334 9.83301 38.001 16.5s19.167 14 25.5 22s10.166 15.667 11.499 23h131z" />
    <glyph glyph-name="Edotaccent" unicode="&#x116;" horiz-adv-x="1120" 
d="M649 1614h-178v194h178v-194zM143 0v1405h867v-164h-686v-440h596v-164h-596v-473h698v-164h-879z" />
    <glyph glyph-name="edotaccent" unicode="&#x117;" 
d="M491 1102c58.667 0 110.334 -9.5 155.001 -28.5s81.667 -48.833 111 -89.5s51.5 -93 66.5 -157s22.5 -141 22.5 -231v-107h-584c0.666992 -125.333 20.167 -217.333 58.5 -276s97.166 -88 176.499 -88c26.667 0 51.167 5.5 73.5 16.5s41.666 27 57.999 48
s29 46.5 38 76.5s13.5 63.667 13.5 101h166c0 -60.667 -8.5 -115.167 -25.5 -163.5s-41 -89.333 -72 -123s-68.167 -59.5 -111.5 -77.5s-91.333 -27 -144 -27c-66.667 0 -125.334 10.5 -176.001 31.5s-93.167 54.333 -127.5 100s-60.166 104 -77.499 175
s-26 156.5 -26 256.5c0 192.667 33.833 334.667 101.5 426s168.834 137 303.501 137zM491 953c-37.333 0 -69.5 -6.66797 -96.5 -20.001s-49.5 -33.166 -67.5 -59.499s-32 -59 -42 -98s-17 -84.5 -21 -136.5h406c0 103.333 -15.167 181.5 -45.5 234.5
s-74.833 79.5 -133.5 79.5zM557 1286h-179v195h179v-195z" />
    <glyph glyph-name="Eogonek" unicode="&#x118;" horiz-adv-x="1120" 
d="M1010 1241l-686 0.00195312v-440h596v-164h-596v-473h698v-164c-11.333 -15.333 -22.333 -34.166 -33 -56.499s-16 -45.833 -16 -70.5c0 -14 1.66699 -27.833 5 -41.5s8.66602 -25.834 15.999 -36.501s17 -19.167 29 -25.5s26.667 -9.5 44 -9.5h63v-104
c-21.333 -9.33301 -42.166 -16.5 -62.499 -21.5s-40.833 -7.5 -61.5 -7.5c-22 0 -44.5 3 -67.5 9s-43.667 16.167 -62 30.5s-33.5 33.333 -45.5 57s-18 53.167 -18 88.5c0 43.333 7.33301 79.666 22 108.999s32.667 55.666 54 78.999h-746v1405h867v-164z" />
    <glyph glyph-name="eogonek" unicode="&#x119;" 
d="M491 1102c58.667 0 110.337 -9.49902 155.004 -28.499s81.667 -48.833 111 -89.5s51.5 -93 66.5 -157s22.5 -141 22.5 -231v-107h-584c0.666992 -125.333 20.167 -217.333 58.5 -276s97.166 -88 176.499 -88c26.667 0 51.167 5.5 73.5 16.5s41.666 27 57.999 48
s29 46.5 38 76.5s13.5 63.667 13.5 101h166c0 -85.333 -16.333 -157.833 -49 -217.5s-77.334 -104.5 -134.001 -134.5c-6 -7.33301 -12.667 -16 -20 -26s-14 -21.167 -20 -33.5s-11 -25.5 -15 -39.5s-6 -28.333 -6 -43c0 -14 1.66699 -27.833 5 -41.5
s8.66602 -25.834 15.999 -36.501s16.833 -19.167 28.5 -25.5s26.167 -9.5 43.5 -9.5h65v-104c-21.333 -9.33301 -42.333 -16.5 -63 -21.5s-41.334 -7.5 -62.001 -7.5c-22 0 -44.5 3 -67.5 9s-43.667 16.167 -62 30.5s-33.5 33.333 -45.5 57s-18 53.167 -18 88.5
c0 36 5.16699 67 15.5 93s23.833 49.667 40.5 71h-5c-66.667 0 -125.334 10.5 -176.001 31.5s-93.167 54.333 -127.5 100s-60.166 104 -77.499 175s-26 156.5 -26 256.5c0 192.667 33.833 334.667 101.5 426s168.834 137 303.501 137zM491.003 953.001
c-37.333 0 -69.5 -6.66797 -96.5 -20.001s-49.5 -33.166 -67.5 -59.499s-32 -59 -42 -98s-17 -84.5 -21 -136.5h406c0 103.333 -15.167 181.5 -45.5 234.5s-74.833 79.5 -133.5 79.5z" />
    <glyph glyph-name="Ecaron" unicode="&#x11a;" horiz-adv-x="1120" 
d="M639 1532h-160l-174 276h164l90 -161l92 161h164zM143 0v1405h867v-164h-686v-440h596v-164h-596v-473h698v-164h-879z" />
    <glyph glyph-name="ecaron" unicode="&#x11b;" 
d="M491 1102c58.667 0 110.334 -9.5 155.001 -28.5s81.667 -48.833 111 -89.5s51.5 -93 66.5 -157s22.5 -141 22.5 -231v-107h-584c0.666992 -125.333 20.167 -217.333 58.5 -276s97.166 -88 176.499 -88c26.667 0 51.167 5.5 73.5 16.5s41.666 27 57.999 48
s29 46.5 38 76.5s13.5 63.667 13.5 101h166c0 -60.667 -8.5 -115.167 -25.5 -163.5s-41 -89.333 -72 -123s-68.167 -59.5 -111.5 -77.5s-91.333 -27 -144 -27c-66.667 0 -125.334 10.5 -176.001 31.5s-93.167 54.333 -127.5 100s-60.166 104 -77.499 175
s-26 156.5 -26 256.5c0 192.667 33.833 334.667 101.5 426s168.834 137 303.501 137zM491 953c-37.333 0 -69.5 -6.66797 -96.5 -20.001s-49.5 -33.166 -67.5 -59.499s-32 -59 -42 -98s-17 -84.5 -21 -136.5h406c0 103.333 -15.167 181.5 -45.5 234.5
s-74.833 79.5 -133.5 79.5zM546 1204h-160l-174 277h164l91 -162l92 162h164z" />
    <glyph glyph-name="Gcircumflex" unicode="&#x11c;" horiz-adv-x="1307" 
d="M909 1530h-164l-90 162l-92 -162h-164l176 276h160zM1016 156c-43.333 -64 -95.5029 -110.169 -156.503 -138.502s-129.833 -42.5 -206.5 -42.5c-88.667 0 -167.334 15 -236.001 45s-126.5 75.333 -173.5 136s-82.667 136.334 -107 227.001s-36.5 197 -36.5 319
s13 228.5 39 319.5s63.167 166.833 111.5 227.5s107.333 106 177 136s148.5 45 236.5 45c72.667 0 140.167 -10.333 202.5 -31s116.333 -51.834 162 -93.501s81.334 -94.167 107.001 -157.5s38.5 -137.333 38.5 -222h-185c0 58 -8 108.333 -24 151
s-38.167 77.834 -66.5 105.501s-62.5 48.167 -102.5 61.5s-84 20 -132 20c-58 0 -110.167 -10.5 -156.5 -31.5s-85.666 -52.667 -117.999 -95s-57.166 -95.5 -74.499 -159.5s-26 -138.667 -26 -224v-103c0 -171.333 31.333 -299.166 94 -383.499s152.667 -126.5 270 -126.5
c116.667 0 201.834 33 255.501 99s80.5 166.333 80.5 301v32h-364v158h549v-731h-119z" />
    <glyph glyph-name="gcircumflex" unicode="&#x11d;" 
d="M893 1252c0 -32 -4.00195 -62.167 -12.002 -90.5s-19.833 -53.833 -35.5 -76.5s-34.667 -41.834 -57 -57.501s-47.5 -27.167 -75.5 -34.5c30 -31.333 53.5 -68 70.5 -110s25.5 -90 25.5 -144c0 -55.333 -8.16699 -105.333 -24.5 -150s-39.5 -82.5 -69.5 -113.5
s-66.167 -55 -108.5 -72s-89.5 -25.833 -141.5 -26.5h-113c-14 0 -26.833 -2.5 -38.5 -7.5s-22 -11.833 -31 -20.5s-16 -18.834 -21 -30.501s-7.5 -24.167 -7.5 -37.5s2.66699 -25.833 8 -37.5s12.5 -22 21.5 -31s19.333 -16 31 -21s24.167 -7.5 37.5 -7.5h308
c38.667 0 73.667 -6.66699 105 -20s58 -31.5 80 -54.5s38.833 -49.667 50.5 -80s17.5 -62.5 17.5 -96.5c0 -42.667 -6.83301 -82.667 -20.5 -120s-33.834 -69.666 -60.501 -96.999s-59.667 -49 -99 -65s-84.333 -24 -135 -24h-305c-44 0 -82.667 6.66699 -116 20
s-61.166 31.666 -83.499 54.999s-39.166 50.5 -50.499 81.5s-17 64.167 -17 99.5c0 26 3.33301 51.167 10 75.5s16 46.5 28 66.5s26.667 37.667 44 53s36.666 27 57.999 35c-28 17.333 -49.667 40.5 -65 69.5s-23 59.833 -23 92.5c0 44 13.833 81.833 41.5 113.5
s64.5 55.834 110.5 72.501c-39.333 32 -70 71.167 -92 117.5s-33 99.833 -33 160.5c0 56.667 8 107.334 24 152.001s39.167 82.667 69.5 114s67.333 55.333 111 72s92.834 25 147.501 25c27.333 0 54.333 -3.5 81 -10.5s51.334 -16.5 74.001 -28.5
c26 12.667 48 25.167 66 37.5s32.5 25.666 43.5 39.999s19.167 30.333 24.5 48s8.33301 38.834 9 63.501h138zM318.998 24c-21.333 0 -39.832 -3.16699 -55.499 -9.5s-28.667 -15.166 -39 -26.499s-18 -24.666 -23 -39.999s-7.5 -31.666 -7.5 -48.999
s2.66699 -33.666 8 -48.999s13.166 -28.833 23.499 -40.5s23.333 -20.834 39 -27.501s33.834 -10 54.501 -10h297c18 0 34.667 3.33301 50 10s28.833 15.834 40.5 27.501s20.667 25.167 27 40.5s9.5 31.666 9.5 48.999s-2.5 33.666 -7.5 48.999s-12.833 28.666 -23.5 39.999
s-23.834 20.166 -39.501 26.499s-34.5 9.5 -56.5 9.5h-297zM454.999 963c-60 0 -105.333 -20.001 -136 -60.001s-46 -94.667 -46 -164c0 -72 15.333 -127 46 -165s76 -57 136 -57s105.667 19.833 137 59.5s47 93.834 47 162.501c0 72.667 -15.667 128.167 -47 166.5
s-77 57.5 -137 57.5zM722.999 1202h-164l-90 162l-93 -162h-164l176 277h160z" />
    <glyph glyph-name="Gbreve" unicode="&#x11e;" horiz-adv-x="1307" 
d="M907 1808c0 -23.333 -5.83398 -46.666 -17.501 -69.999s-28.5 -44.5 -50.5 -63.5s-48.667 -34.5 -80 -46.5s-66.666 -18 -105.999 -18c-38.667 0 -73.5 6 -104.5 18s-57.5 27.5 -79.5 46.5s-38.833 40.167 -50.5 63.5s-17.5 46.666 -17.5 69.999h131
c2 -7.33301 6.16699 -14.833 12.5 -22.5s14.833 -14.834 25.5 -21.501s23 -12.167 37 -16.5s29.333 -6.5 46 -6.5c17.333 0 33.333 2.16699 48 6.5s27.334 9.83301 38.001 16.5s19.167 13.834 25.5 21.501s10.166 15.167 11.499 22.5h131zM1016 156
c-43.333 -64 -95.5029 -110.169 -156.503 -138.502s-129.833 -42.5 -206.5 -42.5c-88.667 0 -167.334 15 -236.001 45s-126.5 75.333 -173.5 136s-82.667 136.334 -107 227.001s-36.5 197 -36.5 319s13 228.5 39 319.5s63.167 166.833 111.5 227.5s107.333 106 177 136
s148.5 45 236.5 45c72.667 0 140.167 -10.333 202.5 -31s116.333 -51.834 162 -93.501s81.334 -94.167 107.001 -157.5s38.5 -137.333 38.5 -222h-185c0 58 -8 108.333 -24 151s-38.167 77.834 -66.5 105.501s-62.5 48.167 -102.5 61.5s-84 20 -132 20
c-58 0 -110.167 -10.5 -156.5 -31.5s-85.666 -52.667 -117.999 -95s-57.166 -95.5 -74.499 -159.5s-26 -138.667 -26 -224v-103c0 -171.333 31.333 -299.166 94 -383.499s152.667 -126.5 270 -126.5c116.667 0 201.834 33 255.501 99s80.5 166.333 80.5 301v32h-364v158h549
v-731h-119z" />
    <glyph glyph-name="gbreve" unicode="&#x11f;" 
d="M893 1252c0 -32 -4.00195 -62.167 -12.002 -90.5s-19.833 -53.833 -35.5 -76.5s-34.667 -41.834 -57 -57.501s-47.5 -27.167 -75.5 -34.5c30 -31.333 53.5 -68 70.5 -110s25.5 -90 25.5 -144c0 -55.333 -8.16699 -105.333 -24.5 -150s-39.5 -82.5 -69.5 -113.5
s-66.167 -55 -108.5 -72s-89.5 -25.833 -141.5 -26.5h-113c-14 0 -26.833 -2.5 -38.5 -7.5s-22 -11.833 -31 -20.5s-16 -18.834 -21 -30.501s-7.5 -24.167 -7.5 -37.5s2.66699 -25.833 8 -37.5s12.5 -22 21.5 -31s19.333 -16 31 -21s24.167 -7.5 37.5 -7.5h308
c38.667 0 73.667 -6.66699 105 -20s58 -31.5 80 -54.5s38.833 -49.667 50.5 -80s17.5 -62.5 17.5 -96.5c0 -42.667 -6.83301 -82.667 -20.5 -120s-33.834 -69.666 -60.501 -96.999s-59.667 -49 -99 -65s-84.333 -24 -135 -24h-305c-44 0 -82.667 6.66699 -116 20
s-61.166 31.666 -83.499 54.999s-39.166 50.5 -50.499 81.5s-17 64.167 -17 99.5c0 26 3.33301 51.167 10 75.5s16 46.5 28 66.5s26.667 37.667 44 53s36.666 27 57.999 35c-28 17.333 -49.667 40.5 -65 69.5s-23 59.833 -23 92.5c0 44 13.833 81.833 41.5 113.5
s64.5 55.834 110.5 72.501c-39.333 32 -70 71.167 -92 117.5s-33 99.833 -33 160.5c0 56.667 8 107.334 24 152.001s39.167 82.667 69.5 114s67.333 55.333 111 72s92.834 25 147.501 25c27.333 0 54.333 -3.5 81 -10.5s51.334 -16.5 74.001 -28.5
c24 12.667 44 26.5 60 41.5s29 30.667 39 47s17.5 32.833 22.5 49.5s8.83301 33.667 11.5 51h148zM318.998 24c-21.333 0 -39.832 -3.16699 -55.499 -9.5s-28.667 -15.166 -39 -26.499s-18 -24.666 -23 -39.999s-7.5 -31.666 -7.5 -48.999s2.66699 -33.666 8 -48.999
s13.166 -28.833 23.499 -40.5s23.333 -20.834 39 -27.501s33.834 -10 54.501 -10h297c18 0 34.667 3.33301 50 10s28.833 15.834 40.5 27.501s20.667 25.167 27 40.5s9.5 31.666 9.5 48.999s-2.5 33.666 -7.5 48.999s-12.833 28.666 -23.5 39.999
s-23.834 20.166 -39.501 26.499s-34.5 9.5 -56.5 9.5h-297zM454.999 963c-60 0 -105.333 -20.001 -136 -60.001s-46 -94.667 -46 -164c0 -72 15.333 -127 46 -165s76 -57 136 -57s105.667 19.833 137 59.5s47 93.834 47 162.501c0 72.667 -15.667 128.167 -47 166.5
s-77 57.5 -137 57.5zM720.999 1481c0 -23.333 -5.83301 -46.833 -17.5 -70.5s-28.5 -45 -50.5 -64s-48.667 -34.5 -80 -46.5s-66.666 -18 -105.999 -18s-74.5 6 -105.5 18s-57.5 27.5 -79.5 46.5s-38.833 40.333 -50.5 64s-17.5 47.167 -17.5 70.5h132
c1.33301 -7.33301 5.16602 -15 11.499 -23s14.833 -15.333 25.5 -22s23 -12.167 37 -16.5s29.667 -6.5 47 -6.5s33.333 2.16699 48 6.5s27.334 9.83301 38.001 16.5s19.167 14 25.5 22s10.166 15.667 11.499 23h131z" />
    <glyph glyph-name="Gdotaccent" unicode="&#x120;" horiz-adv-x="1307" 
d="M743 1614h-178v194h178v-194zM1016 156c-43.333 -64 -95.5029 -110.169 -156.503 -138.502s-129.833 -42.5 -206.5 -42.5c-88.667 0 -167.334 15 -236.001 45s-126.5 75.333 -173.5 136s-82.667 136.334 -107 227.001s-36.5 197 -36.5 319s13 228.5 39 319.5
s63.167 166.833 111.5 227.5s107.333 106 177 136s148.5 45 236.5 45c72.667 0 140.167 -10.333 202.5 -31s116.333 -51.834 162 -93.501s81.334 -94.167 107.001 -157.5s38.5 -137.333 38.5 -222h-185c0 58 -8 108.333 -24 151s-38.167 77.834 -66.5 105.501
s-62.5 48.167 -102.5 61.5s-84 20 -132 20c-58 0 -110.167 -10.5 -156.5 -31.5s-85.666 -52.667 -117.999 -95s-57.166 -95.5 -74.499 -159.5s-26 -138.667 -26 -224v-103c0 -171.333 31.333 -299.166 94 -383.499s152.667 -126.5 270 -126.5
c116.667 0 201.834 33 255.501 99s80.5 166.333 80.5 301v32h-364v158h549v-731h-119z" />
    <glyph glyph-name="gdotaccent" unicode="&#x121;" 
d="M893 1252c0 -32 -4.00195 -62.167 -12.002 -90.5s-19.833 -53.833 -35.5 -76.5s-34.667 -41.834 -57 -57.501s-47.5 -27.167 -75.5 -34.5c30 -31.333 53.5 -68 70.5 -110s25.5 -90 25.5 -144c0 -55.333 -8.16699 -105.333 -24.5 -150s-39.5 -82.5 -69.5 -113.5
s-66.167 -55 -108.5 -72s-89.5 -25.833 -141.5 -26.5h-113c-14 0 -26.833 -2.5 -38.5 -7.5s-22 -11.833 -31 -20.5s-16 -18.834 -21 -30.501s-7.5 -24.167 -7.5 -37.5s2.66699 -25.833 8 -37.5s12.5 -22 21.5 -31s19.333 -16 31 -21s24.167 -7.5 37.5 -7.5h308
c38.667 0 73.667 -6.66699 105 -20s58 -31.5 80 -54.5s38.833 -49.667 50.5 -80s17.5 -62.5 17.5 -96.5c0 -42.667 -6.83301 -82.667 -20.5 -120s-33.834 -69.666 -60.501 -96.999s-59.667 -49 -99 -65s-84.333 -24 -135 -24h-305c-44 0 -82.667 6.66699 -116 20
s-61.166 31.666 -83.499 54.999s-39.166 50.5 -50.499 81.5s-17 64.167 -17 99.5c0 26 3.33301 51.167 10 75.5s16 46.5 28 66.5s26.667 37.667 44 53s36.666 27 57.999 35c-28 17.333 -49.667 40.5 -65 69.5s-23 59.833 -23 92.5c0 44 13.833 81.833 41.5 113.5
s64.5 55.834 110.5 72.501c-39.333 32 -70 71.167 -92 117.5s-33 99.833 -33 160.5c0 56.667 8 107.334 24 152.001s39.167 82.667 69.5 114s67.333 55.333 111 72s92.834 25 147.501 25c27.333 0 54.333 -3.5 81 -10.5s51.334 -16.5 74.001 -28.5
c24 12.667 44 26.5 60 41.5s29 30.667 39 47s17.5 32.833 22.5 49.5s8.83301 33.667 11.5 51h148zM318.998 24c-21.333 0 -39.832 -3.16699 -55.499 -9.5s-28.667 -15.166 -39 -26.499s-18 -24.666 -23 -39.999s-7.5 -31.666 -7.5 -48.999s2.66699 -33.666 8 -48.999
s13.166 -28.833 23.499 -40.5s23.333 -20.834 39 -27.501s33.834 -10 54.501 -10h297c18 0 34.667 3.33301 50 10s28.833 15.834 40.5 27.501s20.667 25.167 27 40.5s9.5 31.666 9.5 48.999s-2.5 33.666 -7.5 48.999s-12.833 28.666 -23.5 39.999
s-23.834 20.166 -39.501 26.499s-34.5 9.5 -56.5 9.5h-297zM454.999 963c-60 0 -105.333 -20.001 -136 -60.001s-46 -94.667 -46 -164c0 -72 15.333 -127 46 -165s76 -57 136 -57s105.667 19.833 137 59.5s47 93.834 47 162.501c0 72.667 -15.667 128.167 -47 166.5
s-77 57.5 -137 57.5zM556.999 1286h-179v195h179v-195z" />
    <glyph glyph-name="Gcommaaccent" unicode="&#x122;" horiz-adv-x="1307" 
d="M741 -295l-59 -160h-90l45 146h-70v186h174v-172zM1016 156c-43.333 -64 -95.5029 -110.169 -156.503 -138.502s-129.833 -42.5 -206.5 -42.5c-88.667 0 -167.334 15 -236.001 45s-126.5 75.333 -173.5 136s-82.667 136.334 -107 227.001s-36.5 197 -36.5 319
s13 228.5 39 319.5s63.167 166.833 111.5 227.5s107.333 106 177 136s148.5 45 236.5 45c72.667 0 140.167 -10.333 202.5 -31s116.333 -51.834 162 -93.501s81.334 -94.167 107.001 -157.5s38.5 -137.333 38.5 -222h-185c0 58 -8 108.333 -24 151
s-38.167 77.834 -66.5 105.501s-62.5 48.167 -102.5 61.5s-84 20 -132 20c-58 0 -110.167 -10.5 -156.5 -31.5s-85.666 -52.667 -117.999 -95s-57.166 -95.5 -74.499 -159.5s-26 -138.667 -26 -224v-103c0 -171.333 31.333 -299.166 94 -383.499s152.667 -126.5 270 -126.5
c116.667 0 201.834 33 255.501 99s80.5 166.333 80.5 301v32h-364v158h549v-731h-119z" />
    <glyph glyph-name="gcommaaccent" unicode="&#x123;" 
d="M893 1252c0 -32 -4.00195 -62.167 -12.002 -90.5s-19.833 -53.833 -35.5 -76.5s-34.667 -41.834 -57 -57.501s-47.5 -27.167 -75.5 -34.5c30 -31.333 53.5 -68 70.5 -110s25.5 -90 25.5 -144c0 -55.333 -8.16699 -105.333 -24.5 -150s-39.5 -82.5 -69.5 -113.5
s-66.167 -55 -108.5 -72s-89.5 -25.833 -141.5 -26.5h-113c-14 0 -26.833 -2.5 -38.5 -7.5s-22 -11.833 -31 -20.5s-16 -18.834 -21 -30.501s-7.5 -24.167 -7.5 -37.5s2.66699 -25.833 8 -37.5s12.5 -22 21.5 -31s19.333 -16 31 -21s24.167 -7.5 37.5 -7.5h308
c38.667 0 73.667 -6.66699 105 -20s58 -31.5 80 -54.5s38.833 -49.667 50.5 -80s17.5 -62.5 17.5 -96.5c0 -42.667 -6.83301 -82.667 -20.5 -120s-33.834 -69.666 -60.501 -96.999s-59.667 -49 -99 -65s-84.333 -24 -135 -24h-305c-44 0 -82.667 6.66699 -116 20
s-61.166 31.666 -83.499 54.999s-39.166 50.5 -50.499 81.5s-17 64.167 -17 99.5c0 26 3.33301 51.167 10 75.5s16 46.5 28 66.5s26.667 37.667 44 53s36.666 27 57.999 35c-28 17.333 -49.667 40.5 -65 69.5s-23 59.833 -23 92.5c0 44 13.833 81.833 41.5 113.5
s64.5 55.834 110.5 72.501c-39.333 32 -70 71.167 -92 117.5s-33 99.833 -33 160.5c0 56.667 8 107.334 24 152.001s39.167 82.667 69.5 114s67.333 55.333 111 72s92.834 25 147.501 25c27.333 0 54.333 -3.5 81 -10.5s51.334 -16.5 74.001 -28.5
c24 12.667 44 26.5 60 41.5s29 30.667 39 47s17.5 32.833 22.5 49.5s8.83301 33.667 11.5 51h148zM318.998 24c-21.333 0 -39.832 -3.16699 -55.499 -9.5s-28.667 -15.166 -39 -26.499s-18 -24.666 -23 -39.999s-7.5 -31.666 -7.5 -48.999s2.66699 -33.666 8 -48.999
s13.166 -28.833 23.499 -40.5s23.333 -20.834 39 -27.501s33.834 -10 54.501 -10h297c18 0 34.667 3.33301 50 10s28.833 15.834 40.5 27.501s20.667 25.167 27 40.5s9.5 31.666 9.5 48.999s-2.5 33.666 -7.5 48.999s-12.833 28.666 -23.5 39.999
s-23.834 20.166 -39.501 26.499s-34.5 9.5 -56.5 9.5h-297zM454.999 963c-60 0 -105.333 -20.001 -136 -60.001s-46 -94.667 -46 -164c0 -72 15.333 -127 46 -165s76 -57 136 -57s105.667 19.833 137 59.5s47 93.834 47 162.501c0 72.667 -15.667 128.167 -47 166.5
s-77 57.5 -137 57.5zM348.999 1391l60 159h91l-46 -145h70v-186h-175v172z" />
    <glyph glyph-name="Hcircumflex" unicode="&#x124;" horiz-adv-x="1212" 
d="M862 1530h-164l-90 162l-94 -162h-164l176 276h160zM1069 0h-180v637h-565v-637h-181v1405h181v-604h565v604h180v-1405z" />
    <glyph glyph-name="hcircumflex" unicode="&#x125;" 
d="M291 965l11.999 0.00195312c28 48 61.833 82.833 101.5 104.5s86.5 32.5 140.5 32.5c40.667 0 77.334 -5.66699 110.001 -17s60.5 -30 83.5 -56s40.833 -59.667 53.5 -101s19 -92 19 -152v-776h-168v764c0 37.333 -3.66699 68.166 -11 92.499
s-17.666 43.666 -30.999 57.999s-29.333 24.333 -48 30s-39.334 8.5 -62.001 8.5c-26.667 0 -52 -6.66699 -76 -20s-45.167 -32.666 -63.5 -57.999s-33 -56.333 -44 -93s-16.5 -78.334 -16.5 -125.001v-657h-168v1481h168v-516zM466.999 1530h-164l-90 162l-93 -162h-165
l177 277h160z" />
    <glyph glyph-name="Hbar" unicode="&#x126;" horiz-adv-x="1212" 
d="M1171 1004h-102v-1004h-180v627h-565v-627h-181v1004h-102v147h102v254h181v-254h565v254h180v-254h102v-147zM889 791v213h-565v-213h565z" />
    <glyph glyph-name="hbar" unicode="&#x127;" 
d="M291 1333l221.999 0.00195312v-138h-222v-230h12c28 48 61.833 82.833 101.5 104.5s86.5 32.5 140.5 32.5c40.667 0 77.334 -5.66699 110.001 -17s60.5 -30 83.5 -56s40.833 -59.667 53.5 -101s19 -92 19 -152v-776h-168v764c0 37.333 -3.66699 68.166 -11 92.499
s-17.666 43.666 -30.999 57.999s-29.333 24.333 -48 30s-39.334 8.5 -62.001 8.5c-26.667 0 -52 -6.66699 -76 -20s-45.167 -32.666 -63.5 -57.999s-33 -56.333 -44 -93s-16.5 -78.334 -16.5 -125.001v-657h-168v1195h-123v138h123v148h168v-148z" />
    <glyph glyph-name="Itilde" unicode="&#x128;" horiz-adv-x="467" 
d="M323 0h-180v1405h180v-1405zM533 1809c0 -24 -3.33203 -48.499 -9.99902 -73.499s-17 -47.833 -31 -68.5s-32 -37.667 -54 -51s-48.333 -20 -79 -20c-22 0 -43 3.33301 -63 10s-39.5 13.834 -58.5 21.501s-37.833 14.834 -56.5 21.501s-38 10 -58 10
c-18.667 0 -34 -4.66699 -46 -14s-19.667 -25.666 -23 -48.999h-119c0 23.333 3.33301 47.666 10 72.999s17 48.333 31 69s32 37.667 54 51s48.333 20 79 20c22 0 42.833 -3.33301 62.5 -10s39 -13.834 58 -21.501s37.833 -14.834 56.5 -21.501s38 -10 58 -10
c18.667 0 34.167 4.66699 46.5 14s20.166 25.666 23.499 48.999h119z" />
    <glyph glyph-name="itilde" unicode="&#x129;" horiz-adv-x="467" 
d="M317 0h-168v1077h168v-1077zM533 1481c0 -24 -3.33203 -48.499 -9.99902 -73.499s-17 -47.833 -31 -68.5s-32 -37.667 -54 -51s-48.333 -20 -79 -20c-22 0 -43 3.33301 -63 10s-39.5 13.834 -58.5 21.501s-37.833 14.834 -56.5 21.501s-38 10 -58 10
c-18.667 0 -34 -4.66699 -46 -14s-19.667 -25.666 -23 -48.999h-119c0 23.333 3.33301 47.666 10 72.999s17 48.333 31 69s32 37.667 54 51s48.333 20 79 20c22 0 42.833 -3.33301 62.5 -10s39 -13.834 58 -21.501s37.833 -14.834 56.5 -21.501s38 -10 58 -10
c18.667 0 34.167 4.66699 46.5 14s20.166 25.666 23.499 48.999h119z" />
    <glyph glyph-name="Imacron" unicode="&#x12a;" horiz-adv-x="467" 
d="M323 0h-180v1405h180v-1405zM491 1554h-514v148h514v-148z" />
    <glyph glyph-name="imacron" unicode="&#x12b;" horiz-adv-x="467" 
d="M317 0h-168v1077h168v-1077zM491 1226h-514v148h514v-148z" />
    <glyph glyph-name="Ibreve" unicode="&#x12c;" horiz-adv-x="467" 
d="M323 0h-180v1405h180v-1405zM488 1809c0 -23.333 -5.83398 -46.833 -17.501 -70.5s-28.5 -45 -50.5 -64s-48.667 -34.5 -80 -46.5s-66.666 -18 -105.999 -18s-74.666 6 -105.999 18s-58 27.5 -80 46.5s-38.833 40.333 -50.5 64s-17.5 47.167 -17.5 70.5h133
c1.33301 -7.33301 5.16602 -15 11.499 -23s14.833 -15.333 25.5 -22s23 -12.167 37 -16.5s29.667 -6.5 47 -6.5s33.333 2.16699 48 6.5s27.334 9.83301 38.001 16.5s19.167 14 25.5 22s10.166 15.667 11.499 23h131z" />
    <glyph glyph-name="ibreve" unicode="&#x12d;" horiz-adv-x="467" 
d="M317 0h-168v1077h168v-1077zM488 1481c0 -23.333 -5.83398 -46.833 -17.501 -70.5s-28.5 -45 -50.5 -64s-48.667 -34.5 -80 -46.5s-66.666 -18 -105.999 -18s-74.666 6 -105.999 18s-58 27.5 -80 46.5s-38.833 40.333 -50.5 64s-17.5 47.167 -17.5 70.5h133
c1.33301 -7.33301 5.16602 -15 11.499 -23s14.833 -15.333 25.5 -22s23 -12.167 37 -16.5s29.667 -6.5 47 -6.5s33.333 2.16699 48 6.5s27.334 9.83301 38.001 16.5s19.167 14 25.5 22s10.166 15.667 11.499 23h131z" />
    <glyph glyph-name="Iogonek" unicode="&#x12e;" horiz-adv-x="467" 
d="M323 0l-13.999 -0.000976562c-11.333 -15.333 -22.166 -34.166 -32.499 -56.499s-15.5 -45.833 -15.5 -70.5c0 -14 1.66699 -27.833 5 -41.5s8.66602 -25.834 15.999 -36.501s16.833 -19.167 28.5 -25.5s26.167 -9.5 43.5 -9.5h65v-104
c-21.333 -9.33301 -42.333 -16.5 -63 -21.5s-41.334 -7.5 -62.001 -7.5c-22 0 -44.5 3 -67.5 9s-43.667 16.167 -62 30.5s-33.5 33.333 -45.5 57s-18 53.167 -18 88.5c0 42.667 7.33301 78.834 22 108.501s32.667 56.167 54 79.5h-34v1405h180v-1405z" />
    <glyph glyph-name="iogonek" unicode="&#x12f;" horiz-adv-x="373" 
d="M271 0l-13.999 -0.000976562c-11.333 -15.333 -22.166 -34.166 -32.499 -56.499s-15.5 -45.833 -15.5 -70.5c0 -14 1.66699 -27.833 5 -41.5s8.66602 -25.834 15.999 -36.501s16.833 -19.167 28.5 -25.5s26.167 -9.5 43.5 -9.5h65v-104
c-21.333 -9.33301 -42.333 -16.5 -63 -21.5s-41.334 -7.5 -62.001 -7.5c-22 0 -44.5 3 -67.5 9s-43.667 16.167 -62 30.5s-33.5 33.333 -45.5 57s-18 53.167 -18 88.5c0 42.667 7.33301 78.834 22 108.501s32.667 56.167 54 79.5h-22v1077h168v-1077zM278.001 1286h-179v195
h179v-195z" />
    <glyph glyph-name="Idotaccent" unicode="&#x130;" horiz-adv-x="467" 
d="M323 0h-180v1405h180v-1405zM324 1614h-179v195h179v-195z" />
    <glyph glyph-name="dotlessi" unicode="&#x131;" horiz-adv-x="467" 
d="M317 0h-168v1077h168v-1077z" />
    <glyph glyph-name="IJ" unicode="&#x132;" horiz-adv-x="1307" 
d="M323 0h-180v1405h180v-1405zM1174 334c0 -117.333 -29.667 -206.333 -89 -267s-143 -91 -251 -91s-191.833 30.333 -251.5 91s-89.5 149.667 -89.5 267v92h180v-103c0 -60 13.833 -105.333 41.5 -136s67.5 -46 119.5 -46c51.333 0 90.833 15.333 118.5 46
s41.5 76 41.5 136v1082h180v-1071z" />
    <glyph glyph-name="ij" unicode="&#x133;" horiz-adv-x="746" 
d="M270 0h-167v1077h167v-1077zM270 1280h-167v201h167v-201zM643 -125c0 -30.667 -3.33496 -60.834 -10.002 -90.501s-18.167 -56.167 -34.5 -79.5s-38.166 -42.166 -65.499 -56.499s-61.666 -21.5 -102.999 -21.5c-24.667 0 -50 2.66699 -76 8s-47.667 11 -65 17v116h90
c32 0 56.167 8.5 72.5 25.5s24.5 41.5 24.5 73.5v1210h167v-1202zM642.998 1280h-167v201h167v-201z" />
    <glyph glyph-name="Jcircumflex" unicode="&#x134;" horiz-adv-x="840" 
d="M707 334c0 -117.333 -29.667 -206.333 -89 -267s-143 -91 -251 -91s-191.833 30.333 -251.5 91s-89.5 149.667 -89.5 267v92h180v-103c0 -60 13.833 -105.333 41.5 -136s67.5 -46 119.5 -46c51.333 0 90.833 15.333 118.5 46s41.5 76 41.5 136v1082h180v-1071zM874 1530
h-164l-90 162l-93 -162h-164l176 277h160z" />
    <glyph glyph-name="jcircumflex" unicode="&#x135;" horiz-adv-x="373" 
d="M270 -125c0 -30.667 -3.33496 -60.834 -10.002 -90.501s-18.167 -56.167 -34.5 -79.5s-38.166 -42.166 -65.499 -56.499s-61.666 -21.5 -102.999 -21.5c-24.667 0 -50 2.66699 -76 8s-47.667 11 -65 17v116h90c32 0 56.167 8.5 72.5 25.5s24.5 41.5 24.5 73.5v1210h167
v-1202zM441.998 1202h-164l-90 162l-93 -162h-164l176 277h160z" />
    <glyph glyph-name="Kcommaaccent" unicode="&#x136;" horiz-adv-x="1120" 
d="M647 -295l-59 -160h-90l45 146h-70v186h174v-172zM324 662l557 743h200l-422 -567l437 -838h-205l-342 686l-225 -250v-436h-181v1405h181v-743z" />
    <glyph glyph-name="kcommaaccent" unicode="&#x137;" horiz-adv-x="840" 
d="M291 578l348 499h187l-319 -442l335 -635h-191l-245 491l-115 -124v-367h-168v1481h168v-903zM508 -295l-60 -159h-91l46 145h-70v186h175v-172z" />
    <glyph glyph-name="kgreenlandic" unicode="&#x138;" horiz-adv-x="836" 
d="M507 635l335 -635h-191l-245 491l-115 -124v-367h-168v1077h168v-499l348 499h187z" />
    <glyph glyph-name="Lacute" unicode="&#x139;" 
d="M248 1538h-144l177 270h184l2 -6zM143 0v1405h181v-1241h573v-164h-754z" />
    <glyph glyph-name="lacute" unicode="&#x13a;" horiz-adv-x="373" 
d="M103 0v1481h167v-1481h-167zM207 1538h-142l176 271h184l2 -7z" />
    <glyph glyph-name="Lcommaaccent" unicode="&#x13b;" 
d="M555 -295l-59 -160h-93l48 146h-70v186h174v-172zM143 0v1405h181v-1241h573v-164h-754z" />
    <glyph glyph-name="lcommaaccent" unicode="&#x13c;" horiz-adv-x="373" 
d="M270 0h-167v1481h167v-1481zM275 -295l-60 -159h-91l46 145h-70v186h175v-172z" />
    <glyph glyph-name="Lcaron" unicode="&#x13d;" 
d="M858 1202l-98 -272h-107l82 254h-82v221h205v-203zM143 0v1405h181v-1241h573v-164h-754z" />
    <glyph glyph-name="lcaron" unicode="&#x13e;" horiz-adv-x="489" 
d="M270 0h-167v1481h167v-1481zM558 1202l-99 -273h-106l82 255h-82v221h205v-203z" />
    <glyph glyph-name="Ldot" unicode="&#x13f;" 
d="M811 848h-207v227h207v-227zM143 0v1405h181v-1241h573v-164h-754z" />
    <glyph glyph-name="ldot" unicode="&#x140;" horiz-adv-x="661" 
d="M270 0h-167v1481h167v-1481zM560 590h-207v228h207v-228z" />
    <glyph glyph-name="Lslash" unicode="&#x141;" 
d="M324 809l280 250v-150l-280 -247v-498h573v-164h-754v502l-143 -125v145l143 127v756h181v-596z" />
    <glyph glyph-name="lslash" unicode="&#x142;" horiz-adv-x="373" 
d="M270 801l178 158v-149l-178 -157v-653h-167v505l-147 -129v146l147 130v829h167v-680z" />
    <glyph glyph-name="Nacute" unicode="&#x143;" horiz-adv-x="1212" 
d="M919 0l-525.001 894.999c-9.33301 15.333 -19.166 33.5 -29.499 54.5l-29.5 61.5c-10.667 22.667 -21.334 46.667 -32.001 72l-6 -2l4 -71c1.33301 -19.333 2.33301 -39.666 3 -60.999s1 -39.333 1 -54v-895h-162v1405h156l523 -882
c7.33301 -13.333 15.833 -30.833 25.5 -52.5l28.5 -62.5l31 -74l6 2c-1.33301 26.667 -2.33301 52 -3 76c-1.33301 20.667 -2.16602 41.5 -2.49902 62.5s-0.5 37.167 -0.5 48.5v882h162v-1405h-150zM625.999 1538h-142l176 271h184l2 -7z" />
    <glyph glyph-name="nacute" unicode="&#x144;" 
d="M545 1102c40.667 0 77.333 -5.66504 110 -16.998s60.5 -30 83.5 -56s40.833 -59.667 53.5 -101s19 -92 19 -152v-776h-168v764c0 37.333 -3.66699 68.166 -11 92.499s-17.666 43.666 -30.999 57.999s-29.333 24.333 -48 30s-39.334 8.5 -62.001 8.5
c-26.667 0 -52 -6.66699 -76 -20s-45.167 -32.666 -63.5 -57.999s-33 -56.333 -44 -93s-16.5 -78.334 -16.5 -125.001v-657h-168v1077h127l23 -124h12c30 53.333 67.333 91.5 112 114.5s94 34.5 148 34.5zM486.999 1210h-142l176 271h184l2 -7z" />
    <glyph glyph-name="Ncommaaccent" unicode="&#x145;" horiz-adv-x="1212" 
d="M1069 0l-150.001 -0.000976562l-525 895c-9.33301 15.333 -19.166 33.5 -29.499 54.5l-29.5 61.5c-10.667 22.667 -21.334 46.667 -32.001 72l-6 -2l4 -71c1.33301 -19.333 2.33301 -39.666 3 -60.999s1 -39.333 1 -54v-895h-162v1405h156l523 -882
c7.33301 -13.333 15.833 -30.833 25.5 -52.5l28.5 -62.5l31 -74l6 2c-1.33301 26.667 -2.33301 52 -3 76c-1.33301 20.667 -2.16602 41.5 -2.49902 62.5s-0.5 37.167 -0.5 48.5v882h162v-1405zM693.999 -295.001l-60 -159h-91l46 145h-70v186h175v-172z" />
    <glyph glyph-name="ncommaaccent" unicode="&#x146;" 
d="M545 1102c40.667 0 77.333 -5.66504 110 -16.998s60.5 -30 83.5 -56s40.833 -59.667 53.5 -101s19 -92 19 -152v-776h-168v764c0 37.333 -3.66699 68.166 -11 92.499s-17.666 43.666 -30.999 57.999s-29.333 24.333 -48 30s-39.334 8.5 -62.001 8.5
c-26.667 0 -52 -6.66699 -76 -20s-45.167 -32.666 -63.5 -57.999s-33 -56.333 -44 -93s-16.5 -78.334 -16.5 -125.001v-657h-168v1077h127l23 -124h12c30 53.333 67.333 91.5 112 114.5s94 34.5 148 34.5zM554.999 -294.998l-60 -159h-91l46 145h-70v186h175v-172z" />
    <glyph glyph-name="Ncaron" unicode="&#x147;" horiz-adv-x="1212" 
d="M1069 0l-150.001 -0.000976562l-525 895c-9.33301 15.333 -19.166 33.5 -29.499 54.5l-29.5 61.5c-10.667 22.667 -21.334 46.667 -32.001 72l-6 -2l4 -71c1.33301 -19.333 2.33301 -39.666 3 -60.999s1 -39.333 1 -54v-895h-162v1405h156l523 -882
c7.33301 -13.333 15.833 -30.833 25.5 -52.5l28.5 -62.5l31 -74l6 2c-1.33301 26.667 -2.33301 52 -3 76c-1.33301 20.667 -2.16602 41.5 -2.49902 62.5s-0.5 37.167 -0.5 48.5v882h162v-1405zM684.999 1532h-160l-174 277h164l91 -162l92 162h164z" />
    <glyph glyph-name="ncaron" unicode="&#x148;" 
d="M545 1102c40.667 0 77.333 -5.66504 110 -16.998s60.5 -30 83.5 -56s40.833 -59.667 53.5 -101s19 -92 19 -152v-776h-168v764c0 37.333 -3.66699 68.166 -11 92.499s-17.666 43.666 -30.999 57.999s-29.333 24.333 -48 30s-39.334 8.5 -62.001 8.5
c-26.667 0 -52 -6.66699 -76 -20s-45.167 -32.666 -63.5 -57.999s-33 -56.333 -44 -93s-16.5 -78.334 -16.5 -125.001v-657h-168v1077h127l23 -124h12c30 53.333 67.333 91.5 112 114.5s94 34.5 148 34.5zM545.999 1204h-160l-174 277h164l91 -162l92 162h164z" />
    <glyph glyph-name="napostrophe" unicode="&#x149;" horiz-adv-x="1173" 
d="M272 1230l-60 -159h-91l46 145h-70v186h175v-172zM784 1102c40.667 0 77.333 -5.66504 110 -16.998s60.5 -30 83.5 -56s40.833 -59.667 53.5 -101s19 -92 19 -152v-776h-168v764c0 37.333 -3.66699 68.166 -11 92.499s-17.666 43.666 -30.999 57.999
s-29.333 24.333 -48 30s-39.334 8.5 -62.001 8.5c-26.667 0 -52 -6.66699 -76 -20s-45.167 -32.666 -63.5 -57.999s-33 -56.333 -44 -93s-16.5 -78.334 -16.5 -125.001v-657h-168v1077h127l23 -124h12c30 53.333 67.333 91.5 112 114.5s94 34.5 148 34.5z" />
    <glyph glyph-name="Eng" unicode="&#x14a;" horiz-adv-x="1212" 
d="M1069 -125c0 -30.667 -3.33203 -60.8369 -9.99902 -90.5039s-18.334 -56.167 -35.001 -79.5s-38.667 -42.166 -66 -56.499s-61.333 -21.5 -102 -21.5c-24.667 0 -50 2.66699 -76 8s-47.667 11 -65 17v117h90c64 0 96 32.667 96 98v164l-508 864
c-9.33301 14.667 -19 32.667 -29 54l-29 62l-32 72l-6 -2c1.33301 -25.333 2.66602 -49.333 3.99902 -72c1.33301 -19.333 2.33301 -39.666 3 -60.999s1 -39 1 -53v-895h-162v1405h156l522 -883c7.33301 -13.333 16 -30.666 26 -51.999l29 -62c10.667 -23.333 21 -48 31 -74
l6 2c-1.33301 26.667 -2.33301 52 -3 76c-1.33301 20.667 -2.16602 41.334 -2.49902 62.001s-0.5 36.667 -0.5 48l-6 883h168v-1530z" />
    <glyph glyph-name="eng" unicode="&#x14b;" 
d="M545 1102c40.667 0 77.334 -5.66504 110.001 -16.998s60.5 -30 83.5 -56s40.833 -59.667 53.5 -101s19 -92 19 -152v-901c0 -30.667 -3.33301 -60.834 -10 -90.501s-18.334 -56.167 -35.001 -79.5s-38.667 -42.166 -66 -56.499s-61.333 -21.5 -102 -21.5
c-24.667 0 -50 2.66699 -76 8s-47.667 11 -65 17v116h90c32 0 56 8.5 72 25.5s24 41.5 24 73.5v897c0 37.333 -3.66699 68.166 -11 92.499s-17.666 43.666 -30.999 57.999s-29.333 24.333 -48 30s-39.334 8.5 -62.001 8.5c-26.667 0 -52 -6.66699 -76 -20
s-45.167 -32.666 -63.5 -57.999s-33 -56.333 -44 -93s-16.5 -78.334 -16.5 -125.001v-657h-168v1077h127l23 -124h12c30 53.333 67.333 91.5 112 114.5s94 34.5 148 34.5z" />
    <glyph glyph-name="Omacron" unicode="&#x14c;" horiz-adv-x="1307" 
d="M653 1430c86 0 163.333 -15 232 -45s126.667 -75.333 174 -136s83.666 -136.334 108.999 -227.001s38 -197 38 -319s-12.667 -228.5 -38 -319.5s-61.666 -166.667 -108.999 -227s-105.333 -105.5 -174 -135.5s-146 -45 -232 -45s-163.167 15 -231.5 45
s-126.166 75.167 -173.499 135.5s-83.666 136 -108.999 227s-38 197.5 -38 319.5s12.667 228.333 38 319s61.666 166.334 108.999 227.001s105.166 106 173.499 136s145.5 45 231.5 45zM653 1264c-56 0 -106.5 -10.5 -151.5 -31.5s-83.333 -52.833 -115 -95.5
s-55.834 -95.834 -72.501 -159.501s-25 -138.167 -25 -223.5v-103c0 -85.333 8.33301 -160 25 -224s40.834 -117.167 72.501 -159.5s70 -74 115 -95s95.5 -31.5 151.5 -31.5c56.667 0 107.5 10.5 152.5 31.5s83.167 52.667 114.5 95s55.5 95.5 72.5 159.5
s25.5 138.667 25.5 224v103c0 85.333 -8.5 159.833 -25.5 223.5s-41.167 116.834 -72.5 159.501s-69.5 74.5 -114.5 95.5s-95.833 31.5 -152.5 31.5zM911 1554h-513v148h513v-148z" />
    <glyph glyph-name="omacron" unicode="&#x14d;" 
d="M467 1102c126 0 221.667 -45.667 287 -137s98 -233.333 98 -426c0 -193.333 -32.667 -335.5 -98 -426.5s-161 -136.5 -287 -136.5s-221.667 45.5 -287 136.5s-98 233.167 -98 426.5c0 192.667 32.667 334.667 98 426s161 137 287 137zM467 953
c-70.667 0 -123.167 -31.333 -157.5 -94s-51.5 -156.334 -51.5 -281.001v-79c0 -124 17.167 -217.333 51.5 -280s86.833 -94 157.5 -94c70 0 122.333 31.333 157 94s52 156 52 280v79c0 124.667 -17.333 218.334 -52 281.001s-87 94 -157 94zM724 1226h-513v148h513v-148z
" />
    <glyph glyph-name="Obreve" unicode="&#x14e;" horiz-adv-x="1307" 
d="M653 1430c86 0 163.333 -15 232 -45s126.667 -75.333 174 -136s83.666 -136.334 108.999 -227.001s38 -197 38 -319s-12.667 -228.5 -38 -319.5s-61.666 -166.667 -108.999 -227s-105.333 -105.5 -174 -135.5s-146 -45 -232 -45s-163.167 15 -231.5 45
s-126.166 75.167 -173.499 135.5s-83.666 136 -108.999 227s-38 197.5 -38 319.5s12.667 228.333 38 319s61.666 166.334 108.999 227.001s105.166 106 173.499 136s145.5 45 231.5 45zM653 1264c-56 0 -106.5 -10.5 -151.5 -31.5s-83.333 -52.833 -115 -95.5
s-55.834 -95.834 -72.501 -159.501s-25 -138.167 -25 -223.5v-103c0 -85.333 8.33301 -160 25 -224s40.834 -117.167 72.501 -159.5s70 -74 115 -95s95.5 -31.5 151.5 -31.5c56.667 0 107.5 10.5 152.5 31.5s83.167 52.667 114.5 95s55.5 95.5 72.5 159.5
s25.5 138.667 25.5 224v103c0 85.333 -8.5 159.833 -25.5 223.5s-41.167 116.834 -72.5 159.501s-69.5 74.5 -114.5 95.5s-95.833 31.5 -152.5 31.5zM908 1809c0 -23.333 -5.83301 -46.833 -17.5 -70.5s-28.5 -45 -50.5 -64s-48.667 -34.5 -80 -46.5
s-66.666 -18 -105.999 -18s-74.5 6 -105.5 18s-57.5 27.5 -79.5 46.5s-38.833 40.333 -50.5 64s-17.5 47.167 -17.5 70.5h132c1.33301 -7.33301 5.16602 -15 11.499 -23s14.833 -15.333 25.5 -22s23 -12.167 37 -16.5s29.667 -6.5 47 -6.5s33.333 2.16699 48 6.5
s27.334 9.83301 38.001 16.5s19.167 14 25.5 22s10.166 15.667 11.499 23h131z" />
    <glyph glyph-name="obreve" unicode="&#x14f;" 
d="M467 1102c126 0 221.667 -45.667 287 -137s98 -233.333 98 -426c0 -193.333 -32.667 -335.5 -98 -426.5s-161 -136.5 -287 -136.5s-221.667 45.5 -287 136.5s-98 233.167 -98 426.5c0 192.667 32.667 334.667 98 426s161 137 287 137zM467 953
c-70.667 0 -123.167 -31.333 -157.5 -94s-51.5 -156.334 -51.5 -281.001v-79c0 -124 17.167 -217.333 51.5 -280s86.833 -94 157.5 -94c70 0 122.333 31.333 157 94s52 156 52 280v79c0 124.667 -17.333 218.334 -52 281.001s-87 94 -157 94zM721 1481
c0 -23.333 -5.83301 -46.833 -17.5 -70.5s-28.5 -45 -50.5 -64s-48.667 -34.5 -80 -46.5s-66.666 -18 -105.999 -18s-74.5 6 -105.5 18s-57.5 27.5 -79.5 46.5s-38.833 40.333 -50.5 64s-17.5 47.167 -17.5 70.5h132c1.33301 -7.33301 5.16602 -15 11.499 -23
s14.833 -15.333 25.5 -22s23 -12.167 37 -16.5s29.667 -6.5 47 -6.5s33.333 2.16699 48 6.5s27.334 9.83301 38.001 16.5s19.167 14 25.5 22s10.166 15.667 11.499 23h131z" />
    <glyph glyph-name="Ohungarumlaut" unicode="&#x150;" horiz-adv-x="1307" 
d="M653 1430c86 0 163.333 -15 232 -45s126.667 -75.333 174 -136s83.666 -136.334 108.999 -227.001s38 -197 38 -319s-12.667 -228.5 -38 -319.5s-61.666 -166.667 -108.999 -227s-105.333 -105.5 -174 -135.5s-146 -45 -232 -45s-163.167 15 -231.5 45
s-126.166 75.167 -173.499 135.5s-83.666 136 -108.999 227s-38 197.5 -38 319.5s12.667 228.333 38 319s61.666 166.334 108.999 227.001s105.166 106 173.499 136s145.5 45 231.5 45zM653 1264c-56 0 -106.5 -10.5 -151.5 -31.5s-83.333 -52.833 -115 -95.5
s-55.834 -95.834 -72.501 -159.501s-25 -138.167 -25 -223.5v-103c0 -85.333 8.33301 -160 25 -224s40.834 -117.167 72.501 -159.5s70 -74 115 -95s95.5 -31.5 151.5 -31.5c56.667 0 107.5 10.5 152.5 31.5s83.167 52.667 114.5 95s55.5 95.5 72.5 159.5
s25.5 138.667 25.5 224v103c0 85.333 -8.5 159.833 -25.5 223.5s-41.167 116.834 -72.5 159.501s-69.5 74.5 -114.5 95.5s-95.833 31.5 -152.5 31.5zM1038 1802l-172 -264h-141l127 271h184zM771 1802l-172 -264h-141l127 271h184z" />
    <glyph glyph-name="ohungarumlaut" unicode="&#x151;" 
d="M467 1102c126 0 221.667 -45.667 287 -137s98 -233.333 98 -426c0 -193.333 -32.667 -335.5 -98 -426.5s-161 -136.5 -287 -136.5s-221.667 45.5 -287 136.5s-98 233.167 -98 426.5c0 192.667 32.667 334.667 98 426s161 137 287 137zM467 953
c-70.667 0 -123.167 -31.333 -157.5 -94s-51.5 -156.334 -51.5 -281.001v-79c0 -124 17.167 -217.333 51.5 -280s86.833 -94 157.5 -94c70 0 122.333 31.333 157 94s52 156 52 280v79c0 124.667 -17.333 218.334 -52 281.001s-87 94 -157 94zM851 1474l-172 -264h-141
l127 271h184zM584 1474l-172 -264h-141l127 271h184z" />
    <glyph glyph-name="OE" unicode="&#x152;" horiz-adv-x="1679" 
d="M870 0l0.000976562 138.999c-74.667 -109.333 -178.334 -164 -311.001 -164c-72 0 -136.5 15 -193.5 45s-105.167 75.333 -144.5 136s-69.333 136.334 -90 227.001s-31 197 -31 319s10.333 228.5 31 319.5s50.667 166.833 90 227.5s87.5 106 144.5 136s121.5 45 193.5 45
c131.333 0 235 -54.667 311 -164v139h723v-164h-542v-440h450v-164h-450v-473h555v-164h-736zM289.001 650.999c0 -171.333 25.833 -299.166 77.5 -383.499s122.834 -126.5 213.501 -126.5c90 0 160.833 42.167 212.5 126.5s77.5 212.166 77.5 383.499v103
c0 170.667 -25.833 298.334 -77.5 383.001s-122.5 127 -212.5 127c-90.667 0 -161.834 -42.333 -213.501 -127s-77.5 -212.334 -77.5 -383.001v-103z" />
    <glyph glyph-name="oe" unicode="&#x153;" horiz-adv-x="1585" 
d="M1112 1102c58.667 0 110.168 -9.5 154.501 -28.5s81.166 -48.833 110.499 -89.5s51.5 -93 66.5 -157s22.5 -141 22.5 -231v-107h-583c0.666992 -125.333 20.167 -217.333 58.5 -276s97.5 -88 177.5 -88c26 0 50.167 5.5 72.5 16.5s41.666 27 57.999 48s29 46.5 38 76.5
s13.5 63.667 13.5 101h165c0 -60.667 -8.5 -115.167 -25.5 -163.5s-41 -89.333 -72 -123s-68 -59.5 -111 -77.5s-90.5 -27 -142.5 -27c-73.333 0 -137 12.167 -191 36.5s-98 63.833 -132 118.5c-32 -54 -73.167 -93.333 -123.5 -118s-108.833 -37 -175.5 -37
c-125.333 0 -220.666 45.5 -285.999 136.5s-98 233.167 -98 426.5c0 192.667 32.667 334.667 98 426s160.666 137 285.999 137c136.667 0 236.334 -52.667 299.001 -158c67.333 105.333 174 158 320 158zM493.001 953c-70 0 -122.167 -31.333 -156.5 -94
s-51.5 -156.334 -51.5 -281.001v-79c0 -124 17.167 -217.333 51.5 -280s86.5 -94 156.5 -94c70.667 0 123.334 31.333 158.001 94s52 156 52 280v79c0 124.667 -17.333 218.334 -52 281.001s-87.334 94 -158.001 94zM1112 953c-37.333 0 -69.501 -6.66797 -96.501 -20.001
s-49.5 -33.166 -67.5 -59.499s-32.167 -59 -42.5 -98s-17.166 -84.5 -20.499 -136.5h405c0 103.333 -15 181.5 -45 234.5s-74.333 79.5 -133 79.5z" />
    <glyph glyph-name="Racute" unicode="&#x154;" horiz-adv-x="1212" 
d="M582 1538h-144l176 270h185l2 -6zM1128 1016c0 -87.333 -21.8311 -162.833 -65.498 -226.5s-104.834 -109.167 -183.501 -136.5l282 -653h-200l-261 621h-376v-621h-181v1405h566c68.667 0 129.167 -9.5 181.5 -28.5s96.166 -45.5 131.499 -79.5
s61.833 -74.833 79.5 -122.5s26.5 -100.5 26.5 -158.5zM324.002 1241v-457.001h378c36 0 68.667 5.5 98 16.5s54.333 26.667 75 47s36.667 44.833 48 73.5s17 60.334 17 95.001c0 70 -20.333 125 -61 165s-99.667 60 -177 60h-378z" />
    <glyph glyph-name="racute" unicode="&#x155;" horiz-adv-x="559" 
d="M467 1102c11.333 0 21.667 -1.00195 31 -3.00195s17.666 -4 24.999 -6l24 -8v-174h-56c-26.667 0 -52 -4.33301 -76 -13s-45.167 -22.834 -63.5 -42.501s-33 -45.667 -44 -78s-16.5 -72.5 -16.5 -120.5v-657h-168v1077h127l23 -141h12
c6.66699 20.667 15 40.834 25 60.501s22.333 37.334 37 53.001s31.834 28.334 51.501 38.001s42.5 14.5 68.5 14.5zM210.001 1210h-142l176 271h184l2 -7z" />
    <glyph glyph-name="Rcommaaccent" unicode="&#x156;" horiz-adv-x="1212" 
d="M694 -295l-59 -160h-92l47 146h-72v186h176v-172zM1128 1016c0 -87.333 -21.8311 -162.833 -65.498 -226.5s-104.834 -109.167 -183.501 -136.5l282 -653h-200l-261 621h-376v-621h-181v1405h566c68.667 0 129.167 -9.5 181.5 -28.5s96.166 -45.5 131.499 -79.5
s61.833 -74.833 79.5 -122.5s26.5 -100.5 26.5 -158.5zM324.002 1241v-457.001h378c36 0 68.667 5.5 98 16.5s54.333 26.667 75 47s36.667 44.833 48 73.5s17 60.334 17 95.001c0 70 -20.333 125 -61 165s-99.667 60 -177 60h-378z" />
    <glyph glyph-name="rcommaaccent" unicode="&#x157;" horiz-adv-x="559" 
d="M467 1102c11.333 0 21.667 -1.00195 31 -3.00195s17.666 -4 24.999 -6l24 -8v-174h-56c-26.667 0 -52 -4.33301 -76 -13s-45.167 -22.834 -63.5 -42.501s-33 -45.667 -44 -78s-16.5 -72.5 -16.5 -120.5v-657h-168v1077h127l23 -141h12
c6.66699 20.667 15 40.834 25 60.501s22.333 37.334 37 53.001s31.834 28.334 51.501 38.001s42.5 14.5 68.5 14.5zM311.001 -295.002l-60 -159h-91l46 145h-70v186h175v-172z" />
    <glyph glyph-name="Rcaron" unicode="&#x158;" horiz-adv-x="1212" 
d="M684 1532h-160l-174 276h164l92 -161l92 161h164zM1128 1016c0 -87.333 -21.8311 -162.833 -65.498 -226.5s-104.834 -109.167 -183.501 -136.5l282 -653h-200l-261 621h-376v-621h-181v1405h566c68.667 0 129.167 -9.5 181.5 -28.5s96.166 -45.5 131.499 -79.5
s61.833 -74.833 79.5 -122.5s26.5 -100.5 26.5 -158.5zM324.002 1241v-457.001h378c36 0 68.667 5.5 98 16.5s54.333 26.667 75 47s36.667 44.833 48 73.5s17 60.334 17 95.001c0 70 -20.333 125 -61 165s-99.667 60 -177 60h-378z" />
    <glyph glyph-name="rcaron" unicode="&#x159;" horiz-adv-x="559" 
d="M467 1102c11.333 0 21.667 -1.00195 31 -3.00195s17.666 -4 24.999 -6l24 -8v-174h-56c-26.667 0 -52 -4.33301 -76 -13s-45.167 -22.834 -63.5 -42.501s-33 -45.667 -44 -78s-16.5 -72.5 -16.5 -120.5v-657h-168v1077h127l23 -141h12
c6.66699 20.667 15 40.834 25 60.501s22.333 37.334 37 53.001s31.834 28.334 51.501 38.001s42.5 14.5 68.5 14.5zM329.001 1204h-160l-175 277h165l91 -162l92 162h164z" />
    <glyph glyph-name="Sacute" unicode="&#x15a;" horiz-adv-x="1120" 
d="M559 1430c60.667 0 117.835 -7.49902 171.502 -22.499s100.5 -38.5 140.5 -70.5s71.5 -73 94.5 -123s34.5 -110 34.5 -180v-24h-186v30c0 36 -6.5 67.833 -19.5 95.5s-30.667 51 -53 70s-48.833 33.5 -79.5 43.5s-63.667 15 -99 15c-36.667 0 -70.834 -4 -102.501 -12
s-59.167 -20 -82.5 -36s-41.666 -36.333 -54.999 -61s-20 -54 -20 -88c0 -42 10.5 -76.833 31.5 -104.5s48.5 -51.334 82.5 -71.001s72.833 -36.834 116.5 -51.501l134 -45c45.667 -15.333 90.334 -32.666 134.001 -51.999s82.5 -43.666 116.5 -72.999
s61.5 -65.333 82.5 -108s31.5 -94.667 31.5 -156c0 -78.667 -12 -145.334 -36 -200.001s-57.167 -99 -99.5 -133s-92.5 -58.667 -150.5 -74s-121 -23 -189 -23c-64 0 -124.667 7.5 -182 22.5s-107.5 39.167 -150.5 72.5s-77.167 76.833 -102.5 130.5s-38 119.167 -38 196.5
c0 7.33301 0.333008 15 1 23s1 13.667 1 17h187c0 -0.666992 -0.166992 -2.66699 -0.5 -6s-0.666016 -7.16602 -0.999023 -11.499l-1 -13.5c-0.333008 -4.66699 -0.5 -8.33398 -0.5 -11.001c0 -43.333 7 -80.833 21 -112.5s33.5 -58.167 58.5 -79.5
s54.5 -37.166 88.5 -47.499s71 -15.5 111 -15.5c94.667 0 167.5 20 218.5 60s76.5 98 76.5 174c0 44 -10.5 80.5 -31.5 109.5s-48.667 53.667 -83 74s-73.333 37.833 -117 52.5l-134 45c-45.667 15.333 -90.334 32.666 -134.001 51.999s-82.667 44 -117 74
s-62 66.667 -83 110s-31.5 96.666 -31.5 159.999c0 64.667 11.667 120.834 35 168.501s55.166 87 95.499 118s87.666 54 141.999 69s112.166 22.5 173.499 22.5zM580.001 1538h-142l176 271h184l2 -7z" />
    <glyph glyph-name="sacute" unicode="&#x15b;" horiz-adv-x="840" 
d="M428 1102c50 0 94.1689 -7.83496 132.502 -23.502s70.666 -37 96.999 -64s46.166 -58.333 59.499 -94s20 -73.5 20 -113.5c0 -7.33301 -0.333008 -15.166 -1 -23.499s-1 -13.5 -1 -15.5h-174v18c0 20.667 -2.33301 41.167 -7 61.5s-12.834 38.5 -24.501 54.5
s-27 28.833 -46 38.5s-42.833 14.5 -71.5 14.5c-30 0 -54.333 -5 -73 -15s-33.5 -22.333 -44.5 -37s-18.5 -30.667 -22.5 -48s-6 -33.333 -6 -48c0 -29.333 7 -53.5 21 -72.5s32.5 -35.167 55.5 -48.5s49.333 -25 79 -35l90.5 -32c30.667 -11.333 60.834 -24.5 90.501 -39.5
s56 -34.333 79 -58s41.5 -52.834 55.5 -87.501s21 -77 21 -127c0 -58 -8.66699 -107.833 -26 -149.5s-41.333 -76 -72 -103s-67 -46.833 -109 -59.5s-87.667 -19 -137 -19c-62 0 -115 8.83301 -159 26.5s-79.833 41.334 -107.5 71.001s-48 63.334 -61 101.001
s-19.5 76.5 -19.5 116.5c0 14 0.333008 24.5 1 31.5s1 11.5 1 13.5h177v-21c0 -34 4.5 -63 13.5 -87s21.5 -43.833 37.5 -59.5s34.667 -27.167 56 -34.5s44.333 -11 69 -11c22 0 42.667 3.33301 62 10s36.5 16.834 51.5 30.501s26.833 30.5 35.5 50.5s13 43 13 69
c0 34 -7 62 -21 84s-32.5 40.5 -55.5 55.5s-49.167 28 -78.5 39l-90.5 33.5c-31 11.333 -61.167 24.333 -90.5 39s-55.5 33.167 -78.5 55.5s-41.5 50 -55.5 83s-21 73.5 -21 121.5s7.83301 91 23.5 129s38.167 70.167 67.5 96.5s64.5 46.666 105.5 60.999
s87.167 21.5 138.5 21.5zM440.002 1210h-142l176 271h184l2 -7z" />
    <glyph glyph-name="Scircumflex" unicode="&#x15c;" horiz-adv-x="1120" 
d="M559 1430c60.667 0 117.835 -7.49902 171.502 -22.499s100.5 -38.5 140.5 -70.5s71.5 -73 94.5 -123s34.5 -110 34.5 -180v-24h-186v30c0 36 -6.5 67.833 -19.5 95.5s-30.667 51 -53 70s-48.833 33.5 -79.5 43.5s-63.667 15 -99 15c-36.667 0 -70.834 -4 -102.501 -12
s-59.167 -20 -82.5 -36s-41.666 -36.333 -54.999 -61s-20 -54 -20 -88c0 -42 10.5 -76.833 31.5 -104.5s48.5 -51.334 82.5 -71.001s72.833 -36.834 116.5 -51.501l134 -45c45.667 -15.333 90.334 -32.666 134.001 -51.999s82.5 -43.666 116.5 -72.999
s61.5 -65.333 82.5 -108s31.5 -94.667 31.5 -156c0 -78.667 -12 -145.334 -36 -200.001s-57.167 -99 -99.5 -133s-92.5 -58.667 -150.5 -74s-121 -23 -189 -23c-64 0 -124.667 7.5 -182 22.5s-107.5 39.167 -150.5 72.5s-77.167 76.833 -102.5 130.5s-38 119.167 -38 196.5
c0 7.33301 0.333008 15 1 23s1 13.667 1 17h187c0 -0.666992 -0.166992 -2.66699 -0.5 -6s-0.666016 -7.16602 -0.999023 -11.499l-1 -13.5c-0.333008 -4.66699 -0.5 -8.33398 -0.5 -11.001c0 -43.333 7 -80.833 21 -112.5s33.5 -58.167 58.5 -79.5
s54.5 -37.166 88.5 -47.499s71 -15.5 111 -15.5c94.667 0 167.5 20 218.5 60s76.5 98 76.5 174c0 44 -10.5 80.5 -31.5 109.5s-48.667 53.667 -83 74s-73.333 37.833 -117 52.5l-134 45c-45.667 15.333 -90.334 32.666 -134.001 51.999s-82.667 44 -117 74
s-62 66.667 -83 110s-31.5 96.666 -31.5 159.999c0 64.667 11.667 120.834 35 168.501s55.166 87 95.499 118s87.666 54 141.999 69s112.166 22.5 173.499 22.5zM816.001 1530h-164l-90 162l-93 -162h-164l176 277h160z" />
    <glyph glyph-name="scircumflex" unicode="&#x15d;" horiz-adv-x="840" 
d="M428 1102c50 0 94.1689 -7.83496 132.502 -23.502s70.666 -37 96.999 -64s46.166 -58.333 59.499 -94s20 -73.5 20 -113.5c0 -7.33301 -0.333008 -15.166 -1 -23.499s-1 -13.5 -1 -15.5h-174v18c0 20.667 -2.33301 41.167 -7 61.5s-12.834 38.5 -24.501 54.5
s-27 28.833 -46 38.5s-42.833 14.5 -71.5 14.5c-30 0 -54.333 -5 -73 -15s-33.5 -22.333 -44.5 -37s-18.5 -30.667 -22.5 -48s-6 -33.333 -6 -48c0 -29.333 7 -53.5 21 -72.5s32.5 -35.167 55.5 -48.5s49.333 -25 79 -35l90.5 -32c30.667 -11.333 60.834 -24.5 90.501 -39.5
s56 -34.333 79 -58s41.5 -52.834 55.5 -87.501s21 -77 21 -127c0 -58 -8.66699 -107.833 -26 -149.5s-41.333 -76 -72 -103s-67 -46.833 -109 -59.5s-87.667 -19 -137 -19c-62 0 -115 8.83301 -159 26.5s-79.833 41.334 -107.5 71.001s-48 63.334 -61 101.001
s-19.5 76.5 -19.5 116.5c0 14 0.333008 24.5 1 31.5s1 11.5 1 13.5h177v-21c0 -34 4.5 -63 13.5 -87s21.5 -43.833 37.5 -59.5s34.667 -27.167 56 -34.5s44.333 -11 69 -11c22 0 42.667 3.33301 62 10s36.5 16.834 51.5 30.501s26.833 30.5 35.5 50.5s13 43 13 69
c0 34 -7 62 -21 84s-32.5 40.5 -55.5 55.5s-49.167 28 -78.5 39l-90.5 33.5c-31 11.333 -61.167 24.333 -90.5 39s-55.5 33.167 -78.5 55.5s-41.5 50 -55.5 83s-21 73.5 -21 121.5s7.83301 91 23.5 129s38.167 70.167 67.5 96.5s64.5 46.666 105.5 60.999
s87.167 21.5 138.5 21.5zM676.002 1202h-164l-90 162l-93 -162h-164l176 277h160z" />
    <glyph glyph-name="Scedilla" unicode="&#x15e;" horiz-adv-x="1120" 
d="M559 1430c60.667 0 117.837 -7.5 171.504 -22.5s100.5 -38.5 140.5 -70.5s71.5 -73 94.5 -123s34.5 -110 34.5 -180v-24h-186v30c0 36 -6.5 67.833 -19.5 95.5s-30.667 51 -53 70s-48.833 33.5 -79.5 43.5s-63.667 15 -99 15c-36.667 0 -70.834 -4 -102.501 -12
s-59.167 -20 -82.5 -36s-41.666 -36.333 -54.999 -61s-20 -54 -20 -88c0 -42 10.5 -76.833 31.5 -104.5s48.5 -51.334 82.5 -71.001s72.833 -36.834 116.5 -51.501l134 -45c45.667 -15.333 90.334 -32.666 134.001 -51.999s82.5 -43.666 116.5 -72.999
s61.5 -65.333 82.5 -108s31.5 -94.667 31.5 -156c0 -75.333 -10.833 -139.5 -32.5 -192.5s-52 -96.5 -91 -130.5s-85.333 -59.5 -139 -76.5s-112.167 -26.833 -175.5 -29.5l-7 -51c22 -1.33301 43 -4.66602 63 -9.99902s37.667 -13.166 53 -23.499s27.5 -23.5 36.5 -39.5
s13.5 -35.667 13.5 -59c0 -34.667 -7.16699 -62.834 -21.5 -84.501s-32.333 -38.667 -54 -51s-44.834 -20.666 -69.501 -24.999s-47.334 -6.5 -68.001 -6.5c-29.333 0 -59.166 1.5 -89.499 4.5s-57.833 7.16699 -82.5 12.5v100h156c22.667 0 40.5 3.33301 53.5 10
s19.5 20 19.5 40c0 16 -4.83301 28 -14.5 36s-27.834 12 -54.501 12h-68l21 138c-55.333 4.66699 -107.166 16.167 -155.499 34.5s-90.333 44.166 -126 77.499s-63.834 75.166 -84.501 125.499s-31 110.5 -31 180.5c0 7.33301 0.333008 15 1 23s1 13.667 1 17h187
c0 -0.666992 -0.166992 -2.66699 -0.5 -6s-0.666016 -7.16602 -0.999023 -11.499l-1 -13.5c-0.333008 -4.66699 -0.5 -8.33398 -0.5 -11.001c0 -43.333 7 -80.833 21 -112.5s33.5 -58.167 58.5 -79.5s54.5 -37.166 88.5 -47.499s71 -15.5 111 -15.5
c94.667 0 167.5 20 218.5 60s76.5 98 76.5 174c0 44 -10.5 80.5 -31.5 109.5s-48.667 53.667 -83 74s-73.333 37.833 -117 52.5l-134 45c-45.667 15.333 -90.334 32.666 -134.001 51.999s-82.667 44 -117 74s-62 66.667 -83 110s-31.5 96.666 -31.5 159.999
c0 64.667 11.667 120.834 35 168.501s55.166 87 95.499 118s87.666 54 141.999 69s112.166 22.5 173.499 22.5z" />
    <glyph glyph-name="scedilla" unicode="&#x15f;" horiz-adv-x="840" 
d="M428 1102c50 0 94.1719 -7.83691 132.505 -23.5039s70.666 -37 96.999 -64s46.166 -58.333 59.499 -94s20 -73.5 20 -113.5c0 -7.33301 -0.333008 -15.166 -1 -23.499s-1 -13.5 -1 -15.5h-174v18c0 20.667 -2.33301 41.167 -7 61.5s-12.834 38.5 -24.501 54.5
s-27 28.833 -46 38.5s-42.833 14.5 -71.5 14.5c-30 0 -54.333 -5 -73 -15s-33.5 -22.333 -44.5 -37s-18.5 -30.667 -22.5 -48s-6 -33.333 -6 -48c0 -29.333 7 -53.5 21 -72.5s32.5 -35.167 55.5 -48.5s49.333 -25 79 -35l90.5 -32c30.667 -11.333 60.834 -24.5 90.501 -39.5
s56 -34.333 79 -58s41.5 -52.834 55.5 -87.501s21 -77 21 -127c0 -54 -7.5 -100.833 -22.5 -140.5s-36 -73 -63 -100s-59.167 -47.667 -96.5 -62s-78 -23.166 -122 -26.499l-7 -52c22 -1.33301 43 -4.66602 63 -9.99902s37.667 -13.166 53 -23.499s27.5 -23.5 36.5 -39.5
s13.5 -35.667 13.5 -59c0 -34.667 -7.16699 -62.834 -21.5 -84.501s-32.333 -38.667 -54 -51s-44.834 -20.666 -69.501 -24.999s-47.334 -6.5 -68.001 -6.5c-29.333 0 -59.166 1.5 -89.499 4.5s-57.833 7.16699 -82.5 12.5v100h156c22.667 0 40.5 3.33301 53.5 10
s19.5 20 19.5 40c0 16 -4.83301 28 -14.5 36s-27.834 12 -54.501 12h-68l21 139c-48.667 6.66699 -90.334 19.834 -125.001 39.501s-63 43.5 -85 71.5s-38.167 59.167 -48.5 93.5s-15.5 69.5 -15.5 105.5c0 14 0.333008 24.5 1 31.5s1 11.5 1 13.5h177v-21
c0 -34 4.5 -63 13.5 -87s21.5 -43.833 37.5 -59.5s34.667 -27.167 56 -34.5s44.333 -11 69 -11c22 0 42.667 3.33301 62 10s36.5 16.834 51.5 30.501s26.833 30.5 35.5 50.5s13 43 13 69c0 34 -7 62 -21 84s-32.5 40.5 -55.5 55.5s-49.167 28 -78.5 39l-90.5 33.5
c-31 11.333 -61.167 24.333 -90.5 39s-55.5 33.167 -78.5 55.5s-41.5 50 -55.5 83s-21 73.5 -21 121.5s7.83301 91 23.5 129s38.167 70.167 67.5 96.5s64.5 46.666 105.5 60.999s87.167 21.5 138.5 21.5z" />
    <glyph glyph-name="Scaron" unicode="&#x160;" horiz-adv-x="1120" 
d="M559 1430c60.667 0 117.835 -7.49902 171.502 -22.499s100.5 -38.5 140.5 -70.5s71.5 -73 94.5 -123s34.5 -110 34.5 -180v-24h-186v30c0 36 -6.5 67.833 -19.5 95.5s-30.667 51 -53 70s-48.833 33.5 -79.5 43.5s-63.667 15 -99 15c-36.667 0 -70.834 -4 -102.501 -12
s-59.167 -20 -82.5 -36s-41.666 -36.333 -54.999 -61s-20 -54 -20 -88c0 -42 10.5 -76.833 31.5 -104.5s48.5 -51.334 82.5 -71.001s72.833 -36.834 116.5 -51.501l134 -45c45.667 -15.333 90.334 -32.666 134.001 -51.999s82.5 -43.666 116.5 -72.999
s61.5 -65.333 82.5 -108s31.5 -94.667 31.5 -156c0 -78.667 -12 -145.334 -36 -200.001s-57.167 -99 -99.5 -133s-92.5 -58.667 -150.5 -74s-121 -23 -189 -23c-64 0 -124.667 7.5 -182 22.5s-107.5 39.167 -150.5 72.5s-77.167 76.833 -102.5 130.5s-38 119.167 -38 196.5
c0 7.33301 0.333008 15 1 23s1 13.667 1 17h187c0 -0.666992 -0.166992 -2.66699 -0.5 -6s-0.666016 -7.16602 -0.999023 -11.499l-1 -13.5c-0.333008 -4.66699 -0.5 -8.33398 -0.5 -11.001c0 -43.333 7 -80.833 21 -112.5s33.5 -58.167 58.5 -79.5
s54.5 -37.166 88.5 -47.499s71 -15.5 111 -15.5c94.667 0 167.5 20 218.5 60s76.5 98 76.5 174c0 44 -10.5 80.5 -31.5 109.5s-48.667 53.667 -83 74s-73.333 37.833 -117 52.5l-134 45c-45.667 15.333 -90.334 32.666 -134.001 51.999s-82.667 44 -117 74
s-62 66.667 -83 110s-31.5 96.666 -31.5 159.999c0 64.667 11.667 120.834 35 168.501s55.166 87 95.499 118s87.666 54 141.999 69s112.166 22.5 173.499 22.5zM639.001 1532h-160l-174 277h164l91 -162l92 162h164z" />
    <glyph glyph-name="scaron" unicode="&#x161;" horiz-adv-x="840" 
d="M428 1102c50 0 94.1689 -7.83496 132.502 -23.502s70.666 -37 96.999 -64s46.166 -58.333 59.499 -94s20 -73.5 20 -113.5c0 -7.33301 -0.333008 -15.166 -1 -23.499s-1 -13.5 -1 -15.5h-174v18c0 20.667 -2.33301 41.167 -7 61.5s-12.834 38.5 -24.501 54.5
s-27 28.833 -46 38.5s-42.833 14.5 -71.5 14.5c-30 0 -54.333 -5 -73 -15s-33.5 -22.333 -44.5 -37s-18.5 -30.667 -22.5 -48s-6 -33.333 -6 -48c0 -29.333 7 -53.5 21 -72.5s32.5 -35.167 55.5 -48.5s49.333 -25 79 -35l90.5 -32c30.667 -11.333 60.834 -24.5 90.501 -39.5
s56 -34.333 79 -58s41.5 -52.834 55.5 -87.501s21 -77 21 -127c0 -58 -8.66699 -107.833 -26 -149.5s-41.333 -76 -72 -103s-67 -46.833 -109 -59.5s-87.667 -19 -137 -19c-62 0 -115 8.83301 -159 26.5s-79.833 41.334 -107.5 71.001s-48 63.334 -61 101.001
s-19.5 76.5 -19.5 116.5c0 14 0.333008 24.5 1 31.5s1 11.5 1 13.5h177v-21c0 -34 4.5 -63 13.5 -87s21.5 -43.833 37.5 -59.5s34.667 -27.167 56 -34.5s44.333 -11 69 -11c22 0 42.667 3.33301 62 10s36.5 16.834 51.5 30.501s26.833 30.5 35.5 50.5s13 43 13 69
c0 34 -7 62 -21 84s-32.5 40.5 -55.5 55.5s-49.167 28 -78.5 39l-90.5 33.5c-31 11.333 -61.167 24.333 -90.5 39s-55.5 33.167 -78.5 55.5s-41.5 50 -55.5 83s-21 73.5 -21 121.5s7.83301 91 23.5 129s38.167 70.167 67.5 96.5s64.5 46.666 105.5 60.999
s87.167 21.5 138.5 21.5zM499.002 1204h-160l-174 277h164l91 -162l92 162h164z" />
    <glyph glyph-name="Tcommaaccent" unicode="&#x162;" horiz-adv-x="1026" 
d="M600 -295l-59 -160h-90l45 146h-70v186h174v-172zM39 1405h946v-164h-383v-1241h-180v1241h-383v164z" />
    <glyph glyph-name="tcommaaccent" unicode="&#x163;" horiz-adv-x="467" 
d="M289 1077h145.002v-150h-145v-703c0 -32 8 -56.5 24 -73.5s40 -25.5 72 -25.5h49v-117c-14 -8 -32.5 -14.667 -55.5 -20s-44.833 -8 -65.5 -8c-36.667 0 -67.334 7.16699 -92.001 21.5s-44.334 33.166 -59.001 56.499s-25.167 49.833 -31.5 79.5s-9.5 59.834 -9.5 90.501
v699h-93v150h93l37 299h131v-299zM322.002 -295l-60 -159h-91l46 145h-70v186h175v-172z" />
    <glyph glyph-name="Tcaron" unicode="&#x164;" horiz-adv-x="1026" 
d="M592 1532h-160l-174 276h164l90 -161l92 161h164zM39 1405h946v-164h-383v-1241h-180v1241h-383v164z" />
    <glyph glyph-name="tcaron" unicode="&#x165;" horiz-adv-x="629" 
d="M289 1077h145.002v-150h-145v-703c0 -32 8 -56.5 24 -73.5s40 -25.5 72 -25.5h49v-117c-14 -8 -32.5 -14.667 -55.5 -20s-44.833 -8 -65.5 -8c-36.667 0 -67.334 7.16699 -92.001 21.5s-44.334 33.166 -59.001 56.499s-25.167 49.833 -31.5 79.5s-9.5 59.834 -9.5 90.501
v699h-93v150h93l37 299h131v-299zM722.002 1202l-99 -273h-106l82 255h-82v221h205v-203z" />
    <glyph glyph-name="Tbar" unicode="&#x166;" horiz-adv-x="1026" 
d="M985 1241h-383v-436h268v-150h-268v-655h-180v655h-264v150h264v436h-383v164h946v-164z" />
    <glyph glyph-name="tbar" unicode="&#x167;" horiz-adv-x="468" 
d="M289 1077h145.002v-150h-145v-213h135v-138h-135v-352c0 -32 8 -56.5 24 -73.5s40 -25.5 72 -25.5h49v-117c-14 -8 -32.5 -14.667 -55.5 -20s-44.833 -8 -65.5 -8c-36.667 0 -67.334 7.16699 -92.001 21.5s-44.334 33.166 -59.001 56.499s-25.167 49.833 -31.5 79.5
s-9.5 59.834 -9.5 90.501v348h-89v138h89v213h-93v150h93l37 299h131v-299z" />
    <glyph glyph-name="Utilde" unicode="&#x168;" horiz-adv-x="1212" 
d="M1069 457c0 -79.333 -10.5 -148.833 -31.5 -208.5s-51.5 -109.834 -91.5 -150.501s-88.667 -71.167 -146 -91.5s-122 -30.5 -194 -30.5s-136.667 10.167 -194 30.5s-106 50.833 -146 91.5s-70.5 90.834 -91.5 150.501s-31.5 129.167 -31.5 208.5v948h180v-959
c0 -99.333 25.167 -175 75.5 -227s119.5 -78 207.5 -78s157.167 26 207.5 78s75.5 127.667 75.5 227v959h180v-948zM905 1809c0 -24 -3.33203 -48.499 -9.99902 -73.499s-17 -47.833 -31 -68.5s-32 -37.667 -54 -51s-48.333 -20 -79 -20c-22 0 -43 3.33301 -63 10
s-39.5 13.834 -58.5 21.501s-37.833 14.834 -56.5 21.501s-38 10 -58 10c-18.667 0 -34 -4.66699 -46 -14s-19.667 -25.666 -23 -48.999h-119c0 23.333 3.33301 47.666 10 72.999s17 48.333 31 69s32 37.667 54 51s48.333 20 79 20c22 0 42.833 -3.33301 62.5 -10
s39 -13.834 58 -21.501s37.833 -14.834 56.5 -21.501s38 -10 58 -10c18.667 0 34.167 4.66699 46.5 14s20.166 25.666 23.499 48.999h119z" />
    <glyph glyph-name="utilde" unicode="&#x169;" 
d="M811 0l-126.997 0.000976562l-22 125h-13c-30 -54 -67.5 -92.333 -112.5 -115s-94.167 -34 -147.5 -34c-40 0 -76.5 5.66699 -109.5 17s-61 29.833 -84 55.5s-40.833 59.167 -53.5 100.5s-19 92 -19 152v776h168v-764c0 -37.333 3.66699 -68.166 11 -92.499
s17.666 -43.5 30.999 -57.5s29.166 -23.833 47.499 -29.5s38.833 -8.5 61.5 -8.5c26.667 0 52.167 6.66699 76.5 20s45.666 32.666 63.999 57.999s33 56.166 44 92.499s16.5 77.833 16.5 124.5v657h168v-1077zM766.003 1481c0 -24 -3.33203 -48.499 -9.99902 -73.499
s-17 -47.833 -31 -68.5s-32 -37.667 -54 -51s-48.333 -20 -79 -20c-22 0 -43 3.33301 -63 10s-39.5 13.834 -58.5 21.501s-37.833 14.834 -56.5 21.501s-38 10 -58 10c-18.667 0 -34 -4.66699 -46 -14s-19.667 -25.666 -23 -48.999h-119c0 23.333 3.33301 47.666 10 72.999
s17 48.333 31 69s32 37.667 54 51s48.333 20 79 20c22 0 42.833 -3.33301 62.5 -10s39 -13.834 58 -21.501s37.833 -14.834 56.5 -21.501s38 -10 58 -10c18.667 0 34.167 4.66699 46.5 14s20.166 25.666 23.499 48.999h119z" />
    <glyph glyph-name="Umacron" unicode="&#x16a;" horiz-adv-x="1212" 
d="M1069 457c0 -79.333 -10.5 -148.833 -31.5 -208.5s-51.5 -109.834 -91.5 -150.501s-88.667 -71.167 -146 -91.5s-122 -30.5 -194 -30.5s-136.667 10.167 -194 30.5s-106 50.833 -146 91.5s-70.5 90.834 -91.5 150.501s-31.5 129.167 -31.5 208.5v948h180v-959
c0 -99.333 25.167 -175 75.5 -227s119.5 -78 207.5 -78s157.167 26 207.5 78s75.5 127.667 75.5 227v959h180v-948zM863 1554h-513v148h513v-148z" />
    <glyph glyph-name="umacron" unicode="&#x16b;" 
d="M811 0l-126.997 0.000976562l-22 125h-13c-30 -54 -67.5 -92.333 -112.5 -115s-94.167 -34 -147.5 -34c-40 0 -76.5 5.66699 -109.5 17s-61 29.833 -84 55.5s-40.833 59.167 -53.5 100.5s-19 92 -19 152v776h168v-764c0 -37.333 3.66699 -68.166 11 -92.499
s17.666 -43.5 30.999 -57.5s29.166 -23.833 47.499 -29.5s38.833 -8.5 61.5 -8.5c26.667 0 52.167 6.66699 76.5 20s45.666 32.666 63.999 57.999s33 56.166 44 92.499s16.5 77.833 16.5 124.5v657h168v-1077zM724.003 1226h-513v148h513v-148z" />
    <glyph glyph-name="Ubreve" unicode="&#x16c;" horiz-adv-x="1212" 
d="M1069 457c0 -79.333 -10.5 -148.833 -31.5 -208.5s-51.5 -109.834 -91.5 -150.501s-88.667 -71.167 -146 -91.5s-122 -30.5 -194 -30.5s-136.667 10.167 -194 30.5s-106 50.833 -146 91.5s-70.5 90.834 -91.5 150.501s-31.5 129.167 -31.5 208.5v948h180v-959
c0 -99.333 25.167 -175 75.5 -227s119.5 -78 207.5 -78s157.167 26 207.5 78s75.5 127.667 75.5 227v959h180v-948zM860 1809c0 -23.333 -5.83301 -46.833 -17.5 -70.5s-28.5 -45 -50.5 -64s-48.667 -34.5 -80 -46.5s-66.666 -18 -105.999 -18s-74.5 6 -105.5 18
s-57.5 27.5 -79.5 46.5s-38.833 40.333 -50.5 64s-17.5 47.167 -17.5 70.5h132c1.33301 -7.33301 5.16602 -15 11.499 -23s14.833 -15.333 25.5 -22s23 -12.167 37 -16.5s29.667 -6.5 47 -6.5s33.333 2.16699 48 6.5s27.334 9.83301 38.001 16.5s19.167 14 25.5 22
s10.166 15.667 11.499 23h131z" />
    <glyph glyph-name="ubreve" unicode="&#x16d;" 
d="M811 0l-126.997 0.000976562l-22 125h-13c-30 -54 -67.5 -92.333 -112.5 -115s-94.167 -34 -147.5 -34c-40 0 -76.5 5.66699 -109.5 17s-61 29.833 -84 55.5s-40.833 59.167 -53.5 100.5s-19 92 -19 152v776h168v-764c0 -37.333 3.66699 -68.166 11 -92.499
s17.666 -43.5 30.999 -57.5s29.166 -23.833 47.499 -29.5s38.833 -8.5 61.5 -8.5c26.667 0 52.167 6.66699 76.5 20s45.666 32.666 63.999 57.999s33 56.166 44 92.499s16.5 77.833 16.5 124.5v657h168v-1077zM721.003 1481c0 -23.333 -5.83301 -46.833 -17.5 -70.5
s-28.5 -45 -50.5 -64s-48.667 -34.5 -80 -46.5s-66.666 -18 -105.999 -18s-74.5 6 -105.5 18s-57.5 27.5 -79.5 46.5s-38.833 40.333 -50.5 64s-17.5 47.167 -17.5 70.5h132c1.33301 -7.33301 5.16602 -15 11.499 -23s14.833 -15.333 25.5 -22s23 -12.167 37 -16.5
s29.667 -6.5 47 -6.5s33.333 2.16699 48 6.5s27.334 9.83301 38.001 16.5s19.167 14 25.5 22s10.166 15.667 11.499 23h131z" />
    <glyph glyph-name="Uring" unicode="&#x16e;" horiz-adv-x="1212" 
d="M1069 457c0 -79.333 -10.5 -148.833 -31.5 -208.5s-51.5 -109.834 -91.5 -150.501s-88.667 -71.167 -146 -91.5s-122 -30.5 -194 -30.5s-136.667 10.167 -194 30.5s-106 50.833 -146 91.5s-70.5 90.834 -91.5 150.501s-31.5 129.167 -31.5 208.5v948h180v-959
c0 -99.333 25.167 -175 75.5 -227s119.5 -78 207.5 -78s157.167 26 207.5 78s75.5 127.667 75.5 227v959h180v-948zM606 1873c28 0 53.833 -5.16699 77.5 -15.5s44.334 -24.5 62.001 -42.5s31.5 -38.833 41.5 -62.5s15 -48.834 15 -75.501c0 -27.333 -5.16699 -53 -15.5 -77
s-24.333 -44.833 -42 -62.5s-38.334 -31.667 -62.001 -42s-49.167 -15.5 -76.5 -15.5c-26.667 0 -52 5 -76 15s-45 23.833 -63 41.5s-32.167 38.5 -42.5 62.5s-15.5 50 -15.5 78c0 27.333 5.16699 52.833 15.5 76.5s24.333 44.334 42 62.001s38.5 31.667 62.5 42
s49.667 15.5 77 15.5zM606 1781c-14 0 -27.5 -2.66699 -40.5 -8s-24.167 -12.833 -33.5 -22.5s-16.833 -20.834 -22.5 -33.501s-8.5 -26 -8.5 -40s2.83301 -27.5 8.5 -40.5s13.167 -24.167 22.5 -33.5s20.5 -16.833 33.5 -22.5s26.5 -8.5 40.5 -8.5s27.167 2.83301 39.5 8.5
s23.333 13.167 33 22.5s17.334 20.5 23.001 33.5s8.5 26.5 8.5 40.5s-2.83301 27.333 -8.5 40s-13.334 23.834 -23.001 33.501s-20.667 17.167 -33 22.5s-25.5 8 -39.5 8z" />
    <glyph glyph-name="uring" unicode="&#x16f;" 
d="M811 0l-126.997 0.000976562l-22 125h-13c-30 -54 -67.5 -92.333 -112.5 -115s-94.167 -34 -147.5 -34c-40 0 -76.5 5.66699 -109.5 17s-61 29.833 -84 55.5s-40.833 59.167 -53.5 100.5s-19 92 -19 152v776h168v-764c0 -37.333 3.66699 -68.166 11 -92.499
s17.666 -43.5 30.999 -57.5s29.166 -23.833 47.499 -29.5s38.833 -8.5 61.5 -8.5c26.667 0 52.167 6.66699 76.5 20s45.666 32.666 63.999 57.999s33 56.166 44 92.499s16.5 77.833 16.5 124.5v657h168v-1077zM467.003 1545c28 0 53.833 -5.16699 77.5 -15.5
s44.334 -24.5 62.001 -42.5s31.5 -38.833 41.5 -62.5s15 -48.834 15 -75.501c0 -27.333 -5.16699 -53 -15.5 -77s-24.333 -44.833 -42 -62.5s-38.334 -31.667 -62.001 -42s-49.167 -15.5 -76.5 -15.5c-26.667 0 -52 5 -76 15s-45 23.833 -63 41.5s-32.167 38.5 -42.5 62.5
s-15.5 50 -15.5 78c0 27.333 5.16699 52.833 15.5 76.5s24.333 44.334 42 62.001s38.5 31.667 62.5 42s49.667 15.5 77 15.5zM467.003 1453c-14 0 -27.5 -2.66699 -40.5 -8s-24.167 -12.833 -33.5 -22.5s-16.833 -20.834 -22.5 -33.501s-8.5 -26 -8.5 -40
s2.83301 -27.5 8.5 -40.5s13.167 -24.167 22.5 -33.5s20.5 -16.833 33.5 -22.5s26.5 -8.5 40.5 -8.5s27.167 2.83301 39.5 8.5s23.333 13.167 33 22.5s17.334 20.5 23.001 33.5s8.5 26.5 8.5 40.5s-2.83301 27.333 -8.5 40s-13.334 23.834 -23.001 33.501
s-20.667 17.167 -33 22.5s-25.5 8 -39.5 8z" />
    <glyph glyph-name="Uhungarumlaut" unicode="&#x170;" horiz-adv-x="1212" 
d="M1069 457c0 -79.333 -10.5 -148.833 -31.5 -208.5s-51.5 -109.834 -91.5 -150.501s-88.667 -71.167 -146 -91.5s-122 -30.5 -194 -30.5s-136.667 10.167 -194 30.5s-106 50.833 -146 91.5s-70.5 90.834 -91.5 150.501s-31.5 129.167 -31.5 208.5v948h180v-959
c0 -99.333 25.167 -175 75.5 -227s119.5 -78 207.5 -78s157.167 26 207.5 78s75.5 127.667 75.5 227v959h180v-948zM990 1802l-172 -264h-141l127 271h184zM723 1802l-172 -264h-141l127 271h184z" />
    <glyph glyph-name="uhungarumlaut" unicode="&#x171;" 
d="M811 0l-126.997 0.000976562l-22 125h-13c-30 -54 -67.5 -92.333 -112.5 -115s-94.167 -34 -147.5 -34c-40 0 -76.5 5.66699 -109.5 17s-61 29.833 -84 55.5s-40.833 59.167 -53.5 100.5s-19 92 -19 152v776h168v-764c0 -37.333 3.66699 -68.166 11 -92.499
s17.666 -43.5 30.999 -57.5s29.166 -23.833 47.499 -29.5s38.833 -8.5 61.5 -8.5c26.667 0 52.167 6.66699 76.5 20s45.666 32.666 63.999 57.999s33 56.166 44 92.499s16.5 77.833 16.5 124.5v657h168v-1077zM851.003 1474l-172 -264h-141l127 271h184zM584.003 1474
l-172 -264h-141l127 271h184z" />
    <glyph glyph-name="Uogonek" unicode="&#x172;" horiz-adv-x="1212" 
d="M1069 457c0 -115.333 -21.8311 -210.001 -65.498 -284.001s-105.834 -127.333 -186.501 -160c-6 -7.33301 -12.5 -16.166 -19.5 -26.499s-13.5 -21.5 -19.5 -33.5s-10.833 -24.833 -14.5 -38.5s-5.5 -27.5 -5.5 -41.5s1.66699 -27.833 5 -41.5
s8.66602 -25.834 15.999 -36.501s16.833 -19.167 28.5 -25.5s26.167 -9.5 43.5 -9.5h65v-104c-21.333 -9.33301 -42.333 -16.5 -63 -21.5s-41.334 -7.5 -62.001 -7.5c-22 0 -44.5 3 -67.5 9s-43.667 16.167 -62 30.5s-33.5 33.333 -45.5 57s-18 53.167 -18 88.5
c0 36 5.33301 67.333 16 94s24.334 50.667 41.001 72c-8 -0.666992 -16 -1.16699 -24 -1.5s-16.333 -0.5 -25 -0.5c-72 0 -136.667 10.167 -194 30.5s-106 50.833 -146 91.5s-70.5 90.834 -91.5 150.501s-31.5 129.167 -31.5 208.5v948h180v-959
c0 -99.333 25.167 -175 75.5 -227s119.5 -78 207.5 -78s157.167 26 207.5 78s75.5 127.667 75.5 227v959h180v-948z" />
    <glyph glyph-name="uogonek" unicode="&#x173;" 
d="M811 0l-13.9951 0.000976562c-11.333 -15.333 -22.166 -34.166 -32.499 -56.499s-15.5 -45.833 -15.5 -70.5c0 -14 1.66699 -27.833 5 -41.5s8.66602 -25.834 15.999 -36.501s16.833 -19.167 28.5 -25.5s26.167 -9.5 43.5 -9.5h65v-104
c-21.333 -9.33301 -42.333 -16.5 -63 -21.5s-41.334 -7.5 -62.001 -7.5c-22 0 -44.5 3 -67.5 9s-43.667 16.167 -62 30.5s-33.5 33.333 -45.5 57s-18 53.167 -18 88.5c0 24 2.5 45.833 7.5 65.5s11.667 37.667 20 54s18.166 31.5 29.499 45.5s23 27.333 35 40l-19 108h-13
c-30 -54 -67.5 -92.333 -112.5 -115s-94.167 -34 -147.5 -34c-40 0 -76.5 5.66699 -109.5 17s-61 29.833 -84 55.5s-40.833 59.167 -53.5 100.5s-19 92 -19 152v776h168v-764c0 -37.333 3.66699 -68.166 11 -92.499s17.666 -43.5 30.999 -57.5s29.166 -23.833 47.499 -29.5
s38.833 -8.5 61.5 -8.5c26.667 0 52.167 6.66699 76.5 20s45.666 32.666 63.999 57.999s33 56.166 44 92.499s16.5 77.833 16.5 124.5v657h168v-1077z" />
    <glyph glyph-name="Wcircumflex" unicode="&#x174;" horiz-adv-x="1585" 
d="M1239 0l-233.002 0.00195312l-172 953c-4 23.333 -8.33301 50.833 -13 82.5s-9 62.5 -13 92.5l-14 106h-8c-4 -36 -8.33301 -71.333 -13 -106c-4 -30 -8.33301 -60.833 -13 -92.5s-9 -59.167 -13 -82.5l-167 -953h-234l-326 1405h190l216 -971
c4.66699 -20.667 9.33398 -45.334 14.001 -74.001l14 -82l15 -94h8c2.66699 25.333 5.66699 51.666 9 78.999l11 79.5c4 29.667 8.66699 60.167 14 91.5l163 971h249l175 -971c4.66699 -25.333 9.33398 -52.5 14.001 -81.5s8.66699 -56.167 12 -81.5
c4 -29.333 7.66699 -58.333 11 -87h8l14 90l13.5 81.5c5 29 10.167 55.167 15.5 78.5l215 971h164zM1049 1530h-164l-90 162l-93 -162h-164l176 277h160z" />
    <glyph glyph-name="wcircumflex" unicode="&#x175;" horiz-adv-x="1212" 
d="M940 0h-186l-113 614c-5.33301 28 -9.83301 56.667 -13.5 86s-7.16699 56 -10.5 80c-3.33301 28 -6.33301 55.333 -9 82h-8c-2.66699 -26.667 -5.66699 -54 -9 -82c-3.33301 -24 -6.83301 -50.667 -10.5 -80s-8.16699 -58 -13.5 -86l-110 -614h-187l-268 1077h184
l135 -606c5.33301 -22 10.5 -47.667 15.5 -77s9.5 -57.333 13.5 -84l14 -95h9c2.66699 28 5.66699 56.667 9 86l10.5 83c3.66699 30 8.16699 59 13.5 87l109 606h194l111 -606c4.66699 -28 8.83398 -56.833 12.501 -86.5l10.5 -82.5c3.33301 -29.333 6.33301 -58.333 9 -87
h8c3.33301 26 7.33301 53.333 12 82c3.33301 24.667 7.66602 52 12.999 82s11.333 60.667 18 92l135 606h170zM862 1202h-164l-90 162l-93 -162h-164l176 277h160z" />
    <glyph glyph-name="Ycircumflex" unicode="&#x176;" horiz-adv-x="1120" 
d="M651 582v-582h-180v582l-455 823h199l356 -651h9l349 651h175zM816 1530h-164l-90 162l-93 -162h-164l176 277h160z" />
    <glyph glyph-name="ycircumflex" unicode="&#x177;" horiz-adv-x="840" 
d="M547 55c-16 -58.667 -34.334 -114.001 -55.001 -166.001s-44.834 -97.333 -72.501 -136s-59.667 -69.334 -96 -92.001s-78.166 -34 -125.499 -34c-23.333 0 -44.833 1.16699 -64.5 3.5s-38.167 6.83301 -55.5 13.5v116h59c22.667 0 44.667 3.83301 66 11.5
s41.333 20.834 60 39.501s35.334 43.334 50.001 74.001s27 69 37 115l-330 1077h184l238 -835h8l201 835h171zM675.999 1202h-164l-90 162l-93 -162h-164l176 277h160z" />
    <glyph glyph-name="Ydieresis" unicode="&#x178;" horiz-adv-x="1120" 
d="M651 582v-582h-180v582l-455 823h199l356 -651h9l349 651h175zM803 1614h-179v195h179v-195zM495 1614h-178v195h178v-195z" />
    <glyph glyph-name="Zacute" unicode="&#x179;" horiz-adv-x="1026" 
d="M532 1538h-141l176 270h185l2 -6zM41 0v78l668 1163h-625v164h883v-78l-670 -1163h684v-164h-940z" />
    <glyph glyph-name="zacute" unicode="&#x17a;" horiz-adv-x="840" 
d="M283 149h501v-149h-731v80l474 847h-441v150h672v-77zM440 1210h-142l176 271h184l2 -7z" />
    <glyph glyph-name="Zdotaccent" unicode="&#x17b;" horiz-adv-x="1026" 
d="M602 1614h-178v194h178v-194zM41 0v78l668 1163h-625v164h883v-78l-670 -1163h684v-164h-940z" />
    <glyph glyph-name="zdotaccent" unicode="&#x17c;" horiz-adv-x="840" 
d="M758 1000l-475 -851h501v-149h-731v80l474 847h-441v150h672v-77zM510 1286h-179v195h179v-195z" />
    <glyph glyph-name="Zcaron" unicode="&#x17d;" horiz-adv-x="1026" 
d="M592 1532h-160l-174 276h164l90 -161l92 161h164zM41 0v78l668 1163h-625v164h883v-78l-670 -1163h684v-164h-940z" />
    <glyph glyph-name="zcaron" unicode="&#x17e;" horiz-adv-x="840" 
d="M758 1000l-475 -851h501v-149h-731v80l474 847h-441v150h672v-77zM499 1204h-160l-174 277h164l91 -162l92 162h164z" />
    </font>
</defs>
</svg>
